{
.appVersion = "1352";
DisplayStrings = (
abcdefghijklmnopqrstuvwxyz,
ABCDEFGHIJKLMNOPQRSTUVWXYZ,
"/f_f/space/f_f_i/space/f_f_l/space/fi/space/fl \012ff/space ffi/space ffl/space fi/space fl"
);
copyright = "Copyright 2016 The My Soul Project Authors (https://github.com/googlefonts/my-soul)";
customParameters = (
{
name = panose;
value = (
2,
0,
5,
7,
6,
0,
0,
2,
0,
3
);
},
{
name = blueScale;
value = 0.31141;
},
{
name = fsType;
value = (
);
},
{
name = "Use Typo Metrics";
value = 1;
},
{
name = glyphOrder;
value = (
.notdef,
CR,
.null,
space,
nbspace
);
},
{
name = licenseURL;
value = "https://scripts.sil.org/OFL";
},
{
name = license;
value = "This Font Software is licensed under the SIL Open Font License, Version 1.1. This license is available with a FAQ at: https://scripts.sil.org/OFL";
},
{
name = vendorID;
value = GOOG;
}
);
date = "2022-02-17 01:42:17 +0000";
designer = "Robert E. Leuschke";
designerURL = www.typesetit.com;
disablesNiceNames = 1;
familyName = "My Soul";
featurePrefixes = (
{
automatic = 1;
code = "languagesystem DFLT dflt;\012\012languagesystem latn dflt;\012languagesystem latn AZE;\012languagesystem latn CRT;\012languagesystem latn KAZ;\012languagesystem latn TAT;\012languagesystem latn TRK;\012languagesystem latn ROM;\012languagesystem latn MOL;\012languagesystem latn CAT;\012";
name = Languagesystems;
}
);
features = (
{
automatic = 1;
code = "feature locl;\012feature sups;\012feature frac;\012feature ordn;\012";
name = aalt;
},
{
automatic = 1;

glyphs = (
{
glyphname = .notdef;
lastChange = "2022-02-17 03:35:41 +0000";
layers = (
{
layerId = "9E0C627C-9F9A-47B5-8A8C-706F30D5AE4A";
paths = (
{
closed = 1;
nodes = (
"378 5 LINE",
"387 13 LINE",
"387 626 LINE",
"378 635 LINE",
"58 635 LINE",
"51 626 LINE",
"50 626 LINE",
"50 14 LINE",
"58 5 LINE"
);
},
{
closed = 1;
nodes = (
"219 304 LINE",
"365 23 LINE",
"72 23 LINE"
);
},
{
closed = 1;
nodes = (
"69 590 LINE",
"210 320 LINE",
"69 50 LINE"
);
},
{
closed = 1;
nodes = (
"227 320 LINE",
"368 590 LINE",
"368 50 LINE"
);
},
{
closed = 1;
nodes = (
"71 616 LINE",
"366 616 LINE",
"219 335 LINE"
);
}
);
width = 437;
}
);
note = .notdef;
},
{
glyphname = A;
lastChange = "2022-02-17 03:35:41 +0000";
layers = (
{
layerId = "9E0C627C-9F9A-47B5-8A8C-706F30D5AE4A";
paths = (
{
closed = 1;
nodes = (
"111 -228 OFFCURVE",
"115 -224 OFFCURVE",
"115 -220 CURVE SMOOTH",
"115 -218 OFFCURVE",
"114 -216 OFFCURVE",
"113 -215 CURVE SMOOTH",
"97 -194 OFFCURVE",
"92 -173 OFFCURVE",
"92 -147 CURVE SMOOTH",
"92 -67 OFFCURVE",
"140 26 OFFCURVE",
"191 85 CURVE SMOOTH",
"344 265 OFFCURVE",
"565 366 OFFCURVE",
"762 490 CURVE SMOOTH",
"775 498 OFFCURVE",
"815 526 OFFCURVE",
"830 526 CURVE SMOOTH",
"834 526 OFFCURVE",
"836 524 OFFCURVE",
"836 520 CURVE SMOOTH",
"836 515 LINE SMOOTH",
"824 370 OFFCURVE",
"734 212 OFFCURVE",
"655 90 CURVE SMOOTH",
"641 69 OFFCURVE",
"615 28 OFFCURVE",
"598 12 CURVE SMOOTH",
"588 3 OFFCURVE",
"574 2 OFFCURVE",
"574 -14 CURVE SMOOTH",
"574 -29 OFFCURVE",
"588 -47 OFFCURVE",
"604 -47 CURVE SMOOTH",
"628 -47 OFFCURVE",
"682 18 OFFCURVE",
"698 36 CURVE SMOOTH",
"728 69 OFFCURVE",
"766 99 OFFCURVE",
"810 108 CURVE SMOOTH",
"813 109 OFFCURVE",
"818 110 OFFCURVE",
"818 113 CURVE SMOOTH",
"818 117 OFFCURVE",
"812 118 OFFCURVE",
"808 118 CURVE SMOOTH",
"778 118 OFFCURVE",
"686 66 OFFCURVE",
"658 49 CURVE",
"796 190 OFFCURVE",
"890 361 OFFCURVE",
"920 556 CURVE",
"928 555 OFFCURVE",
"935 555 OFFCURVE",
"943 555 CURVE SMOOTH",
"990 555 OFFCURVE",
"1005 570 OFFCURVE",
"1039 595 CURVE SMOOTH",
"1043 598 OFFCURVE",
"1047 601 OFFCURVE",
"1047 606 CURVE SMOOTH",
"1047 608 OFFCURVE",
"1046 609 OFFCURVE",
"1044 609 CURVE SMOOTH",
"1040 609 OFFCURVE",
"1031 601 OFFCURVE",
"1012 601 CURVE SMOOTH",
"968 601 OFFCURVE",
"905 620 OFFCURVE",
"863 632 CURVE SMOOTH",
"752 665 OFFCURVE",
"634 697 OFFCURVE",
"518 697 CURVE SMOOTH",
"328 697 OFFCURVE",
"30 610 OFFCURVE",
"30 375 CURVE SMOOTH",
"30 322 OFFCURVE",
"59 280 OFFCURVE",
"108 259 CURVE SMOOTH",
"121 253 OFFCURVE",
"136 249 OFFCURVE",
"151 249 CURVE SMOOTH",
"154 249 OFFCURVE",
"164 250 OFFCURVE",
"164 254 CURVE SMOOTH",
"164 258 OFFCURVE",
"159 258 OFFCURVE",
"157 258 CURVE SMOOTH",
"91 258 OFFCURVE",
"82 346 OFFCURVE",
"82 395 CURVE SMOOTH",
"82 584 OFFCURVE",
"285 663 OFFCURVE",
"446 663 CURVE SMOOTH",
"582 663 OFFCURVE",
"708 616 OFFCURVE",
"836 577 CURVE",
"813 553 OFFCURVE",
"784 534 OFFCURVE",
"756 516 CURVE SMOOTH",
"553 388 OFFCURVE",
"285 274 OFFCURVE",
"128 91 CURVE SMOOTH",
"85 40 OFFCURVE",
"60 -27 OFFCURVE",
"60 -95 CURVE SMOOTH",
"60 -139 OFFCURVE",
"71 -191 OFFCURVE",
"102 -225 CURVE",
"103 -227 OFFCURVE",
"105 -228 OFFCURVE",
"107 -228 CURVE SMOOTH"
);
},
{
closed = 1;
nodes = (
"661 214 OFFCURVE",
"663 215 OFFCURVE",
"665 216 CURVE SMOOTH",
"688 228 OFFCURVE",
"715 252 OFFCURVE",
"715 280 CURVE SMOOTH",
"715 314 OFFCURVE",
"681 320 OFFCURVE",
"654 320 CURVE SMOOTH",
"551 320 OFFCURVE",
"461 246 OFFCURVE",
"375 246 CURVE SMOOTH",
"372 246 OFFCURVE",
"365 245 OFFCURVE",
"365 241 CURVE SMOOTH",
"365 237 OFFCURVE",
"372 236 OFFCURVE",
"375 236 CURVE SMOOTH",
"445 236 OFFCURVE",
"514 246 OFFCURVE",
"584 254 CURVE SMOOTH",
"599 256 OFFCURVE",
"613 258 OFFCURVE",
"628 258 CURVE SMOOTH",
"641 258 OFFCURVE",
"670 256 OFFCURVE",
"670 237 CURVE SMOOTH",
"670 223 OFFCURVE",
"656 223 OFFCURVE",
"656 216 CURVE SMOOTH",
"656 214 OFFCURVE",
"657 214 OFFCURVE",
"658 214 CURVE SMOOTH"
);
}
);
width = 872;
}
);
note = A;
unicode = 0041;
},
{
glyphname = AE;
lastChange = "2022-02-17 03:35:41 +0000";
layers = (
{
layerId = "9E0C627C-9F9A-47B5-8A8C-706F30D5AE4A";
paths = (
{
closed = 1;
nodes = (
"111 -228 OFFCURVE",
"115 -224 OFFCURVE",
"115 -220 CURVE SMOOTH",
"115 -218 OFFCURVE",
"114 -216 OFFCURVE",
"113 -215 CURVE SMOOTH",
"97 -194 OFFCURVE",
"92 -173 OFFCURVE",
"92 -147 CURVE SMOOTH",
"92 -67 OFFCURVE",
"140 26 OFFCURVE",
"191 85 CURVE SMOOTH",
"344 265 OFFCURVE",
"566 367 OFFCURVE",
"762 490 CURVE SMOOTH",
"775 498 OFFCURVE",
"815 526 OFFCURVE",
"830 526 CURVE SMOOTH",
"834 526 OFFCURVE",
"836 524 OFFCURVE",
"836 520 CURVE SMOOTH",
"836 515 LINE SMOOTH",
"823 358 OFFCURVE",
"703 138 OFFCURVE",
"601 16 CURVE",
"553 17 OFFCURVE",
"459 22 OFFCURVE",
"426 63 CURVE SMOOTH",
"420 70 OFFCURVE",
"418 76 OFFCURVE",
"415 84 CURVE SMOOTH",
"414 87 OFFCURVE",
"412 92 OFFCURVE",
"408 92 CURVE SMOOTH",
"402 92 OFFCURVE",
"400 85 OFFCURVE",
"400 80 CURVE SMOOTH",
"400 72 OFFCURVE",
"409 51 OFFCURVE",
"414 43 CURVE SMOOTH",
"452 -21 OFFCURVE",
"552 -29 OFFCURVE",
"619 -29 CURVE SMOOTH",
"680 -29 OFFCURVE",
"740 -22 OFFCURVE",
"801 -18 CURVE SMOOTH",
"874 -13 OFFCURVE",
"946 -9 OFFCURVE",
"1019 -9 CURVE SMOOTH",
"1067 -9 OFFCURVE",
"1114 -11 OFFCURVE",
"1161 -15 CURVE SMOOTH",
"1193 -18 OFFCURVE",
"1298 -18 OFFCURVE",
"1298 -66 CURVE SMOOTH",
"1298 -80 OFFCURVE",
"1288 -94 OFFCURVE",
"1288 -100 CURVE SMOOTH",
"1288 -102 OFFCURVE",
"1290 -103 OFFCURVE",
"1292 -103 CURVE SMOOTH",
"1313 -103 OFFCURVE",
"1325 -53 OFFCURVE",
"1325 -36 CURVE SMOOTH",
"1325 49 OFFCURVE",
"1165 51 OFFCURVE",
"1097 51 CURVE SMOOTH",
"938 51 OFFCURVE",
"783 18 OFFCURVE",
"624 16 CURVE",
"784 166 OFFCURVE",
"885 343 OFFCURVE",
"921 561 CURVE",
"921 566 LINE SMOOTH",
"921 590 OFFCURVE",
"893 618 OFFCURVE",
"869 618 CURVE SMOOTH",
"861 618 OFFCURVE",
"858 615 OFFCURVE",
"856 608 CURVE",
"839 567 OFFCURVE",
"792 539 OFFCURVE",
"756 516 CURVE SMOOTH",
"553 388 OFFCURVE",
"284 274 OFFCURVE",
"128 91 CURVE SMOOTH",
"85 39 OFFCURVE",
"60 -27 OFFCURVE",
"60 -95 CURVE SMOOTH",
"60 -139 OFFCURVE",
"71 -191 OFFCURVE",
"102 -225 CURVE",
"103 -227 OFFCURVE",
"105 -228 OFFCURVE",
"107 -228 CURVE SMOOTH"
);
},
{
closed = 1;
nodes = (
"661 214 OFFCURVE",
"663 215 OFFCURVE",
"665 216 CURVE SMOOTH",
"688 228 OFFCURVE",
"715 252 OFFCURVE",
"715 280 CURVE SMOOTH",
"715 314 OFFCURVE",
"681 320 OFFCURVE",
"654 320 CURVE SMOOTH",
"551 320 OFFCURVE",
"461 246 OFFCURVE",
"375 246 CURVE SMOOTH",
"372 246 OFFCURVE",
"365 245 OFFCURVE",
"365 241 CURVE SMOOTH",
"365 237 OFFCURVE",
"372 236 OFFCURVE",
"375 236 CURVE SMOOTH",
"445 236 OFFCURVE",
"514 246 OFFCURVE",
"584 254 CURVE SMOOTH",
"599 256 OFFCURVE",
"613 258 OFFCURVE",
"628 258 CURVE SMOOTH",
"641 258 OFFCURVE",
"670 256 OFFCURVE",
"670 237 CURVE SMOOTH",
"670 223 OFFCURVE",
"656 223 OFFCURVE",
"656 216 CURVE SMOOTH",
"656 214 OFFCURVE",
"657 214 OFFCURVE",
"658 214 CURVE SMOOTH"
);
},
{
closed = 1;
nodes = (
"273 249 OFFCURVE",
"283 250 OFFCURVE",
"283 254 CURVE SMOOTH",
"283 258 OFFCURVE",
"278 258 OFFCURVE",
"276 258 CURVE SMOOTH",
"210 258 OFFCURVE",
"201 346 OFFCURVE",
"201 395 CURVE SMOOTH",
"201 592 OFFCURVE",
"442 662 OFFCURVE",
"602 662 CURVE SMOOTH",
"688 662 OFFCURVE",
"776 646 OFFCURVE",
"861 630 CURVE SMOOTH",
"983 607 OFFCURVE",
"1105 578 OFFCURVE",
"1224 543 CURVE SMOOTH",
"1251 535 OFFCURVE",
"1278 529 OFFCURVE",
"1306 529 CURVE SMOOTH",
"1353 529 OFFCURVE",
"1368 544 OFFCURVE",
"1402 569 CURVE SMOOTH",
"1406 572 OFFCURVE",
"1410 575 OFFCURVE",
"1410 580 CURVE SMOOTH",
"1410 582 OFFCURVE",
"1409 583 OFFCURVE",
"1407 583 CURVE SMOOTH",
"1403 583 OFFCURVE",
"1394 575 OFFCURVE",
"1375 575 CURVE SMOOTH",
"1331 575 OFFCURVE",
"1268 594 OFFCURVE",
"1226 606 CURVE SMOOTH",
"1051 658 OFFCURVE",
"845 687 OFFCURVE",
"663 687 CURVE SMOOTH",
"458 687 OFFCURVE",
"149 643 OFFCURVE",
"149 375 CURVE SMOOTH",
"149 321 OFFCURVE",
"178 280 OFFCURVE",
"227 259 CURVE SMOOTH",
"240 253 OFFCURVE",
"256 249 OFFCURVE",
"270 249 CURVE SMOOTH"
);
},
{
closed = 1;
nodes = (
"1169 266 OFFCURVE",
"1171 267 OFFCURVE",
"1173 268 CURVE SMOOTH",
"1197 278 OFFCURVE",
"1228 301 OFFCURVE",
"1228 330 CURVE SMOOTH",
"1228 369 OFFCURVE",
"1182 373 OFFCURVE",
"1152 373 CURVE SMOOTH",
"1060 373 OFFCURVE",
"979 322 OFFCURVE",
"899 322 CURVE SMOOTH",
"896 322 OFFCURVE",
"876 325 OFFCURVE",
"876 319 CURVE SMOOTH",
"876 314 OFFCURVE",
"883 313 OFFCURVE",
"886 313 CURVE",
"903 310 OFFCURVE",
"922 310 OFFCURVE",
"941 310 CURVE SMOOTH",
"1001 310 OFFCURVE",
"1060 313 OFFCURVE",
"1119 313 CURVE SMOOTH",
"1135 313 OFFCURVE",
"1180 313 OFFCURVE",
"1180 290 CURVE SMOOTH",
"1180 275 OFFCURVE",
"1164 275 OFFCURVE",
"1164 268 CURVE SMOOTH",
"1164 267 OFFCURVE",
"1165 266 OFFCURVE",
"1167 266 CURVE SMOOTH"
);
}
);
width = 1346;
}
);
note = AE;
unicode = 00C6;
},
{
glyphname = B;
lastChange = "2022-02-17 03:35:41 +0000";
layers = (
{
layerId = "9E0C627C-9F9A-47B5-8A8C-706F30D5AE4A";
paths = (
{
closed = 1;
nodes = (
"129 -59 OFFCURVE",
"139 -54 OFFCURVE",
"148 -50 CURVE SMOOTH",
"165 -42 OFFCURVE",
"214 -41 OFFCURVE",
"225 -35 CURVE SMOOTH",
"234 -30 OFFCURVE",
"238 -24 OFFCURVE",
"241 -14 CURVE",
"271 -19 OFFCURVE",
"301 -21 OFFCURVE",
"331 -21 CURVE SMOOTH",
"357 -21 OFFCURVE",
"383 -20 OFFCURVE",
"408 -16 CURVE SMOOTH",
"443 -11 OFFCURVE",
"478 -3 OFFCURVE",
"511 8 CURVE SMOOTH",
"588 35 OFFCURVE",
"700 96 OFFCURVE",
"742 170 CURVE SMOOTH",
"760 201 OFFCURVE",
"782 247 OFFCURVE",
"782 284 CURVE SMOOTH",
"782 338 OFFCURVE",
"737 352 OFFCURVE",
"691 352 CURVE SMOOTH",
"654 352 OFFCURVE",
"617 347 OFFCURVE",
"579 347 CURVE SMOOTH",
"530 347 LINE",
"627 366 OFFCURVE",
"814 434 OFFCURVE",
"814 554 CURVE SMOOTH",
"814 635 OFFCURVE",
"718 673 OFFCURVE",
"653 689 CURVE",
"690 717 OFFCURVE",
"733 736 OFFCURVE",
"781 736 CURVE SMOOTH",
"816 736 OFFCURVE",
"882 725 OFFCURVE",
"882 679 CURVE SMOOTH",
"882 671 OFFCURVE",
"878 664 OFFCURVE",
"878 657 CURVE SMOOTH",
"878 655 OFFCURVE",
"879 653 OFFCURVE",
"882 653 CURVE SMOOTH",
"895 653 OFFCURVE",
"906 698 OFFCURVE",
"906 710 CURVE SMOOTH",
"906 753 OFFCURVE",
"860 765 OFFCURVE",
"825 765 CURVE SMOOTH",
"753 765 OFFCURVE",
"685 737 OFFCURVE",
"627 695 CURVE",
"576 706 OFFCURVE",
"524 710 OFFCURVE",
"472 710 CURVE SMOOTH",
"302 710 OFFCURVE",
"65 658 OFFCURVE",
"-9 485 CURVE SMOOTH",
"-24 451 OFFCURVE",
"-31 417 OFFCURVE",
"-32 380 CURVE SMOOTH",
"-32 375 LINE SMOOTH",
"-33 321 OFFCURVE",
"-3 281 OFFCURVE",
"46 259 CURVE SMOOTH",
"59 253 OFFCURVE",
"75 249 OFFCURVE",
"89 249 CURVE SMOOTH",
"92 249 OFFCURVE",
"103 250 OFFCURVE",
"103 254 CURVE SMOOTH",
"103 258 OFFCURVE",
"97 258 OFFCURVE",
"95 258 CURVE SMOOTH",
"29 258 OFFCURVE",
"21 346 OFFCURVE",
"21 395 CURVE SMOOTH",
"21 607 OFFCURVE",
"234 680 OFFCURVE",
"412 680 CURVE SMOOTH",
"469 680 OFFCURVE",
"526 673 OFFCURVE",
"581 658 CURVE",
"507 593 OFFCURVE",
"445 507 OFFCURVE",
"398 420 CURVE SMOOTH",
"328 291 OFFCURVE",
"267 157 OFFCURVE",
"185 34 CURVE",
"140 59 OFFCURVE",
"115 101 OFFCURVE",
"115 153 CURVE SMOOTH",
"115 176 OFFCURVE",
"119 200 OFFCURVE",
"137 215 CURVE SMOOTH",
"139 217 OFFCURVE",
"143 219 OFFCURVE",
"143 222 CURVE SMOOTH",
"143 224 OFFCURVE",
"140 225 OFFCURVE",
"138 225 CURVE SMOOTH",
"135 225 OFFCURVE",
"132 224 OFFCURVE",
"129 222 CURVE SMOOTH",
"97 200 OFFCURVE",
"74 160 OFFCURVE",
"74 121 CURVE SMOOTH",
"74 64 OFFCURVE",
"117 26 OFFCURVE",
"166 6 CURVE",
"151 -16 OFFCURVE",
"133 -35 OFFCURVE",
"116 -56 CURVE",
"116 -57 OFFCURVE",
"115 -57 OFFCURVE",
"115 -58 CURVE SMOOTH",
"115 -59 OFFCURVE",
"118 -59 OFFCURVE",
"119 -59 CURVE SMOOTH"
);
},
{
closed = 1;
nodes = (
"310 1 OFFCURVE",
"280 3 OFFCURVE",
"252 10 CURVE",
"280 68 OFFCURVE",
"309 125 OFFCURVE",
"337 183 CURVE SMOOTH",
"354 216 OFFCURVE",
"370 250 OFFCURVE",
"387 282 CURVE SMOOTH",
"399 303 OFFCURVE",
"411 312 OFFCURVE",
"435 315 CURVE SMOOTH",
"462 318 OFFCURVE",
"490 319 OFFCURVE",
"517 319 CURVE SMOOTH",
"567 319 OFFCURVE",
"702 318 OFFCURVE",
"702 246 CURVE SMOOTH",
"702 235 OFFCURVE",
"699 224 OFFCURVE",
"695 214 CURVE SMOOTH",
"654 108 OFFCURVE",
"511 21 OFFCURVE",
"402 5 CURVE SMOOTH",
"381 2 OFFCURVE",
"360 1 OFFCURVE",
"339 1 CURVE SMOOTH"
);
},
{
closed = 1;
nodes = (
"445 357 OFFCURVE",
"434 359 OFFCURVE",
"434 368 CURVE SMOOTH",
"434 371 OFFCURVE",
"435 374 OFFCURVE",
"436 377 CURVE",
"484 470 OFFCURVE",
"536 575 OFFCURVE",
"608 650 CURVE",
"660 634 OFFCURVE",
"760 589 OFFCURVE",
"760 525 CURVE SMOOTH",
"760 435 OFFCURVE",
"526 357 OFFCURVE",
"452 357 CURVE SMOOTH"
);
},
{
closed = 1;
nodes = (
"257 196 OFFCURVE",
"268 214 OFFCURVE",
"270 219 CURVE SMOOTH",
"303 288 OFFCURVE",
"342 369 OFFCURVE",
"342 447 CURVE SMOOTH",
"342 474 OFFCURVE",
"337 518 OFFCURVE",
"301 518 CURVE SMOOTH",
"271 518 OFFCURVE",
"248 490 OFFCURVE",
"237 465 CURVE SMOOTH",
"236 463 OFFCURVE",
"235 461 OFFCURVE",
"235 459 CURVE SMOOTH",
"235 458 OFFCURVE",
"235 456 OFFCURVE",
"237 456 CURVE SMOOTH",
"244 456 OFFCURVE",
"244 471 OFFCURVE",
"259 471 CURVE SMOOTH",
"281 471 OFFCURVE",
"281 426 OFFCURVE",
"281 411 CURVE SMOOTH",
"281 349 OFFCURVE",
"269 283 OFFCURVE",
"254 223 CURVE SMOOTH",
"252 216 OFFCURVE",
"250 209 OFFCURVE",
"250 201 CURVE SMOOTH",
"250 200 OFFCURVE",
"250 196 OFFCURVE",
"252 196 CURVE SMOOTH"
);
}
);
width = 744;
}
);
note = B;
unicode = 0042;
},
{
glyphname = C;
lastChange = "2022-02-17 03:35:41 +0000";
layers = (
{
layerId = "9E0C627C-9F9A-47B5-8A8C-706F30D5AE4A";
paths = (
{
closed = 1;
nodes = (
"413 -22 OFFCURVE",
"618 36 OFFCURVE",
"703 143 CURVE SMOOTH",
"719 163 OFFCURVE",
"739 203 OFFCURVE",
"739 229 CURVE SMOOTH",
"739 234 OFFCURVE",
"737 243 OFFCURVE",
"731 243 CURVE SMOOTH",
"727 243 OFFCURVE",
"727 240 OFFCURVE",
"726 237 CURVE SMOOTH",
"720 217 OFFCURVE",
"682 171 OFFCURVE",
"668 155 CURVE SMOOTH",
"586 64 OFFCURVE",
"487 8 OFFCURVE",
"363 8 CURVE SMOOTH",
"315 8 OFFCURVE",
"267 16 OFFCURVE",
"221 31 CURVE SMOOTH",
"141 56 OFFCURVE",
"91 116 OFFCURVE",
"91 201 CURVE SMOOTH",
"91 262 OFFCURVE",
"116 320 OFFCURVE",
"148 371 CURVE",
"178 359 OFFCURVE",
"225 356 OFFCURVE",
"255 356 CURVE SMOOTH",
"269 356 OFFCURVE",
"299 357 OFFCURVE",
"299 367 CURVE SMOOTH",
"299 369 OFFCURVE",
"298 371 OFFCURVE",
"296 371 CURVE SMOOTH",
"291 371 OFFCURVE",
"286 370 OFFCURVE",
"281 370 CURVE SMOOTH",
"245 370 OFFCURVE",
"202 386 OFFCURVE",
"171 403 CURVE",
"240 500 OFFCURVE",
"337 598 OFFCURVE",
"448 647 CURVE",
"571 610 OFFCURVE",
"680 543 OFFCURVE",
"797 492 CURVE SMOOTH",
"799 491 OFFCURVE",
"801 491 OFFCURVE",
"804 491 CURVE SMOOTH",
"829 491 OFFCURVE",
"857 526 OFFCURVE",
"857 550 CURVE SMOOTH",
"857 554 OFFCURVE",
"856 558 OFFCURVE",
"855 562 CURVE SMOOTH",
"820 665 OFFCURVE",
"691 697 OFFCURVE",
"594 697 CURVE SMOOTH",
"563 697 OFFCURVE",
"531 694 OFFCURVE",
"501 686 CURVE",
"416 713 OFFCURVE",
"322 740 OFFCURVE",
"232 740 CURVE SMOOTH",
"122 740 OFFCURVE",
"-5 694 OFFCURVE",
"-5 564 CURVE SMOOTH",
"-5 494 OFFCURVE",
"39 436 OFFCURVE",
"96 399 CURVE",
"56 336 OFFCURVE",
"26 264 OFFCURVE",
"26 188 CURVE SMOOTH",
"26 31 OFFCURVE",
"142 -22 OFFCURVE",
"281 -22 CURVE SMOOTH"
);
},
{
closed = 1;
nodes = (
"109 442 OFFCURVE",
"97 450 OFFCURVE",
"86 459 CURVE SMOOTH",
"48 489 OFFCURVE",
"21 535 OFFCURVE",
"21 584 CURVE SMOOTH",
"21 681 OFFCURVE",
"125 690 OFFCURVE",
"199 690 CURVE SMOOTH",
"272 690 OFFCURVE",
"345 677 OFFCURVE",
"416 657 CURVE",
"299 606 OFFCURVE",
"200 534 OFFCURVE",
"121 433 CURVE"
);
},
{
closed = 1;
nodes = (
"789 566 OFFCURVE",
"695 612 OFFCURVE",
"680 618 CURVE SMOOTH",
"636 638 OFFCURVE",
"591 656 OFFCURVE",
"545 672 CURVE",
"553 673 OFFCURVE",
"561 673 OFFCURVE",
"568 673 CURVE SMOOTH",
"621 673 OFFCURVE",
"706 657 OFFCURVE",
"751 627 CURVE SMOOTH",
"763 619 OFFCURVE",
"801 586 OFFCURVE",
"801 570 CURVE SMOOTH",
"801 567 OFFCURVE",
"799 566 OFFCURVE",
"797 566 CURVE SMOOTH"
);
},
{
closed = 1;
nodes = (
"349 279 OFFCURVE",
"352 279 OFFCURVE",
"354 280 CURVE SMOOTH",
"374 287 OFFCURVE",
"391 295 OFFCURVE",
"412 298 CURVE SMOOTH",
"425 300 OFFCURVE",
"488 308 OFFCURVE",
"496 314 CURVE SMOOTH",
"499 316 OFFCURVE",
"504 319 OFFCURVE",
"504 323 CURVE SMOOTH",
"504 328 OFFCURVE",
"477 339 OFFCURVE",
"471 344 CURVE SMOOTH",
"461 354 OFFCURVE",
"458 364 OFFCURVE",
"452 375 CURVE SMOOTH",
"450 379 OFFCURVE",
"449 381 OFFCURVE",
"445 381 CURVE SMOOTH",
"424 381 OFFCURVE",
"341 306 OFFCURVE",
"341 285 CURVE SMOOTH",
"341 281 OFFCURVE",
"343 279 OFFCURVE",
"347 279 CURVE SMOOTH"
);
}
);
width = 688;
}
);
note = C;
unicode = 0043;
},
{
glyphname = D;
lastChange = "2022-02-17 03:35:41 +0000";
layers = (
{
layerId = "9E0C627C-9F9A-47B5-8A8C-706F30D5AE4A";
paths = (
{
closed = 1;
nodes = (
"182 -59 OFFCURVE",
"192 -54 OFFCURVE",
"201 -50 CURVE SMOOTH",
"218 -43 OFFCURVE",
"269 -40 OFFCURVE",
"278 -35 CURVE SMOOTH",
"285 -31 OFFCURVE",
"291 -19 OFFCURVE",
"295 -12 CURVE",
"359 -26 OFFCURVE",
"424 -33 OFFCURVE",
"490 -33 CURVE SMOOTH",
"503 -33 OFFCURVE",
"517 -33 OFFCURVE",
"530 -32 CURVE SMOOTH",
"589 -29 OFFCURVE",
"646 -19 OFFCURVE",
"702 0 CURVE SMOOTH",
"857 53 OFFCURVE",
"1022 179 OFFCURVE",
"1035 355 CURVE SMOOTH",
"1035 367 LINE SMOOTH",
"1035 544 OFFCURVE",
"853 643 OFFCURVE",
"706 689 CURVE",
"743 717 OFFCURVE",
"786 736 OFFCURVE",
"834 736 CURVE SMOOTH",
"869 736 OFFCURVE",
"935 725 OFFCURVE",
"935 679 CURVE SMOOTH",
"935 671 OFFCURVE",
"931 664 OFFCURVE",
"931 657 CURVE SMOOTH",
"931 655 OFFCURVE",
"932 653 OFFCURVE",
"935 653 CURVE SMOOTH",
"948 653 OFFCURVE",
"959 698 OFFCURVE",
"959 710 CURVE SMOOTH",
"959 753 OFFCURVE",
"913 765 OFFCURVE",
"878 765 CURVE SMOOTH",
"806 765 OFFCURVE",
"738 737 OFFCURVE",
"680 695 CURVE",
"629 706 OFFCURVE",
"577 710 OFFCURVE",
"525 710 CURVE SMOOTH",
"355 710 OFFCURVE",
"118 658 OFFCURVE",
"44 485 CURVE SMOOTH",
"29 451 OFFCURVE",
"22 417 OFFCURVE",
"21 380 CURVE SMOOTH",
"21 375 LINE SMOOTH",
"20 321 OFFCURVE",
"50 281 OFFCURVE",
"99 259 CURVE SMOOTH",
"112 253 OFFCURVE",
"128 249 OFFCURVE",
"142 249 CURVE SMOOTH",
"145 249 OFFCURVE",
"156 250 OFFCURVE",
"156 254 CURVE SMOOTH",
"156 258 OFFCURVE",
"150 258 OFFCURVE",
"148 258 CURVE SMOOTH",
"82 258 OFFCURVE",
"74 346 OFFCURVE",
"74 395 CURVE SMOOTH",
"74 607 OFFCURVE",
"287 680 OFFCURVE",
"465 680 CURVE SMOOTH",
"522 680 OFFCURVE",
"579 673 OFFCURVE",
"634 658 CURVE",
"560 593 OFFCURVE",
"498 507 OFFCURVE",
"451 420 CURVE SMOOTH",
"381 291 OFFCURVE",
"320 157 OFFCURVE",
"238 34 CURVE",
"193 59 OFFCURVE",
"168 101 OFFCURVE",
"168 153 CURVE SMOOTH",
"168 204 OFFCURVE",
"196 217 OFFCURVE",
"196 222 CURVE SMOOTH",
"196 224 OFFCURVE",
"193 225 OFFCURVE",
"191 225 CURVE SMOOTH",
"188 225 OFFCURVE",
"185 224 OFFCURVE",
"182 222 CURVE SMOOTH",
"150 200 OFFCURVE",
"127 160 OFFCURVE",
"127 121 CURVE SMOOTH",
"127 64 OFFCURVE",
"170 26 OFFCURVE",
"219 6 CURVE",
"204 -16 OFFCURVE",
"186 -35 OFFCURVE",
"169 -56 CURVE",
"169 -57 OFFCURVE",
"168 -57 OFFCURVE",
"168 -58 CURVE SMOOTH",
"168 -59 OFFCURVE",
"171 -59 OFFCURVE",
"172 -59 CURVE SMOOTH"
);
},
{
closed = 1;
nodes = (
"418 -13 OFFCURVE",
"361 -5 OFFCURVE",
"305 10 CURVE",
"387 187 OFFCURVE",
"532 516 OFFCURVE",
"661 650 CURVE",
"803 605 OFFCURVE",
"956 519 OFFCURVE",
"956 350 CURVE SMOOTH",
"956 340 OFFCURVE",
"955 331 OFFCURVE",
"954 321 CURVE SMOOTH",
"937 172 OFFCURVE",
"818 64 OFFCURVE",
"682 17 CURVE SMOOTH",
"633 1 OFFCURVE",
"583 -8 OFFCURVE",
"531 -11 CURVE SMOOTH",
"513 -12 OFFCURVE",
"495 -13 OFFCURVE",
"477 -13 CURVE SMOOTH"
);
},
{
closed = 1;
nodes = (
"310 196 OFFCURVE",
"321 214 OFFCURVE",
"323 219 CURVE SMOOTH",
"356 288 OFFCURVE",
"395 369 OFFCURVE",
"395 447 CURVE SMOOTH",
"395 474 OFFCURVE",
"390 518 OFFCURVE",
"354 518 CURVE SMOOTH",
"324 518 OFFCURVE",
"301 490 OFFCURVE",
"290 465 CURVE SMOOTH",
"289 463 OFFCURVE",
"288 461 OFFCURVE",
"288 459 CURVE SMOOTH",
"288 458 OFFCURVE",
"288 456 OFFCURVE",
"290 456 CURVE SMOOTH",
"297 456 OFFCURVE",
"297 471 OFFCURVE",
"312 471 CURVE SMOOTH",
"334 471 OFFCURVE",
"334 426 OFFCURVE",
"334 411 CURVE SMOOTH",
"334 349 OFFCURVE",
"322 283 OFFCURVE",
"307 223 CURVE SMOOTH",
"305 216 OFFCURVE",
"303 209 OFFCURVE",
"303 201 CURVE SMOOTH",
"303 200 OFFCURVE",
"303 196 OFFCURVE",
"305 196 CURVE SMOOTH"
);
}
);
width = 986;
}
);
note = D;
unicode = 0044;
},
{
color = 11;
glyphname = Dcroat;
lastChange = "2022-02-17 03:35:41 +0000";
layers = (
{
layerId = "9E0C627C-9F9A-47B5-8A8C-706F30D5AE4A";
paths = (
{
closed = 1;
nodes = (
"182 -59 OFFCURVE",
"192 -54 OFFCURVE",
"201 -50 CURVE SMOOTH",
"218 -43 OFFCURVE",
"269 -40 OFFCURVE",
"278 -35 CURVE SMOOTH",
"285 -31 OFFCURVE",
"291 -19 OFFCURVE",
"295 -12 CURVE",
"359 -26 OFFCURVE",
"424 -33 OFFCURVE",
"490 -33 CURVE SMOOTH",
"503 -33 OFFCURVE",
"517 -33 OFFCURVE",
"530 -32 CURVE SMOOTH",
"589 -29 OFFCURVE",
"646 -19 OFFCURVE",
"702 0 CURVE SMOOTH",
"857 53 OFFCURVE",
"1022 179 OFFCURVE",
"1035 355 CURVE SMOOTH",
"1035 367 LINE SMOOTH",
"1035 544 OFFCURVE",
"853 643 OFFCURVE",
"706 689 CURVE",
"743 717 OFFCURVE",
"786 736 OFFCURVE",
"834 736 CURVE SMOOTH",
"869 736 OFFCURVE",
"935 725 OFFCURVE",
"935 679 CURVE SMOOTH",
"935 671 OFFCURVE",
"931 664 OFFCURVE",
"931 657 CURVE SMOOTH",
"931 655 OFFCURVE",
"932 653 OFFCURVE",
"935 653 CURVE SMOOTH",
"948 653 OFFCURVE",
"959 698 OFFCURVE",
"959 710 CURVE SMOOTH",
"959 753 OFFCURVE",
"913 765 OFFCURVE",
"878 765 CURVE SMOOTH",
"806 765 OFFCURVE",
"738 737 OFFCURVE",
"680 695 CURVE",
"629 706 OFFCURVE",
"577 710 OFFCURVE",
"525 710 CURVE SMOOTH",
"355 710 OFFCURVE",
"118 658 OFFCURVE",
"44 485 CURVE SMOOTH",
"29 451 OFFCURVE",
"21 417 OFFCURVE",
"21 380 CURVE SMOOTH",
"21 375 LINE SMOOTH",
"21 321 OFFCURVE",
"50 281 OFFCURVE",
"99 259 CURVE SMOOTH",
"112 253 OFFCURVE",
"128 249 OFFCURVE",
"142 249 CURVE SMOOTH",
"145 249 OFFCURVE",
"156 250 OFFCURVE",
"156 254 CURVE SMOOTH",
"156 258 OFFCURVE",
"150 258 OFFCURVE",
"148 258 CURVE SMOOTH",
"82 258 OFFCURVE",
"74 346 OFFCURVE",
"74 395 CURVE SMOOTH",
"74 607 OFFCURVE",
"287 680 OFFCURVE",
"465 680 CURVE SMOOTH",
"522 680 OFFCURVE",
"579 673 OFFCURVE",
"634 658 CURVE",
"560 593 OFFCURVE",
"498 507 OFFCURVE",
"451 420 CURVE SMOOTH",
"418 360 OFFCURVE",
"387 298 OFFCURVE",
"356 237 CURVE",
"271 237 LINE SMOOTH",
"253 237 OFFCURVE",
"239 206 OFFCURVE",
"239 191 CURVE SMOOTH",
"239 188 OFFCURVE",
"240 185 OFFCURVE",
"242 183 CURVE",
"257 183 OFFCURVE",
"292 185 OFFCURVE",
"329 188 CURVE",
"301 136 OFFCURVE",
"271 84 OFFCURVE",
"238 34 CURVE",
"193 59 OFFCURVE",
"168 101 OFFCURVE",
"168 153 CURVE SMOOTH",
"168 204 OFFCURVE",
"196 217 OFFCURVE",
"196 222 CURVE SMOOTH",
"196 224 OFFCURVE",
"193 225 OFFCURVE",
"191 225 CURVE SMOOTH",
"188 225 OFFCURVE",
"185 224 OFFCURVE",
"182 222 CURVE SMOOTH",
"150 200 OFFCURVE",
"127 160 OFFCURVE",
"127 121 CURVE SMOOTH",
"127 64 OFFCURVE",
"170 26 OFFCURVE",
"219 6 CURVE",
"204 -16 OFFCURVE",
"186 -35 OFFCURVE",
"169 -56 CURVE",
"169 -57 OFFCURVE",
"168 -57 OFFCURVE",
"168 -58 CURVE SMOOTH",
"168 -59 OFFCURVE",
"171 -59 OFFCURVE",
"172 -59 CURVE SMOOTH"
);
},
{
closed = 1;
nodes = (
"333 275 OFFCURVE",
"344 293 OFFCURVE",
"346 298 CURVE SMOOTH",
"379 367 OFFCURVE",
"418 448 OFFCURVE",
"418 526 CURVE SMOOTH",
"418 553 OFFCURVE",
"413 597 OFFCURVE",
"377 597 CURVE SMOOTH",
"347 597 OFFCURVE",
"324 569 OFFCURVE",
"313 544 CURVE SMOOTH",
"312 542 OFFCURVE",
"311 540 OFFCURVE",
"311 538 CURVE SMOOTH",
"311 537 OFFCURVE",
"311 535 OFFCURVE",
"313 535 CURVE SMOOTH",
"320 535 OFFCURVE",
"320 550 OFFCURVE",
"335 550 CURVE SMOOTH",
"357 550 OFFCURVE",
"357 505 OFFCURVE",
"357 490 CURVE SMOOTH",
"357 428 OFFCURVE",
"345 362 OFFCURVE",
"330 302 CURVE SMOOTH",
"328 295 OFFCURVE",
"326 288 OFFCURVE",
"326 280 CURVE SMOOTH",
"326 279 OFFCURVE",
"326 275 OFFCURVE",
"328 275 CURVE SMOOTH"
);
},
{
closed = 1;
nodes = (
"418 -13 OFFCURVE",
"361 -5 OFFCURVE",
"305 10 CURVE",
"329 61 OFFCURVE",
"358 125 OFFCURVE",
"390 193 CURVE",
"394 193 OFFCURVE",
"398 194 OFFCURVE",
"402 194 CURVE SMOOTH",
"430 197 OFFCURVE",
"475 200 OFFCURVE",
"510 208 CURVE SMOOTH",
"517 210 OFFCURVE",
"536 216 OFFCURVE",
"536 232 CURVE SMOOTH",
"536 235 OFFCURVE",
"535 238 OFFCURVE",
"532 238 CURVE SMOOTH",
"411 238 LINE",
"487 394 OFFCURVE",
"577 563 OFFCURVE",
"661 650 CURVE",
"803 605 OFFCURVE",
"956 519 OFFCURVE",
"956 350 CURVE SMOOTH",
"956 340 OFFCURVE",
"955 331 OFFCURVE",
"954 321 CURVE SMOOTH",
"937 172 OFFCURVE",
"818 64 OFFCURVE",
"682 17 CURVE SMOOTH",
"633 1 OFFCURVE",
"583 -8 OFFCURVE",
"531 -11 CURVE SMOOTH",
"513 -12 OFFCURVE",
"495 -13 OFFCURVE",
"477 -13 CURVE SMOOTH"
);
}
);
width = 986;
}
);
unicode = 0110;
},
{
glyphname = E;
lastChange = "2022-02-17 03:35:41 +0000";
layers = (
{
layerId = "9E0C627C-9F9A-47B5-8A8C-706F30D5AE4A";
paths = (
{
closed = 1;
nodes = (
"921 -103 OFFCURVE",
"933 -53 OFFCURVE",
"933 -36 CURVE SMOOTH",
"933 49 OFFCURVE",
"774 51 OFFCURVE",
"706 51 CURVE SMOOTH",
"569 51 OFFCURVE",
"435 28 OFFCURVE",
"299 19 CURVE",
"383 102 OFFCURVE",
"443 208 OFFCURVE",
"494 313 CURVE",
"521 310 OFFCURVE",
"549 309 OFFCURVE",
"576 309 CURVE SMOOTH",
"627 309 OFFCURVE",
"677 313 OFFCURVE",
"728 313 CURVE SMOOTH",
"743 313 OFFCURVE",
"788 313 OFFCURVE",
"788 290 CURVE SMOOTH",
"788 275 OFFCURVE",
"772 275 OFFCURVE",
"772 268 CURVE SMOOTH",
"772 267 OFFCURVE",
"774 266 OFFCURVE",
"775 266 CURVE SMOOTH",
"777 266 OFFCURVE",
"779 267 OFFCURVE",
"781 268 CURVE SMOOTH",
"805 279 OFFCURVE",
"836 301 OFFCURVE",
"836 330 CURVE SMOOTH",
"836 369 OFFCURVE",
"790 373 OFFCURVE",
"760 373 CURVE SMOOTH",
"667 373 OFFCURVE",
"588 320 OFFCURVE",
"507 322 CURVE SMOOTH",
"498 323 LINE",
"543 417 OFFCURVE",
"601 554 OFFCURVE",
"664 635 CURVE",
"737 616 OFFCURVE",
"807 590 OFFCURVE",
"879 569 CURVE SMOOTH",
"905 561 OFFCURVE",
"933 555 OFFCURVE",
"961 555 CURVE SMOOTH",
"1008 555 OFFCURVE",
"1023 569 OFFCURVE",
"1057 595 CURVE SMOOTH",
"1061 598 OFFCURVE",
"1065 601 OFFCURVE",
"1065 606 CURVE SMOOTH",
"1065 608 OFFCURVE",
"1064 609 OFFCURVE",
"1062 609 CURVE SMOOTH",
"1057 609 OFFCURVE",
"1046 601 OFFCURVE",
"1030 601 CURVE SMOOTH",
"986 601 OFFCURVE",
"923 620 OFFCURVE",
"881 632 CURVE SMOOTH",
"822 649 OFFCURVE",
"763 665 OFFCURVE",
"703 677 CURVE",
"748 717 OFFCURVE",
"800 742 OFFCURVE",
"861 742 CURVE SMOOTH",
"896 742 OFFCURVE",
"972 733 OFFCURVE",
"972 686 CURVE SMOOTH",
"972 677 OFFCURVE",
"968 670 OFFCURVE",
"968 662 CURVE SMOOTH",
"968 661 OFFCURVE",
"968 659 OFFCURVE",
"970 659 CURVE SMOOTH",
"980 659 OFFCURVE",
"991 701 OFFCURVE",
"991 710 CURVE SMOOTH",
"991 757 OFFCURVE",
"933 765 OFFCURVE",
"897 765 CURVE SMOOTH",
"815 765 OFFCURVE",
"741 732 OFFCURVE",
"678 682 CURVE",
"620 692 OFFCURVE",
"560 699 OFFCURVE",
"501 699 CURVE SMOOTH",
"436 699 OFFCURVE",
"370 691 OFFCURVE",
"310 666 CURVE SMOOTH",
"187 614 OFFCURVE",
"48 526 OFFCURVE",
"48 375 CURVE SMOOTH",
"48 321 OFFCURVE",
"77 281 OFFCURVE",
"126 259 CURVE SMOOTH",
"139 253 OFFCURVE",
"155 249 OFFCURVE",
"169 249 CURVE SMOOTH",
"172 249 OFFCURVE",
"182 250 OFFCURVE",
"182 254 CURVE SMOOTH",
"182 258 OFFCURVE",
"177 258 OFFCURVE",
"175 258 CURVE SMOOTH",
"108 258 OFFCURVE",
"100 346 OFFCURVE",
"100 395 CURVE SMOOTH",
"100 474 OFFCURVE",
"159 546 OFFCURVE",
"218 593 CURVE SMOOTH",
"285 647 OFFCURVE",
"353 664 OFFCURVE",
"438 664 CURVE SMOOTH",
"503 664 OFFCURVE",
"570 656 OFFCURVE",
"634 642 CURVE",
"482 491 OFFCURVE",
"391 248 OFFCURVE",
"266 69 CURVE SMOOTH",
"253 50 OFFCURVE",
"239 33 OFFCURVE",
"224 16 CURVE",
"220 16 LINE SMOOTH",
"169 16 OFFCURVE",
"72 20 OFFCURVE",
"36 61 CURVE SMOOTH",
"29 68 OFFCURVE",
"26 75 OFFCURVE",
"23 84 CURVE SMOOTH",
"22 87 OFFCURVE",
"20 92 OFFCURVE",
"16 92 CURVE SMOOTH",
"10 92 OFFCURVE",
"8 85 OFFCURVE",
"8 80 CURVE SMOOTH",
"8 69 OFFCURVE",
"20 45 OFFCURVE",
"27 35 CURVE",
"4 34 OFFCURVE",
"-11 -5 OFFCURVE",
"-11 -25 CURVE SMOOTH",
"-11 -71 OFFCURVE",
"37 -90 OFFCURVE",
"76 -90 CURVE SMOOTH",
"136 -90 OFFCURVE",
"195 -64 OFFCURVE",
"243 -29 CURVE",
"298 -28 OFFCURVE",
"354 -21 OFFCURVE",
"409 -18 CURVE SMOOTH",
"482 -13 OFFCURVE",
"554 -9 OFFCURVE",
"627 -9 CURVE SMOOTH",
"675 -9 OFFCURVE",
"722 -11 OFFCURVE",
"769 -15 CURVE SMOOTH",
"801 -18 OFFCURVE",
"906 -18 OFFCURVE",
"906 -66 CURVE SMOOTH",
"906 -80 OFFCURVE",
"896 -97 OFFCURVE",
"896 -100 CURVE SMOOTH",
"896 -102 OFFCURVE",
"898 -103 OFFCURVE",
"900 -103 CURVE SMOOTH"
);
},
{
closed = 1;
nodes = (
"51 -68 OFFCURVE",
"17 -53 OFFCURVE",
"17 -20 CURVE SMOOTH",
"17 -1 OFFCURVE",
"27 10 OFFCURVE",
"35 26 CURVE",
"69 -12 OFFCURVE",
"128 -23 OFFCURVE",
"177 -27 CURVE",
"150 -49 OFFCURVE",
"116 -68 OFFCURVE",
"80 -68 CURVE SMOOTH"
);
},
{
closed = 1;
nodes = (
"310 196 OFFCURVE",
"321 214 OFFCURVE",
"323 219 CURVE SMOOTH",
"356 288 OFFCURVE",
"395 369 OFFCURVE",
"395 447 CURVE SMOOTH",
"395 474 OFFCURVE",
"390 518 OFFCURVE",
"354 518 CURVE SMOOTH",
"324 518 OFFCURVE",
"301 490 OFFCURVE",
"290 465 CURVE SMOOTH",
"289 463 OFFCURVE",
"288 461 OFFCURVE",
"288 459 CURVE SMOOTH",
"288 458 OFFCURVE",
"288 456 OFFCURVE",
"290 456 CURVE SMOOTH",
"297 456 OFFCURVE",
"297 471 OFFCURVE",
"312 471 CURVE SMOOTH",
"334 471 OFFCURVE",
"334 426 OFFCURVE",
"334 411 CURVE SMOOTH",
"334 349 OFFCURVE",
"322 283 OFFCURVE",
"307 223 CURVE SMOOTH",
"305 216 OFFCURVE",
"303 209 OFFCURVE",
"303 201 CURVE SMOOTH",
"303 200 OFFCURVE",
"303 196 OFFCURVE",
"305 196 CURVE SMOOTH"
);
}
);
width = 956;
}
);
note = E;
unicode = 0045;
},
{
glyphname = F;
lastChange = "2022-02-17 03:35:41 +0000";
layers = (
{
layerId = "9E0C627C-9F9A-47B5-8A8C-706F30D5AE4A";
paths = (
{
closed = 1;
nodes = (
"320 -71 OFFCURVE",
"444 142 OFFCURVE",
"526 313 CURVE",
"554 310 OFFCURVE",
"581 309 OFFCURVE",
"608 309 CURVE SMOOTH",
"659 309 OFFCURVE",
"710 313 OFFCURVE",
"760 313 CURVE SMOOTH",
"775 313 OFFCURVE",
"821 313 OFFCURVE",
"821 290 CURVE SMOOTH",
"821 275 OFFCURVE",
"805 275 OFFCURVE",
"805 268 CURVE SMOOTH",
"805 267 OFFCURVE",
"806 266 OFFCURVE",
"808 266 CURVE SMOOTH",
"810 266 OFFCURVE",
"812 267 OFFCURVE",
"814 268 CURVE SMOOTH",
"838 279 OFFCURVE",
"869 301 OFFCURVE",
"869 330 CURVE SMOOTH",
"869 369 OFFCURVE",
"823 373 OFFCURVE",
"793 373 CURVE SMOOTH",
"700 373 OFFCURVE",
"621 320 OFFCURVE",
"540 322 CURVE SMOOTH",
"531 323 LINE",
"576 417 OFFCURVE",
"633 554 OFFCURVE",
"696 635 CURVE",
"769 616 OFFCURVE",
"840 590 OFFCURVE",
"911 569 CURVE SMOOTH",
"938 561 OFFCURVE",
"966 555 OFFCURVE",
"993 555 CURVE SMOOTH",
"1040 555 OFFCURVE",
"1055 570 OFFCURVE",
"1090 595 CURVE",
"1093 598 OFFCURVE",
"1097 601 OFFCURVE",
"1097 606 CURVE SMOOTH",
"1097 608 OFFCURVE",
"1096 609 OFFCURVE",
"1095 609 CURVE SMOOTH",
"1090 609 OFFCURVE",
"1079 601 OFFCURVE",
"1063 601 CURVE SMOOTH",
"1022 601 OFFCURVE",
"953 620 OFFCURVE",
"913 632 CURVE SMOOTH",
"855 649 OFFCURVE",
"796 665 OFFCURVE",
"736 677 CURVE",
"781 717 OFFCURVE",
"833 742 OFFCURVE",
"894 742 CURVE SMOOTH",
"929 742 OFFCURVE",
"1005 734 OFFCURVE",
"1005 686 CURVE SMOOTH",
"1005 677 OFFCURVE",
"1000 670 OFFCURVE",
"1000 662 CURVE SMOOTH",
"1000 661 OFFCURVE",
"1001 659 OFFCURVE",
"1003 659 CURVE SMOOTH",
"1013 659 OFFCURVE",
"1023 701 OFFCURVE",
"1023 710 CURVE SMOOTH",
"1023 756 OFFCURVE",
"966 765 OFFCURVE",
"930 765 CURVE SMOOTH",
"849 765 OFFCURVE",
"776 730 OFFCURVE",
"714 681 CURVE",
"654 692 OFFCURVE",
"594 699 OFFCURVE",
"533 699 CURVE SMOOTH",
"469 699 OFFCURVE",
"402 691 OFFCURVE",
"343 666 CURVE SMOOTH",
"219 614 OFFCURVE",
"80 526 OFFCURVE",
"80 375 CURVE SMOOTH",
"80 321 OFFCURVE",
"109 281 OFFCURVE",
"158 259 CURVE SMOOTH",
"171 253 OFFCURVE",
"187 249 OFFCURVE",
"201 249 CURVE SMOOTH",
"205 249 OFFCURVE",
"215 250 OFFCURVE",
"215 254 CURVE SMOOTH",
"215 258 OFFCURVE",
"209 258 OFFCURVE",
"207 258 CURVE SMOOTH",
"141 258 OFFCURVE",
"133 346 OFFCURVE",
"133 395 CURVE SMOOTH",
"133 474 OFFCURVE",
"192 546 OFFCURVE",
"250 593 CURVE SMOOTH",
"318 647 OFFCURVE",
"386 664 OFFCURVE",
"470 664 CURVE SMOOTH",
"537 664 OFFCURVE",
"604 656 OFFCURVE",
"669 641 CURVE",
"604 578 OFFCURVE",
"552 501 OFFCURVE",
"511 420 CURVE SMOOTH",
"448 297 OFFCURVE",
"275 -20 OFFCURVE",
"135 -47 CURVE SMOOTH",
"128 -49 OFFCURVE",
"120 -49 OFFCURVE",
"113 -49 CURVE SMOOTH",
"49 -49 OFFCURVE",
"25 7 OFFCURVE",
"25 63 CURVE SMOOTH",
"25 66 OFFCURVE",
"25 74 OFFCURVE",
"21 74 CURVE SMOOTH",
"5 74 OFFCURVE",
"-8 11 OFFCURVE",
"-8 -3 CURVE SMOOTH",
"-8 -66 OFFCURVE",
"54 -71 OFFCURVE",
"103 -71 CURVE SMOOTH"
);
},
{
closed = 1;
nodes = (
"357 196 OFFCURVE",
"368 214 OFFCURVE",
"370 219 CURVE SMOOTH",
"403 288 OFFCURVE",
"441 369 OFFCURVE",
"441 447 CURVE SMOOTH",
"441 474 OFFCURVE",
"437 518 OFFCURVE",
"401 518 CURVE SMOOTH",
"371 518 OFFCURVE",
"348 490 OFFCURVE",
"336 465 CURVE SMOOTH",
"335 463 OFFCURVE",
"334 461 OFFCURVE",
"334 459 CURVE SMOOTH",
"334 458 OFFCURVE",
"335 456 OFFCURVE",
"337 456 CURVE SMOOTH",
"343 456 OFFCURVE",
"344 471 OFFCURVE",
"358 471 CURVE SMOOTH",
"381 471 OFFCURVE",
"381 426 OFFCURVE",
"381 411 CURVE SMOOTH",
"381 349 OFFCURVE",
"369 283 OFFCURVE",
"353 223 CURVE",
"352 216 OFFCURVE",
"349 209 OFFCURVE",
"349 201 CURVE SMOOTH",
"349 200 OFFCURVE",
"349 196 OFFCURVE",
"352 196 CURVE SMOOTH"
);
}
);
width = 719;
}
);
note = F;
unicode = 0046;
},
{
glyphname = G;
lastChange = "2022-02-17 03:35:41 +0000";
layers = (
{
layerId = "9E0C627C-9F9A-47B5-8A8C-706F30D5AE4A";
paths = (
{
closed = 1;
nodes = (
"449 -285 OFFCURVE",
"646 23 OFFCURVE",
"801 269 CURVE",
"848 269 OFFCURVE",
"872 287 OFFCURVE",
"905 317 CURVE SMOOTH",
"908 320 OFFCURVE",
"911 324 OFFCURVE",
"911 328 CURVE SMOOTH",
"911 330 OFFCURVE",
"910 332 OFFCURVE",
"908 332 CURVE SMOOTH",
"907 332 OFFCURVE",
"906 331 OFFCURVE",
"905 331 CURVE",
"892 322 OFFCURVE",
"885 320 OFFCURVE",
"869 319 CURVE SMOOTH",
"859 318 OFFCURVE",
"849 318 OFFCURVE",
"840 318 CURVE SMOOTH",
"779 318 OFFCURVE",
"719 330 OFFCURVE",
"658 330 CURVE SMOOTH",
"475 330 OFFCURVE",
"230 244 OFFCURVE",
"173 52 CURVE",
"114 83 OFFCURVE",
"80 138 OFFCURVE",
"80 206 CURVE SMOOTH",
"80 262 OFFCURVE",
"102 319 OFFCURVE",
"129 368 CURVE SMOOTH",
"217 525 OFFCURVE",
"413 680 OFFCURVE",
"600 680 CURVE SMOOTH",
"681 680 OFFCURVE",
"786 651 OFFCURVE",
"786 553 CURVE SMOOTH",
"786 522 OFFCURVE",
"776 493 OFFCURVE",
"764 465 CURVE SMOOTH",
"763 462 OFFCURVE",
"762 459 OFFCURVE",
"762 455 CURVE SMOOTH",
"762 451 OFFCURVE",
"764 446 OFFCURVE",
"768 446 CURVE SMOOTH",
"773 446 OFFCURVE",
"776 450 OFFCURVE",
"778 453 CURVE SMOOTH",
"797 478 OFFCURVE",
"814 503 OFFCURVE",
"834 527 CURVE SMOOTH",
"866 564 OFFCURVE",
"901 595 OFFCURVE",
"937 627 CURVE SMOOTH",
"938 628 OFFCURVE",
"939 630 OFFCURVE",
"939 631 CURVE SMOOTH",
"939 637 OFFCURVE",
"925 639 OFFCURVE",
"921 639 CURVE SMOOTH",
"902 639 OFFCURVE",
"871 590 OFFCURVE",
"852 590 CURVE SMOOTH",
"842 590 OFFCURVE",
"835 597 OFFCURVE",
"829 604 CURVE SMOOTH",
"806 629 OFFCURVE",
"782 651 OFFCURVE",
"752 668 CURVE SMOOTH",
"707 694 OFFCURVE",
"650 703 OFFCURVE",
"599 703 CURVE SMOOTH",
"414 703 OFFCURVE",
"215 584 OFFCURVE",
"103 441 CURVE SMOOTH",
"48 371 OFFCURVE",
"1 280 OFFCURVE",
"1 189 CURVE SMOOTH",
"1 85 OFFCURVE",
"62 12 OFFCURVE",
"161 -13 CURVE",
"156 -89 OFFCURVE",
"186 -159 OFFCURVE",
"266 -175 CURVE",
"269 -175 LINE SMOOTH",
"272 -175 OFFCURVE",
"275 -173 OFFCURVE",
"275 -170 CURVE SMOOTH",
"275 -166 OFFCURVE",
"272 -164 OFFCURVE",
"269 -162 CURVE SMOOTH",
"222 -131 OFFCURVE",
"206 -89 OFFCURVE",
"207 -34 CURVE SMOOTH",
"207 -22 LINE",
"222 -24 OFFCURVE",
"237 -24 OFFCURVE",
"252 -24 CURVE SMOOTH",
"375 -24 OFFCURVE",
"518 27 OFFCURVE",
"618 99 CURVE",
"536 -18 OFFCURVE",
"407 -181 OFFCURVE",
"272 -234 CURVE SMOOTH",
"238 -248 OFFCURVE",
"198 -254 OFFCURVE",
"161 -254 CURVE SMOOTH",
"69 -254 OFFCURVE",
"-24 -216 OFFCURVE",
"-39 -115 CURVE",
"-39 -107 LINE SMOOTH",
"-39 -78 OFFCURVE",
"-18 -63 OFFCURVE",
"-18 -57 CURVE SMOOTH",
"-18 -56 OFFCURVE",
"-19 -55 OFFCURVE",
"-20 -55 CURVE SMOOTH",
"-23 -55 OFFCURVE",
"-26 -57 OFFCURVE",
"-27 -59 CURVE",
"-53 -80 OFFCURVE",
"-66 -126 OFFCURVE",
"-66 -159 CURVE SMOOTH",
"-66 -256 OFFCURVE",
"40 -285 OFFCURVE",
"120 -285 CURVE SMOOTH"
);
},
{
closed = 1;
nodes = (
"276 23 OFFCURVE",
"245 26 OFFCURVE",
"215 35 CURVE",
"228 88 OFFCURVE",
"254 142 OFFCURVE",
"290 183 CURVE SMOOTH",
"366 268 OFFCURVE",
"475 281 OFFCURVE",
"584 281 CURVE SMOOTH",
"632 281 OFFCURVE",
"682 279 OFFCURVE",
"730 276 CURVE",
"714 247 OFFCURVE",
"697 219 OFFCURVE",
"679 191 CURVE SMOOTH",
"672 180 OFFCURVE",
"665 167 OFFCURVE",
"657 158 CURVE SMOOTH",
"647 145 OFFCURVE",
"627 131 OFFCURVE",
"613 121 CURVE SMOOTH",
"529 61 OFFCURVE",
"411 23 OFFCURVE",
"307 23 CURVE SMOOTH"
);
},
{
closed = 1;
nodes = (
"580 337 OFFCURVE",
"595 337 OFFCURVE",
"597 341 CURVE",
"598 342 OFFCURVE",
"595 343 OFFCURVE",
"595 344 CURVE",
"590 347 OFFCURVE",
"584 348 OFFCURVE",
"579 350 CURVE SMOOTH",
"536 362 OFFCURVE",
"498 374 OFFCURVE",
"460 397 CURVE SMOOTH",
"450 403 OFFCURVE",
"422 419 OFFCURVE",
"431 433 CURVE SMOOTH",
"436 443 OFFCURVE",
"439 443 OFFCURVE",
"441 447 CURVE",
"442 448 OFFCURVE",
"441 449 OFFCURVE",
"441 449 CURVE",
"439 450 OFFCURVE",
"437 450 OFFCURVE",
"436 450 CURVE SMOOTH",
"416 452 OFFCURVE",
"375 443 OFFCURVE",
"364 425 CURVE SMOOTH",
"361 420 OFFCURVE",
"360 416 OFFCURVE",
"360 412 CURVE SMOOTH",
"360 395 OFFCURVE",
"379 381 OFFCURVE",
"393 373 CURVE SMOOTH",
"441 344 OFFCURVE",
"521 343 OFFCURVE",
"576 338 CURVE"
);
}
);
width = 773;
}
);
note = G;
unicode = 0047;
},
{
glyphname = H;
lastChange = "2022-02-17 03:35:41 +0000";
layers = (
{
layerId = "9E0C627C-9F9A-47B5-8A8C-706F30D5AE4A";
paths = (
{
closed = 1;
nodes = (
"426 -46 OFFCURVE",
"608 139 OFFCURVE",
"734 303 CURVE",
"845 329 OFFCURVE",
"962 335 OFFCURVE",
"1075 341 CURVE",
"1041 279 OFFCURVE",
"1009 216 OFFCURVE",
"977 154 CURVE SMOOTH",
"950 104 OFFCURVE",
"924 53 OFFCURVE",
"889 9 CURVE SMOOTH",
"886 5 OFFCURVE",
"885 2 OFFCURVE",
"885 -2 CURVE SMOOTH",
"885 -23 OFFCURVE",
"907 -41 OFFCURVE",
"926 -41 CURVE SMOOTH",
"960 -41 OFFCURVE",
"1009 29 OFFCURVE",
"1032 53 CURVE SMOOTH",
"1087 110 OFFCURVE",
"1162 156 OFFCURVE",
"1231 194 CURVE SMOOTH",
"1233 195 OFFCURVE",
"1234 197 OFFCURVE",
"1234 199 CURVE SMOOTH",
"1234 203 OFFCURVE",
"1231 206 OFFCURVE",
"1228 206 CURVE SMOOTH",
"1214 206 OFFCURVE",
"1032 96 OFFCURVE",
"1008 81 CURVE",
"1062 163 OFFCURVE",
"1102 255 OFFCURVE",
"1144 344 CURVE",
"1154 344 OFFCURVE",
"1204 340 OFFCURVE",
"1204 355 CURVE SMOOTH",
"1204 364 OFFCURVE",
"1189 366 OFFCURVE",
"1175 366 CURVE SMOOTH",
"1166 366 OFFCURVE",
"1158 365 OFFCURVE",
"1154 365 CURVE",
"1215 495 OFFCURVE",
"1305 694 OFFCURVE",
"1460 729 CURVE SMOOTH",
"1478 733 OFFCURVE",
"1498 734 OFFCURVE",
"1517 734 CURVE SMOOTH",
"1549 734 OFFCURVE",
"1618 729 OFFCURVE",
"1618 685 CURVE SMOOTH",
"1618 677 OFFCURVE",
"1614 670 OFFCURVE",
"1614 662 CURVE SMOOTH",
"1614 661 OFFCURVE",
"1614 659 OFFCURVE",
"1616 659 CURVE SMOOTH",
"1626 659 OFFCURVE",
"1636 701 OFFCURVE",
"1636 710 CURVE SMOOTH",
"1636 757 OFFCURVE",
"1578 765 OFFCURVE",
"1543 765 CURVE SMOOTH",
"1320 765 OFFCURVE",
"1183 537 OFFCURVE",
"1088 365 CURVE",
"779 365 LINE",
"843 454 OFFCURVE",
"898 548 OFFCURVE",
"956 640 CURVE SMOOTH",
"975 670 OFFCURVE",
"996 695 OFFCURVE",
"1020 721 CURVE SMOOTH",
"1021 722 OFFCURVE",
"1022 724 OFFCURVE",
"1022 726 CURVE SMOOTH",
"1022 729 OFFCURVE",
"1020 732 OFFCURVE",
"1016 732 CURVE SMOOTH",
"1015 732 OFFCURVE",
"1013 731 OFFCURVE",
"1012 730 CURVE SMOOTH",
"1000 722 OFFCURVE",
"997 722 OFFCURVE",
"982 720 CURVE SMOOTH",
"975 719 OFFCURVE",
"967 719 OFFCURVE",
"960 719 CURVE SMOOTH",
"935 719 OFFCURVE",
"911 721 OFFCURVE",
"886 722 CURVE SMOOTH",
"859 723 OFFCURVE",
"832 723 OFFCURVE",
"805 723 CURVE SMOOTH",
"661 723 OFFCURVE",
"552 704 OFFCURVE",
"444 603 CURVE SMOOTH",
"400 562 OFFCURVE",
"359 496 OFFCURVE",
"359 434 CURVE SMOOTH",
"359 366 OFFCURVE",
"412 318 OFFCURVE",
"476 306 CURVE",
"478 305 LINE",
"480 305 OFFCURVE",
"483 307 OFFCURVE",
"483 310 CURVE SMOOTH",
"483 313 OFFCURVE",
"480 315 OFFCURVE",
"478 316 CURVE SMOOTH",
"466 324 OFFCURVE",
"455 332 OFFCURVE",
"447 344 CURVE SMOOTH",
"423 377 OFFCURVE",
"408 417 OFFCURVE",
"408 458 CURVE SMOOTH",
"408 489 OFFCURVE",
"416 520 OFFCURVE",
"432 547 CURVE SMOOTH",
"484 634 OFFCURVE",
"593 664 OFFCURVE",
"688 664 CURVE SMOOTH",
"756 664 OFFCURVE",
"825 662 OFFCURVE",
"893 661 CURVE",
"787 471 OFFCURVE",
"553 89 OFFCURVE",
"355 5 CURVE SMOOTH",
"322 -9 OFFCURVE",
"279 -15 OFFCURVE",
"244 -15 CURVE SMOOTH",
"152 -15 OFFCURVE",
"59 23 OFFCURVE",
"44 124 CURVE",
"44 132 LINE SMOOTH",
"44 161 OFFCURVE",
"65 176 OFFCURVE",
"65 182 CURVE SMOOTH",
"65 183 OFFCURVE",
"64 184 OFFCURVE",
"63 184 CURVE SMOOTH",
"60 184 OFFCURVE",
"57 182 OFFCURVE",
"56 181 CURVE SMOOTH",
"30 159 OFFCURVE",
"17 113 OFFCURVE",
"17 80 CURVE SMOOTH",
"17 -17 OFFCURVE",
"123 -46 OFFCURVE",
"203 -46 CURVE SMOOTH"
);
},
{
closed = 1;
nodes = (
"556 196 OFFCURVE",
"567 214 OFFCURVE",
"569 219 CURVE SMOOTH",
"602 288 OFFCURVE",
"640 369 OFFCURVE",
"640 447 CURVE SMOOTH",
"640 474 OFFCURVE",
"636 518 OFFCURVE",
"600 518 CURVE SMOOTH",
"570 518 OFFCURVE",
"547 490 OFFCURVE",
"535 465 CURVE SMOOTH",
"534 463 OFFCURVE",
"533 461 OFFCURVE",
"533 459 CURVE SMOOTH",
"533 458 OFFCURVE",
"534 456 OFFCURVE",
"536 456 CURVE SMOOTH",
"542 456 OFFCURVE",
"543 471 OFFCURVE",
"557 471 CURVE SMOOTH",
"580 471 OFFCURVE",
"580 426 OFFCURVE",
"580 411 CURVE SMOOTH",
"580 349 OFFCURVE",
"568 283 OFFCURVE",
"552 223 CURVE",
"551 216 OFFCURVE",
"548 209 OFFCURVE",
"548 201 CURVE SMOOTH",
"548 200 OFFCURVE",
"548 196 OFFCURVE",
"551 196 CURVE SMOOTH"
);
}
);
width = 1133;
}
);
note = H;
unicode = 0048;
},
{
glyphname = I;
lastChange = "2022-02-17 03:35:41 +0000";
layers = (
{
layerId = "9E0C627C-9F9A-47B5-8A8C-706F30D5AE4A";
paths = (
{
closed = 1;
nodes = (
"548 -46 OFFCURVE",
"795 383 OFFCURVE",
"956 640 CURVE SMOOTH",
"975 670 OFFCURVE",
"996 696 OFFCURVE",
"1020 721 CURVE SMOOTH",
"1021 722 OFFCURVE",
"1022 724 OFFCURVE",
"1022 726 CURVE SMOOTH",
"1022 729 OFFCURVE",
"1020 732 OFFCURVE",
"1016 732 CURVE SMOOTH",
"1015 732 OFFCURVE",
"1013 731 OFFCURVE",
"1012 730 CURVE SMOOTH",
"1000 722 OFFCURVE",
"997 722 OFFCURVE",
"982 720 CURVE SMOOTH",
"975 719 OFFCURVE",
"967 719 OFFCURVE",
"960 719 CURVE SMOOTH",
"935 719 OFFCURVE",
"911 721 OFFCURVE",
"886 722 CURVE SMOOTH",
"859 723 OFFCURVE",
"832 723 OFFCURVE",
"805 723 CURVE SMOOTH",
"662 723 OFFCURVE",
"552 704 OFFCURVE",
"444 603 CURVE SMOOTH",
"400 562 OFFCURVE",
"359 496 OFFCURVE",
"359 434 CURVE SMOOTH",
"359 366 OFFCURVE",
"412 319 OFFCURVE",
"476 306 CURVE",
"478 305 LINE",
"480 305 OFFCURVE",
"483 307 OFFCURVE",
"483 310 CURVE SMOOTH",
"483 313 OFFCURVE",
"480 315 OFFCURVE",
"478 316 CURVE SMOOTH",
"465 324 OFFCURVE",
"456 332 OFFCURVE",
"447 344 CURVE SMOOTH",
"422 377 OFFCURVE",
"408 418 OFFCURVE",
"408 458 CURVE SMOOTH",
"408 489 OFFCURVE",
"416 520 OFFCURVE",
"432 547 CURVE SMOOTH",
"484 634 OFFCURVE",
"593 664 OFFCURVE",
"688 664 CURVE SMOOTH",
"756 664 OFFCURVE",
"825 662 OFFCURVE",
"893 661 CURVE",
"788 472 OFFCURVE",
"552 87 OFFCURVE",
"355 5 CURVE SMOOTH",
"322 -9 OFFCURVE",
"279 -15 OFFCURVE",
"244 -15 CURVE SMOOTH",
"152 -15 OFFCURVE",
"60 23 OFFCURVE",
"44 124 CURVE",
"44 132 LINE SMOOTH",
"44 162 OFFCURVE",
"65 175 OFFCURVE",
"65 182 CURVE SMOOTH",
"65 183 OFFCURVE",
"64 184 OFFCURVE",
"63 184 CURVE SMOOTH",
"60 184 OFFCURVE",
"57 182 OFFCURVE",
"56 181 CURVE SMOOTH",
"30 158 OFFCURVE",
"17 114 OFFCURVE",
"17 80 CURVE SMOOTH",
"17 -17 OFFCURVE",
"123 -46 OFFCURVE",
"203 -46 CURVE SMOOTH"
);
},
{
closed = 1;
nodes = (
"602 239 OFFCURVE",
"609 250 OFFCURVE",
"611 254 CURVE SMOOTH",
"630 291 OFFCURVE",
"654 337 OFFCURVE",
"654 379 CURVE SMOOTH",
"654 401 OFFCURVE",
"648 429 OFFCURVE",
"620 429 CURVE SMOOTH",
"597 429 OFFCURVE",
"576 412 OFFCURVE",
"566 392 CURVE",
"565 388 LINE SMOOTH",
"565 387 OFFCURVE",
"566 386 OFFCURVE",
"567 386 CURVE SMOOTH",
"572 386 OFFCURVE",
"573 397 OFFCURVE",
"586 397 CURVE SMOOTH",
"607 397 OFFCURVE",
"608 356 OFFCURVE",
"608 341 CURVE SMOOTH",
"608 312 OFFCURVE",
"604 283 OFFCURVE",
"597 255 CURVE SMOOTH",
"596 251 OFFCURVE",
"595 247 OFFCURVE",
"595 243 CURVE SMOOTH",
"595 242 OFFCURVE",
"596 239 OFFCURVE",
"598 239 CURVE SMOOTH"
);
}
);
width = 765;
}
);
note = I;
unicode = 0049;
},
{
glyphname = J;
lastChange = "2022-02-17 03:35:41 +0000";
layers = (
{
layerId = "9E0C627C-9F9A-47B5-8A8C-706F30D5AE4A";
paths = (
{
closed = 1;
nodes = (
"95 -298 OFFCURVE",
"118 -296 OFFCURVE",
"141 -292 CURVE SMOOTH",
"342 -260 OFFCURVE",
"515 -107 OFFCURVE",
"620 61 CURVE SMOOTH",
"652 112 OFFCURVE",
"681 164 OFFCURVE",
"710 216 CURVE SMOOTH",
"761 305 OFFCURVE",
"811 393 OFFCURVE",
"861 482 CURVE SMOOTH",
"894 538 OFFCURVE",
"925 596 OFFCURVE",
"962 650 CURVE SMOOTH",
"963 652 OFFCURVE",
"964 654 OFFCURVE",
"964 656 CURVE SMOOTH",
"964 659 OFFCURVE",
"961 660 OFFCURVE",
"958 660 CURVE SMOOTH",
"950 660 OFFCURVE",
"951 648 OFFCURVE",
"926 645 CURVE SMOOTH",
"895 641 OFFCURVE",
"872 649 OFFCURVE",
"847 623 CURVE SMOOTH",
"845 621 OFFCURVE",
"807 543 OFFCURVE",
"804 537 CURVE SMOOTH",
"742 413 OFFCURVE",
"683 288 OFFCURVE",
"620 165 CURVE SMOOTH",
"545 18 OFFCURVE",
"378 -199 OFFCURVE",
"216 -250 CURVE SMOOTH",
"180 -261 OFFCURVE",
"143 -268 OFFCURVE",
"105 -268 CURVE SMOOTH",
"23 -268 OFFCURVE",
"-79 -226 OFFCURVE",
"-79 -129 CURVE SMOOTH",
"-79 -7 OFFCURVE",
"84 60 OFFCURVE",
"181 85 CURVE SMOOTH",
"250 102 OFFCURVE",
"323 108 OFFCURVE",
"394 111 CURVE SMOOTH",
"418 112 OFFCURVE",
"441 113 OFFCURVE",
"465 113 CURVE SMOOTH",
"491 113 LINE",
"497 114 OFFCURVE",
"501 118 OFFCURVE",
"501 125 CURVE SMOOTH",
"501 130 OFFCURVE",
"497 130 OFFCURVE",
"493 130 CURVE SMOOTH",
"445 130 LINE SMOOTH",
"355 130 OFFCURVE",
"261 127 OFFCURVE",
"173 106 CURVE SMOOTH",
"71 81 OFFCURVE",
"-56 29 OFFCURVE",
"-112 -66 CURVE SMOOTH",
"-126 -91 OFFCURVE",
"-135 -119 OFFCURVE",
"-135 -147 CURVE SMOOTH",
"-135 -257 OFFCURVE",
"-19 -298 OFFCURVE",
"72 -298 CURVE SMOOTH"
);
},
{
closed = 1;
nodes = (
"623 234 OFFCURVE",
"630 245 OFFCURVE",
"632 249 CURVE SMOOTH",
"651 286 OFFCURVE",
"675 332 OFFCURVE",
"675 374 CURVE SMOOTH",
"675 396 OFFCURVE",
"669 424 OFFCURVE",
"641 424 CURVE SMOOTH",
"618 424 OFFCURVE",
"597 407 OFFCURVE",
"587 387 CURVE",
"586 383 LINE SMOOTH",
"586 382 OFFCURVE",
"587 381 OFFCURVE",
"588 381 CURVE SMOOTH",
"593 381 OFFCURVE",
"594 392 OFFCURVE",
"607 392 CURVE SMOOTH",
"628 392 OFFCURVE",
"629 351 OFFCURVE",
"629 336 CURVE SMOOTH",
"629 307 OFFCURVE",
"625 278 OFFCURVE",
"618 250 CURVE SMOOTH",
"617 246 OFFCURVE",
"616 242 OFFCURVE",
"616 238 CURVE SMOOTH",
"616 237 OFFCURVE",
"617 234 OFFCURVE",
"619 234 CURVE SMOOTH"
);
},
{
closed = 1;
nodes = (
"441 239 LINE SMOOTH",
"444 239 OFFCURVE",
"447 241 OFFCURVE",
"447 244 CURVE SMOOTH",
"447 248 OFFCURVE",
"444 250 OFFCURVE",
"441 252 CURVE SMOOTH",
"394 283 OFFCURVE",
"379 325 OFFCURVE",
"379 380 CURVE SMOOTH",
"379 454 OFFCURVE",
"413 542 OFFCURVE",
"462 597 CURVE SMOOTH",
"539 682 OFFCURVE",
"647 695 OFFCURVE",
"756 695 CURVE SMOOTH",
"820 695 OFFCURVE",
"884 693 OFFCURVE",
"948 685 CURVE SMOOTH",
"956 684 OFFCURVE",
"965 683 OFFCURVE",
"973 683 CURVE SMOOTH",
"1020 683 OFFCURVE",
"1044 701 OFFCURVE",
"1077 731 CURVE SMOOTH",
"1080 734 OFFCURVE",
"1083 738 OFFCURVE",
"1083 742 CURVE SMOOTH",
"1083 744 OFFCURVE",
"1082 746 OFFCURVE",
"1080 746 CURVE SMOOTH",
"1079 746 OFFCURVE",
"1078 745 OFFCURVE",
"1077 745 CURVE",
"1064 735 OFFCURVE",
"1057 734 OFFCURVE",
"1041 733 CURVE SMOOTH",
"1031 732 OFFCURVE",
"1022 732 OFFCURVE",
"1012 732 CURVE SMOOTH",
"951 732 OFFCURVE",
"891 744 OFFCURVE",
"830 744 CURVE SMOOTH",
"823 744 OFFCURVE",
"817 744 OFFCURVE",
"810 743 CURVE SMOOTH",
"605 732 OFFCURVE",
"362 641 OFFCURVE",
"334 409 CURVE SMOOTH",
"333 401 OFFCURVE",
"333 393 OFFCURVE",
"333 385 CURVE SMOOTH",
"333 315 OFFCURVE",
"365 253 OFFCURVE",
"438 239 CURVE"
);
}
);
width = 676;
}
);
note = J;
unicode = 004A;
},
{
glyphname = K;
lastChange = "2022-02-17 03:35:41 +0000";
layers = (
{
layerId = "9E0C627C-9F9A-47B5-8A8C-706F30D5AE4A";
paths = (
{
closed = 1;
nodes = (
"1289 -159 OFFCURVE",
"1314 -116 OFFCURVE",
"1325 -72 CURVE",
"1325 -70 LINE SMOOTH",
"1325 -66 OFFCURVE",
"1320 -53 OFFCURVE",
"1315 -53 CURVE SMOOTH",
"1314 -53 OFFCURVE",
"1313 -54 OFFCURVE",
"1313 -55 CURVE",
"1307 -75 OFFCURVE",
"1300 -99 OFFCURVE",
"1274 -99 CURVE SMOOTH",
"1244 -99 OFFCURVE",
"1186 -57 OFFCURVE",
"1161 -40 CURVE SMOOTH",
"1021 55 OFFCURVE",
"904 174 OFFCURVE",
"777 285 CURVE",
"922 433 OFFCURVE",
"1222 702 OFFCURVE",
"1442 706 CURVE SMOOTH",
"1445 706 LINE SMOOTH",
"1471 706 OFFCURVE",
"1484 694 OFFCURVE",
"1484 668 CURVE SMOOTH",
"1484 658 OFFCURVE",
"1480 648 OFFCURVE",
"1480 639 CURVE SMOOTH",
"1480 634 OFFCURVE",
"1484 631 OFFCURVE",
"1488 631 CURVE SMOOTH",
"1497 631 OFFCURVE",
"1498 650 OFFCURVE",
"1498 660 CURVE SMOOTH",
"1498 699 OFFCURVE",
"1484 745 OFFCURVE",
"1438 745 CURVE SMOOTH",
"1369 745 OFFCURVE",
"1276 706 OFFCURVE",
"1216 675 CURVE SMOOTH",
"1051 590 OFFCURVE",
"885 434 OFFCURVE",
"759 299 CURVE",
"742 314 LINE",
"797 387 OFFCURVE",
"847 464 OFFCURVE",
"895 541 CURVE SMOOTH",
"925 589 OFFCURVE",
"953 637 OFFCURVE",
"985 684 CURVE",
"1006 698 OFFCURVE",
"1005 710 OFFCURVE",
"1014 729 CURVE SMOOTH",
"1016 734 OFFCURVE",
"1019 738 OFFCURVE",
"1019 742 CURVE SMOOTH",
"1019 743 OFFCURVE",
"1019 744 OFFCURVE",
"1017 744 CURVE SMOOTH",
"1013 744 OFFCURVE",
"1005 731 OFFCURVE",
"978 731 CURVE SMOOTH",
"901 731 OFFCURVE",
"825 744 OFFCURVE",
"748 744 CURVE SMOOTH",
"739 744 OFFCURVE",
"731 744 OFFCURVE",
"723 743 CURVE SMOOTH",
"551 734 OFFCURVE",
"324 663 OFFCURVE",
"252 489 CURVE SMOOTH",
"241 463 OFFCURVE",
"236 436 OFFCURVE",
"232 408 CURVE SMOOTH",
"231 402 OFFCURVE",
"231 396 OFFCURVE",
"231 390 CURVE SMOOTH",
"231 316 OFFCURVE",
"277 254 OFFCURVE",
"351 239 CURVE",
"354 239 LINE SMOOTH",
"357 239 OFFCURVE",
"360 241 OFFCURVE",
"360 244 CURVE SMOOTH",
"360 248 OFFCURVE",
"357 250 OFFCURVE",
"354 252 CURVE SMOOTH",
"307 283 OFFCURVE",
"292 325 OFFCURVE",
"292 380 CURVE SMOOTH",
"292 455 OFFCURVE",
"325 542 OFFCURVE",
"375 597 CURVE SMOOTH",
"451 682 OFFCURVE",
"560 695 OFFCURVE",
"669 695 CURVE SMOOTH",
"747 695 OFFCURVE",
"825 687 OFFCURVE",
"902 678 CURVE",
"840 565 OFFCURVE",
"773 455 OFFCURVE",
"699 350 CURVE",
"684 362 OFFCURVE",
"669 374 OFFCURVE",
"653 385 CURVE",
"664 418 OFFCURVE",
"671 452 OFFCURVE",
"671 486 CURVE SMOOTH",
"671 513 OFFCURVE",
"667 558 OFFCURVE",
"630 558 CURVE SMOOTH",
"600 558 OFFCURVE",
"578 529 OFFCURVE",
"566 505 CURVE SMOOTH",
"565 503 OFFCURVE",
"564 500 OFFCURVE",
"564 498 CURVE SMOOTH",
"564 497 OFFCURVE",
"565 496 OFFCURVE",
"566 496 CURVE SMOOTH",
"573 496 OFFCURVE",
"573 511 OFFCURVE",
"588 511 CURVE SMOOTH",
"609 511 OFFCURVE",
"610 472 OFFCURVE",
"610 454 CURVE SMOOTH",
"610 440 OFFCURVE",
"609 425 OFFCURVE",
"608 411 CURVE",
"585 421 OFFCURVE",
"560 428 OFFCURVE",
"533 428 CURVE SMOOTH",
"522 428 OFFCURVE",
"464 420 OFFCURVE",
"464 406 CURVE SMOOTH",
"464 402 OFFCURVE",
"469 398 OFFCURVE",
"473 398 CURVE SMOOTH",
"480 398 OFFCURVE",
"491 407 OFFCURVE",
"508 407 CURVE SMOOTH",
"538 407 OFFCURVE",
"572 390 OFFCURVE",
"604 369 CURVE",
"599 333 OFFCURVE",
"592 296 OFFCURVE",
"583 262 CURVE SMOOTH",
"581 255 OFFCURVE",
"579 248 OFFCURVE",
"579 240 CURVE SMOOTH",
"579 239 OFFCURVE",
"579 235 OFFCURVE",
"581 235 CURVE SMOOTH",
"587 235 OFFCURVE",
"597 254 OFFCURVE",
"600 258 CURVE",
"613 286 OFFCURVE",
"627 315 OFFCURVE",
"639 345 CURVE",
"675 317 LINE",
"602 216 OFFCURVE",
"473 52 OFFCURVE",
"355 5 CURVE SMOOTH",
"321 -9 OFFCURVE",
"281 -15 OFFCURVE",
"244 -15 CURVE SMOOTH",
"152 -15 OFFCURVE",
"59 23 OFFCURVE",
"44 124 CURVE",
"44 132 LINE SMOOTH",
"44 161 OFFCURVE",
"65 176 OFFCURVE",
"65 182 CURVE SMOOTH",
"65 183 OFFCURVE",
"64 184 OFFCURVE",
"63 184 CURVE SMOOTH",
"60 184 OFFCURVE",
"57 182 OFFCURVE",
"56 181 CURVE SMOOTH",
"30 158 OFFCURVE",
"17 114 OFFCURVE",
"17 80 CURVE SMOOTH",
"17 -17 OFFCURVE",
"123 -46 OFFCURVE",
"203 -46 CURVE SMOOTH",
"417 -46 OFFCURVE",
"593 124 OFFCURVE",
"717 281 CURVE",
"731 268 LINE",
"710 246 OFFCURVE",
"547 58 OFFCURVE",
"547 48 CURVE SMOOTH",
"547 43 OFFCURVE",
"554 39 OFFCURVE",
"558 39 CURVE SMOOTH",
"561 39 OFFCURVE",
"563 40 OFFCURVE",
"565 42 CURVE SMOOTH",
"584 65 OFFCURVE",
"601 88 OFFCURVE",
"620 110 CURVE SMOOTH",
"661 159 OFFCURVE",
"703 207 OFFCURVE",
"747 254 CURVE",
"864 144 OFFCURVE",
"970 22 OFFCURVE",
"1093 -81 CURVE SMOOTH",
"1129 -111 OFFCURVE",
"1188 -159 OFFCURVE",
"1238 -159 CURVE SMOOTH"
);
}
);
width = 1116;
}
);
note = K;
unicode = 004B;
},
{
glyphname = L;
lastChange = "2022-02-17 03:35:41 +0000";
layers = (
{
layerId = "9E0C627C-9F9A-47B5-8A8C-706F30D5AE4A";
paths = (
{
closed = 1;
nodes = (
"1059 -171 OFFCURVE",
"1192 -144 OFFCURVE",
"1192 -48 CURVE SMOOTH",
"1192 -5 OFFCURVE",
"1160 43 OFFCURVE",
"1120 60 CURVE SMOOTH",
"1115 62 OFFCURVE",
"1104 66 OFFCURVE",
"1098 66 CURVE SMOOTH",
"1095 66 OFFCURVE",
"1086 63 OFFCURVE",
"1086 59 CURVE SMOOTH",
"1086 58 OFFCURVE",
"1088 57 OFFCURVE",
"1089 57 CURVE",
"1131 42 OFFCURVE",
"1161 -8 OFFCURVE",
"1161 -52 CURVE SMOOTH",
"1161 -118 OFFCURVE",
"1099 -136 OFFCURVE",
"1045 -136 CURVE SMOOTH",
"875 -136 OFFCURVE",
"629 6 OFFCURVE",
"484 86 CURVE",
"549 169 OFFCURVE",
"598 263 OFFCURVE",
"649 355 CURVE SMOOTH",
"716 478 OFFCURVE",
"788 672 OFFCURVE",
"940 708 CURVE SMOOTH",
"950 710 OFFCURVE",
"960 711 OFFCURVE",
"970 711 CURVE SMOOTH",
"1019 711 OFFCURVE",
"1082 688 OFFCURVE",
"1104 641 CURVE SMOOTH",
"1109 630 OFFCURVE",
"1110 621 OFFCURVE",
"1112 610 CURVE SMOOTH",
"1113 605 OFFCURVE",
"1115 602 OFFCURVE",
"1121 602 CURVE SMOOTH",
"1128 602 OFFCURVE",
"1130 607 OFFCURVE",
"1130 614 CURVE SMOOTH",
"1130 629 OFFCURVE",
"1125 647 OFFCURVE",
"1119 661 CURVE SMOOTH",
"1089 726 OFFCURVE",
"1018 755 OFFCURVE",
"950 755 CURVE SMOOTH",
"942 755 OFFCURVE",
"934 755 OFFCURVE",
"927 754 CURVE SMOOTH",
"756 734 OFFCURVE",
"670 546 OFFCURVE",
"597 412 CURVE SMOOTH",
"543 313 OFFCURVE",
"497 208 OFFCURVE",
"436 113 CURVE",
"379 144 OFFCURVE",
"323 177 OFFCURVE",
"266 208 CURVE SMOOTH",
"224 231 OFFCURVE",
"172 256 OFFCURVE",
"124 256 CURVE SMOOTH",
"54 256 OFFCURVE",
"9 197 OFFCURVE",
"9 130 CURVE SMOOTH",
"9 85 OFFCURVE",
"30 30 OFFCURVE",
"62 -3 CURVE SMOOTH",
"65 -6 OFFCURVE",
"70 -11 OFFCURVE",
"75 -11 CURVE SMOOTH",
"78 -11 OFFCURVE",
"80 -9 OFFCURVE",
"80 -6 CURVE SMOOTH",
"80 -2 OFFCURVE",
"77 2 OFFCURVE",
"75 5 CURVE SMOOTH",
"54 37 OFFCURVE",
"45 96 OFFCURVE",
"45 133 CURVE SMOOTH",
"45 170 OFFCURVE",
"50 196 OFFCURVE",
"94 196 CURVE SMOOTH",
"171 196 OFFCURVE",
"325 97 OFFCURVE",
"397 56 CURVE",
"357 7 OFFCURVE",
"272 -67 OFFCURVE",
"206 -67 CURVE SMOOTH",
"178 -67 OFFCURVE",
"140 -57 OFFCURVE",
"140 -23 CURVE SMOOTH",
"140 -6 OFFCURVE",
"140 3 OFFCURVE",
"148 19 CURVE SMOOTH",
"149 21 OFFCURVE",
"151 23 OFFCURVE",
"151 26 CURVE SMOOTH",
"151 30 OFFCURVE",
"147 31 OFFCURVE",
"144 31 CURVE SMOOTH",
"121 31 OFFCURVE",
"109 1 OFFCURVE",
"109 -18 CURVE SMOOTH",
"109 -67 OFFCURVE",
"161 -85 OFFCURVE",
"202 -85 CURVE SMOOTH",
"297 -85 OFFCURVE",
"373 -33 OFFCURVE",
"437 33 CURVE",
"590 -51 OFFCURVE",
"808 -171 OFFCURVE",
"986 -171 CURVE SMOOTH"
);
},
{
closed = 1;
nodes = (
"494 269 OFFCURVE",
"504 287 OFFCURVE",
"507 292 CURVE SMOOTH",
"540 361 OFFCURVE",
"578 442 OFFCURVE",
"578 520 CURVE SMOOTH",
"578 547 OFFCURVE",
"574 591 OFFCURVE",
"537 591 CURVE SMOOTH",
"507 591 OFFCURVE",
"485 563 OFFCURVE",
"473 538 CURVE SMOOTH",
"472 536 OFFCURVE",
"471 534 OFFCURVE",
"471 532 CURVE SMOOTH",
"471 531 OFFCURVE",
"472 529 OFFCURVE",
"473 529 CURVE SMOOTH",
"480 529 OFFCURVE",
"480 544 OFFCURVE",
"495 544 CURVE SMOOTH",
"516 544 OFFCURVE",
"517 506 OFFCURVE",
"517 488 CURVE SMOOTH",
"517 425 OFFCURVE",
"506 357 OFFCURVE",
"490 296 CURVE SMOOTH",
"488 289 OFFCURVE",
"486 282 OFFCURVE",
"486 274 CURVE SMOOTH",
"486 273 OFFCURVE",
"486 269 OFFCURVE",
"488 269 CURVE SMOOTH"
);
}
);
width = 666;
}
);
note = L;
unicode = 004C;
},
{
color = 11;
glyphname = Lslash;
lastChange = "2022-02-17 03:35:41 +0000";
layers = (
{
components = (
{
name = strokeshortcomb;
transform = "{0.99027, 0.13917, -0.13917, 0.99027, 449, -46}";
}
);
layerId = "9E0C627C-9F9A-47B5-8A8C-706F30D5AE4A";
paths = (
{
closed = 1;
nodes = (
"1059 -171 OFFCURVE",
"1192 -144 OFFCURVE",
"1192 -48 CURVE SMOOTH",
"1192 -5 OFFCURVE",
"1160 43 OFFCURVE",
"1120 60 CURVE SMOOTH",
"1115 62 OFFCURVE",
"1104 66 OFFCURVE",
"1098 66 CURVE SMOOTH",
"1095 66 OFFCURVE",
"1086 63 OFFCURVE",
"1086 59 CURVE SMOOTH",
"1086 58 OFFCURVE",
"1088 57 OFFCURVE",
"1089 57 CURVE",
"1131 42 OFFCURVE",
"1161 -8 OFFCURVE",
"1161 -52 CURVE SMOOTH",
"1161 -118 OFFCURVE",
"1099 -136 OFFCURVE",
"1045 -136 CURVE SMOOTH",
"875 -136 OFFCURVE",
"629 6 OFFCURVE",
"484 86 CURVE",
"549 169 OFFCURVE",
"598 263 OFFCURVE",
"649 355 CURVE SMOOTH",
"716 478 OFFCURVE",
"788 672 OFFCURVE",
"940 708 CURVE SMOOTH",
"950 710 OFFCURVE",
"960 711 OFFCURVE",
"970 711 CURVE SMOOTH",
"1019 711 OFFCURVE",
"1082 688 OFFCURVE",
"1104 641 CURVE SMOOTH",
"1109 630 OFFCURVE",
"1110 621 OFFCURVE",
"1112 610 CURVE SMOOTH",
"1113 605 OFFCURVE",
"1115 602 OFFCURVE",
"1121 602 CURVE SMOOTH",
"1128 602 OFFCURVE",
"1130 607 OFFCURVE",
"1130 614 CURVE SMOOTH",
"1130 629 OFFCURVE",
"1125 647 OFFCURVE",
"1119 661 CURVE SMOOTH",
"1089 726 OFFCURVE",
"1018 755 OFFCURVE",
"950 755 CURVE SMOOTH",
"942 755 OFFCURVE",
"934 755 OFFCURVE",
"927 754 CURVE SMOOTH",
"756 734 OFFCURVE",
"670 546 OFFCURVE",
"597 412 CURVE SMOOTH",
"543 313 OFFCURVE",
"497 208 OFFCURVE",
"436 113 CURVE",
"379 144 OFFCURVE",
"323 177 OFFCURVE",
"266 208 CURVE SMOOTH",
"224 231 OFFCURVE",
"172 256 OFFCURVE",
"124 256 CURVE SMOOTH",
"54 256 OFFCURVE",
"9 197 OFFCURVE",
"9 130 CURVE SMOOTH",
"9 85 OFFCURVE",
"30 30 OFFCURVE",
"62 -3 CURVE SMOOTH",
"65 -6 OFFCURVE",
"70 -11 OFFCURVE",
"75 -11 CURVE SMOOTH",
"78 -11 OFFCURVE",
"80 -9 OFFCURVE",
"80 -6 CURVE SMOOTH",
"80 -2 OFFCURVE",
"77 2 OFFCURVE",
"75 5 CURVE SMOOTH",
"54 37 OFFCURVE",
"45 96 OFFCURVE",
"45 133 CURVE SMOOTH",
"45 170 OFFCURVE",
"50 196 OFFCURVE",
"94 196 CURVE SMOOTH",
"171 196 OFFCURVE",
"325 97 OFFCURVE",
"397 56 CURVE",
"357 7 OFFCURVE",
"272 -67 OFFCURVE",
"206 -67 CURVE SMOOTH",
"178 -67 OFFCURVE",
"140 -57 OFFCURVE",
"140 -23 CURVE SMOOTH",
"140 -6 OFFCURVE",
"140 3 OFFCURVE",
"148 19 CURVE SMOOTH",
"149 21 OFFCURVE",
"151 23 OFFCURVE",
"151 26 CURVE SMOOTH",
"151 30 OFFCURVE",
"147 31 OFFCURVE",
"144 31 CURVE SMOOTH",
"121 31 OFFCURVE",
"109 1 OFFCURVE",
"109 -18 CURVE SMOOTH",
"109 -67 OFFCURVE",
"161 -85 OFFCURVE",
"202 -85 CURVE SMOOTH",
"297 -85 OFFCURVE",
"373 -33 OFFCURVE",
"437 33 CURVE",
"590 -51 OFFCURVE",
"808 -171 OFFCURVE",
"986 -171 CURVE SMOOTH"
);
},
{
closed = 1;
nodes = (
"494 309 OFFCURVE",
"504 327 OFFCURVE",
"507 332 CURVE SMOOTH",
"540 401 OFFCURVE",
"578 482 OFFCURVE",
"578 560 CURVE SMOOTH",
"578 587 OFFCURVE",
"574 631 OFFCURVE",
"537 631 CURVE SMOOTH",
"507 631 OFFCURVE",
"485 603 OFFCURVE",
"473 578 CURVE SMOOTH",
"472 576 OFFCURVE",
"471 574 OFFCURVE",
"471 572 CURVE SMOOTH",
"471 571 OFFCURVE",
"472 569 OFFCURVE",
"473 569 CURVE SMOOTH",
"480 569 OFFCURVE",
"480 584 OFFCURVE",
"495 584 CURVE SMOOTH",
"516 584 OFFCURVE",
"517 546 OFFCURVE",
"517 528 CURVE SMOOTH",
"517 465 OFFCURVE",
"506 397 OFFCURVE",
"490 336 CURVE SMOOTH",
"488 329 OFFCURVE",
"486 322 OFFCURVE",
"486 314 CURVE SMOOTH",
"486 313 OFFCURVE",
"486 309 OFFCURVE",
"488 309 CURVE SMOOTH"
);
}
);
width = 666;
}
);
unicode = 0141;
},
{
glyphname = M;
lastChange = "2022-02-17 03:35:41 +0000";
layers = (
{
layerId = "9E0C627C-9F9A-47B5-8A8C-706F30D5AE4A";
paths = (
{
closed = 1;
nodes = (
"573 -153 OFFCURVE",
"796 246 OFFCURVE",
"969 517 CURVE",
"945 420 OFFCURVE",
"908 280 OFFCURVE",
"908 183 CURVE SMOOTH",
"908 145 OFFCURVE",
"913 83 OFFCURVE",
"964 83 CURVE SMOOTH",
"1074 83 OFFCURVE",
"1348 394 OFFCURVE",
"1430 488 CURVE",
"1431 490 OFFCURVE",
"1434 493 OFFCURVE",
"1437 493 CURVE SMOOTH",
"1440 493 OFFCURVE",
"1440 488 OFFCURVE",
"1440 486 CURVE SMOOTH",
"1440 477 OFFCURVE",
"1436 467 OFFCURVE",
"1431 459 CURVE SMOOTH",
"1415 432 OFFCURVE",
"1396 406 OFFCURVE",
"1379 380 CURVE SMOOTH",
"1314 281 OFFCURVE",
"1236 167 OFFCURVE",
"1197 55 CURVE SMOOTH",
"1194 46 OFFCURVE",
"1183 11 OFFCURVE",
"1183 2 CURVE SMOOTH",
"1183 -10 OFFCURVE",
"1234 -15 OFFCURVE",
"1242 -15 CURVE SMOOTH",
"1260 -15 OFFCURVE",
"1277 -12 OFFCURVE",
"1286 5 CURVE SMOOTH",
"1291 15 OFFCURVE",
"1295 24 OFFCURVE",
"1301 33 CURVE SMOOTH",
"1344 91 OFFCURVE",
"1465 177 OFFCURVE",
"1532 207 CURVE",
"1532 210 OFFCURVE",
"1530 215 OFFCURVE",
"1526 215 CURVE SMOOTH",
"1524 215 OFFCURVE",
"1509 209 OFFCURVE",
"1508 209 CURVE",
"1456 189 OFFCURVE",
"1410 157 OFFCURVE",
"1364 125 CURVE SMOOTH",
"1354 118 OFFCURVE",
"1337 106 OFFCURVE",
"1325 106 CURVE SMOOTH",
"1317 106 OFFCURVE",
"1314 112 OFFCURVE",
"1314 119 CURVE SMOOTH",
"1314 135 OFFCURVE",
"1324 157 OFFCURVE",
"1330 171 CURVE SMOOTH",
"1389 312 OFFCURVE",
"1460 450 OFFCURVE",
"1548 575 CURVE SMOOTH",
"1568 602 OFFCURVE",
"1588 629 OFFCURVE",
"1609 655 CURVE SMOOTH",
"1649 700 LINE",
"1649 701 OFFCURVE",
"1650 702 OFFCURVE",
"1650 703 CURVE SMOOTH",
"1648 714 OFFCURVE",
"1603 731 OFFCURVE",
"1593 731 CURVE SMOOTH",
"1570 731 OFFCURVE",
"1532 668 OFFCURVE",
"1519 650 CURVE SMOOTH",
"1436 536 OFFCURVE",
"1342 431 OFFCURVE",
"1243 331 CURVE SMOOTH",
"1201 289 OFFCURVE",
"1081 155 OFFCURVE",
"1023 155 CURVE SMOOTH",
"984 155 OFFCURVE",
"982 209 OFFCURVE",
"982 236 CURVE SMOOTH",
"982 290 OFFCURVE",
"992 345 OFFCURVE",
"1003 397 CURVE SMOOTH",
"1019 469 OFFCURVE",
"1035 541 OFFCURVE",
"1054 612 CURVE",
"1097 614 OFFCURVE",
"1111 628 OFFCURVE",
"1143 652 CURVE SMOOTH",
"1147 655 OFFCURVE",
"1151 658 OFFCURVE",
"1151 663 CURVE SMOOTH",
"1151 665 OFFCURVE",
"1150 666 OFFCURVE",
"1148 666 CURVE SMOOTH",
"1144 666 OFFCURVE",
"1135 658 OFFCURVE",
"1116 658 CURVE SMOOTH",
"1100 658 OFFCURVE",
"1084 661 OFFCURVE",
"1068 664 CURVE",
"1068 664 OFFCURVE",
"1068 665 OFFCURVE",
"1067 665 CURVE SMOOTH",
"1066 665 LINE",
"1071 672 OFFCURVE",
"1101 712 OFFCURVE",
"1101 716 CURVE SMOOTH",
"1101 720 OFFCURVE",
"1098 721 OFFCURVE",
"1095 721 CURVE SMOOTH",
"1086 721 OFFCURVE",
"1083 704 OFFCURVE",
"1056 704 CURVE SMOOTH",
"1035 704 OFFCURVE",
"1001 706 OFFCURVE",
"992 682 CURVE",
"871 715 OFFCURVE",
"748 754 OFFCURVE",
"621 754 CURVE SMOOTH",
"432 754 OFFCURVE",
"134 667 OFFCURVE",
"134 432 CURVE SMOOTH",
"134 378 OFFCURVE",
"163 337 OFFCURVE",
"212 316 CURVE SMOOTH",
"225 310 OFFCURVE",
"240 306 OFFCURVE",
"255 306 CURVE SMOOTH",
"258 306 OFFCURVE",
"268 307 OFFCURVE",
"268 311 CURVE SMOOTH",
"268 315 OFFCURVE",
"263 315 OFFCURVE",
"261 315 CURVE SMOOTH",
"194 315 OFFCURVE",
"186 403 OFFCURVE",
"186 452 CURVE SMOOTH",
"186 641 OFFCURVE",
"389 720 OFFCURVE",
"550 720 CURVE SMOOTH",
"694 720 OFFCURVE",
"827 668 OFFCURVE",
"962 627 CURVE",
"840 406 OFFCURVE",
"611 1 OFFCURVE",
"373 -98 CURVE SMOOTH",
"341 -111 OFFCURVE",
"301 -116 OFFCURVE",
"267 -116 CURVE SMOOTH",
"160 -116 OFFCURVE",
"48 -67 OFFCURVE",
"31 50 CURVE",
"31 59 LINE SMOOTH",
"31 91 OFFCURVE",
"54 107 OFFCURVE",
"54 113 CURVE SMOOTH",
"54 115 OFFCURVE",
"52 116 OFFCURVE",
"51 116 CURVE SMOOTH",
"48 116 OFFCURVE",
"45 114 OFFCURVE",
"43 112 CURVE SMOOTH",
"15 88 OFFCURVE",
"1 37 OFFCURVE",
"1 1 CURVE SMOOTH",
"1 -108 OFFCURVE",
"112 -153 OFFCURVE",
"205 -153 CURVE SMOOTH"
);
},
{
closed = 1;
nodes = (
"669 196 OFFCURVE",
"680 214 OFFCURVE",
"682 219 CURVE SMOOTH",
"715 288 OFFCURVE",
"753 369 OFFCURVE",
"753 447 CURVE SMOOTH",
"753 474 OFFCURVE",
"749 518 OFFCURVE",
"713 518 CURVE SMOOTH",
"683 518 OFFCURVE",
"660 490 OFFCURVE",
"648 465 CURVE SMOOTH",
"647 463 OFFCURVE",
"646 461 OFFCURVE",
"646 459 CURVE SMOOTH",
"646 458 OFFCURVE",
"647 456 OFFCURVE",
"649 456 CURVE SMOOTH",
"655 456 OFFCURVE",
"656 471 OFFCURVE",
"670 471 CURVE SMOOTH",
"693 471 OFFCURVE",
"693 426 OFFCURVE",
"693 411 CURVE SMOOTH",
"693 349 OFFCURVE",
"681 283 OFFCURVE",
"665 223 CURVE",
"664 216 OFFCURVE",
"661 209 OFFCURVE",
"661 201 CURVE SMOOTH",
"661 200 OFFCURVE",
"661 196 OFFCURVE",
"664 196 CURVE SMOOTH"
);
}
);
width = 1409;
}
);
note = M;
unicode = 004D;
},
{
glyphname = N;
lastChange = "2022-02-17 03:35:41 +0000";
layers = (
{
layerId = "9E0C627C-9F9A-47B5-8A8C-706F30D5AE4A";
paths = (
{
closed = 1;
nodes = (
"217 -125 OFFCURVE",
"239 -124 OFFCURVE",
"259 -120 CURVE SMOOTH",
"504 -74 OFFCURVE",
"713 251 OFFCURVE",
"808 461 CURVE",
"827 417 OFFCURVE",
"844 372 OFFCURVE",
"863 327 CURVE SMOOTH",
"914 201 OFFCURVE",
"985 16 OFFCURVE",
"1067 -89 CURVE SMOOTH",
"1083 -109 OFFCURVE",
"1104 -121 OFFCURVE",
"1130 -121 CURVE SMOOTH",
"1175 -121 OFFCURVE",
"1214 -87 OFFCURVE",
"1229 -46 CURVE SMOOTH",
"1230 -42 OFFCURVE",
"1234 -28 OFFCURVE",
"1234 -24 CURVE SMOOTH",
"1234 -19 OFFCURVE",
"1232 -16 OFFCURVE",
"1227 -16 CURVE SMOOTH",
"1213 -16 OFFCURVE",
"1221 -80 OFFCURVE",
"1176 -80 CURVE SMOOTH",
"1124 -80 OFFCURVE",
"1078 16 OFFCURVE",
"1058 57 CURVE",
"1117 217 OFFCURVE",
"1294 660 OFFCURVE",
"1471 706 CURVE SMOOTH",
"1488 710 OFFCURVE",
"1507 711 OFFCURVE",
"1524 711 CURVE SMOOTH",
"1553 711 OFFCURVE",
"1616 706 OFFCURVE",
"1616 666 CURVE SMOOTH",
"1616 659 OFFCURVE",
"1612 652 OFFCURVE",
"1612 645 CURVE SMOOTH",
"1612 644 OFFCURVE",
"1613 642 OFFCURVE",
"1614 642 CURVE SMOOTH",
"1624 642 OFFCURVE",
"1633 681 OFFCURVE",
"1633 689 CURVE SMOOTH",
"1633 732 OFFCURVE",
"1580 740 OFFCURVE",
"1547 740 CURVE SMOOTH",
"1430 740 OFFCURVE",
"1330 672 OFFCURVE",
"1264 580 CURVE SMOOTH",
"1163 437 OFFCURVE",
"1084 278 OFFCURVE",
"1032 110 CURVE",
"992 197 OFFCURVE",
"956 285 OFFCURVE",
"915 371 CURVE SMOOTH",
"889 426 OFFCURVE",
"867 482 OFFCURVE",
"840 537 CURVE",
"849 558 OFFCURVE",
"880 645 OFFCURVE",
"880 664 CURVE SMOOTH",
"880 670 OFFCURVE",
"877 674 OFFCURVE",
"871 674 CURVE SMOOTH",
"867 674 OFFCURVE",
"860 672 OFFCURVE",
"858 668 CURVE SMOOTH",
"854 660 OFFCURVE",
"852 650 OFFCURVE",
"849 641 CURVE SMOOTH",
"822 574 LINE",
"776 660 OFFCURVE",
"711 743 OFFCURVE",
"604 743 CURVE SMOOTH",
"449 743 OFFCURVE",
"394 639 OFFCURVE",
"394 497 CURVE SMOOTH",
"394 463 OFFCURVE",
"398 430 OFFCURVE",
"408 397 CURVE SMOOTH",
"427 330 OFFCURVE",
"477 250 OFFCURVE",
"556 250 CURVE SMOOTH",
"567 250 OFFCURVE",
"620 259 OFFCURVE",
"620 273 CURVE SMOOTH",
"620 277 OFFCURVE",
"617 280 OFFCURVE",
"614 280 CURVE SMOOTH",
"607 280 OFFCURVE",
"596 271 OFFCURVE",
"580 271 CURVE SMOOTH",
"507 271 OFFCURVE",
"451 387 OFFCURVE",
"434 445 CURVE SMOOTH",
"424 478 OFFCURVE",
"418 511 OFFCURVE",
"418 545 CURVE SMOOTH",
"418 629 OFFCURVE",
"462 717 OFFCURVE",
"557 717 CURVE SMOOTH",
"673 717 OFFCURVE",
"746 594 OFFCURVE",
"790 502 CURVE",
"693 296 OFFCURVE",
"497 -36 OFFCURVE",
"261 -97 CURVE SMOOTH",
"245 -101 OFFCURVE",
"229 -103 OFFCURVE",
"213 -103 CURVE SMOOTH",
"149 -103 OFFCURVE",
"84 -61 OFFCURVE",
"84 9 CURVE SMOOTH",
"84 66 OFFCURVE",
"123 119 OFFCURVE",
"164 155 CURVE SMOOTH",
"188 175 OFFCURVE",
"220 196 OFFCURVE",
"250 206 CURVE SMOOTH",
"256 208 OFFCURVE",
"263 208 OFFCURVE",
"269 210 CURVE SMOOTH",
"276 213 OFFCURVE",
"297 230 OFFCURVE",
"297 238 CURVE SMOOTH",
"297 239 OFFCURVE",
"296 239 OFFCURVE",
"295 239 CURVE SMOOTH",
"266 239 OFFCURVE",
"171 185 OFFCURVE",
"146 168 CURVE SMOOTH",
"90 128 OFFCURVE",
"31 61 OFFCURVE",
"31 -12 CURVE SMOOTH",
"31 -102 OFFCURVE",
"123 -125 OFFCURVE",
"196 -125 CURVE SMOOTH"
);
},
{
closed = 1;
nodes = (
"888 145 OFFCURVE",
"888 152 OFFCURVE",
"888 153 CURVE SMOOTH",
"888 158 OFFCURVE",
"887 162 OFFCURVE",
"886 166 CURVE SMOOTH",
"873 212 OFFCURVE",
"859 271 OFFCURVE",
"819 301 CURVE SMOOTH",
"812 306 OFFCURVE",
"804 310 OFFCURVE",
"796 310 CURVE SMOOTH",
"771 310 OFFCURVE",
"758 279 OFFCURVE",
"758 259 CURVE SMOOTH",
"758 254 OFFCURVE",
"759 236 OFFCURVE",
"764 234 CURVE",
"766 235 OFFCURVE",
"766 238 OFFCURVE",
"766 239 CURVE SMOOTH",
"766 249 OFFCURVE",
"769 260 OFFCURVE",
"781 260 CURVE SMOOTH",
"811 260 OFFCURVE",
"862 182 OFFCURVE",
"875 157 CURVE",
"877 155 OFFCURVE",
"882 145 OFFCURVE",
"885 145 CURVE SMOOTH"
);
}
);
width = 1211;
}
);
note = N;
unicode = 004E;
},
{
glyphname = Eng;
lastChange = "2022-02-17 03:35:41 +0000";
layers = (
{
layerId = "9E0C627C-9F9A-47B5-8A8C-706F30D5AE4A";
paths = (
{
closed = 1;
nodes = (
"825 -313 OFFCURVE",
"911 -223 OFFCURVE",
"976 -116 CURVE SMOOTH",
"999 -77 OFFCURVE",
"1022 -38 OFFCURVE",
"1058 57 CURVE SMOOTH",
"1117 217 OFFCURVE",
"1294 660 OFFCURVE",
"1471 706 CURVE SMOOTH",
"1488 710 OFFCURVE",
"1507 711 OFFCURVE",
"1524 711 CURVE SMOOTH",
"1553 711 OFFCURVE",
"1616 706 OFFCURVE",
"1616 666 CURVE SMOOTH",
"1616 659 OFFCURVE",
"1612 652 OFFCURVE",
"1612 645 CURVE SMOOTH",
"1612 644 OFFCURVE",
"1613 642 OFFCURVE",
"1614 642 CURVE SMOOTH",
"1624 642 OFFCURVE",
"1633 681 OFFCURVE",
"1633 689 CURVE SMOOTH",
"1633 732 OFFCURVE",
"1580 740 OFFCURVE",
"1547 740 CURVE SMOOTH",
"1430 740 OFFCURVE",
"1330 672 OFFCURVE",
"1264 580 CURVE SMOOTH",
"1163 437 OFFCURVE",
"1084 278 OFFCURVE",
"1032 110 CURVE",
"992 197 OFFCURVE",
"956 285 OFFCURVE",
"915 371 CURVE SMOOTH",
"889 426 OFFCURVE",
"867 482 OFFCURVE",
"840 537 CURVE",
"849 558 OFFCURVE",
"880 645 OFFCURVE",
"880 664 CURVE SMOOTH",
"880 670 OFFCURVE",
"877 674 OFFCURVE",
"871 674 CURVE SMOOTH",
"867 674 OFFCURVE",
"860 672 OFFCURVE",
"858 668 CURVE SMOOTH",
"854 660 OFFCURVE",
"852 650 OFFCURVE",
"849 641 CURVE SMOOTH",
"822 574 LINE",
"776 660 OFFCURVE",
"711 743 OFFCURVE",
"604 743 CURVE SMOOTH",
"449 743 OFFCURVE",
"394 639 OFFCURVE",
"394 497 CURVE SMOOTH",
"394 463 OFFCURVE",
"398 430 OFFCURVE",
"408 397 CURVE SMOOTH",
"427 330 OFFCURVE",
"477 250 OFFCURVE",
"556 250 CURVE SMOOTH",
"567 250 OFFCURVE",
"620 259 OFFCURVE",
"620 273 CURVE SMOOTH",
"620 277 OFFCURVE",
"617 280 OFFCURVE",
"614 280 CURVE SMOOTH",
"607 280 OFFCURVE",
"596 271 OFFCURVE",
"580 271 CURVE SMOOTH",
"507 271 OFFCURVE",
"451 387 OFFCURVE",
"434 445 CURVE SMOOTH",
"424 478 OFFCURVE",
"418 511 OFFCURVE",
"418 545 CURVE SMOOTH",
"418 629 OFFCURVE",
"462 717 OFFCURVE",
"557 717 CURVE SMOOTH",
"673 717 OFFCURVE",
"746 594 OFFCURVE",
"790 502 CURVE",
"693 296 OFFCURVE",
"497 -36 OFFCURVE",
"261 -97 CURVE SMOOTH",
"245 -101 OFFCURVE",
"229 -103 OFFCURVE",
"213 -103 CURVE SMOOTH",
"149 -103 OFFCURVE",
"84 -61 OFFCURVE",
"84 9 CURVE SMOOTH",
"84 66 OFFCURVE",
"123 119 OFFCURVE",
"164 155 CURVE SMOOTH",
"188 175 OFFCURVE",
"220 196 OFFCURVE",
"250 206 CURVE SMOOTH",
"256 208 OFFCURVE",
"263 208 OFFCURVE",
"269 210 CURVE SMOOTH",
"276 213 OFFCURVE",
"297 230 OFFCURVE",
"297 238 CURVE SMOOTH",
"297 239 OFFCURVE",
"296 239 OFFCURVE",
"295 239 CURVE SMOOTH",
"266 239 OFFCURVE",
"171 185 OFFCURVE",
"146 168 CURVE SMOOTH",
"90 128 OFFCURVE",
"31 61 OFFCURVE",
"31 -12 CURVE SMOOTH",
"31 -102 OFFCURVE",
"123 -125 OFFCURVE",
"196 -125 CURVE SMOOTH",
"217 -125 OFFCURVE",
"239 -124 OFFCURVE",
"259 -120 CURVE SMOOTH",
"504 -74 OFFCURVE",
"713 251 OFFCURVE",
"808 461 CURVE",
"827 417 OFFCURVE",
"844 372 OFFCURVE",
"863 327 CURVE SMOOTH",
"900 235 OFFCURVE",
"957 134 OFFCURVE",
"996 34 CURVE",
"948 -85 OFFCURVE",
"814 -281 OFFCURVE",
"747 -290 CURVE",
"740 -292 OFFCURVE",
"733 -292 OFFCURVE",
"725 -292 CURVE SMOOTH",
"661 -292 OFFCURVE",
"633 -236 OFFCURVE",
"629 -180 CURVE SMOOTH",
"629 -177 OFFCURVE",
"629 -169 OFFCURVE",
"625 -169 CURVE SMOOTH",
"609 -169 OFFCURVE",
"600 -233 OFFCURVE",
"600 -246 CURVE SMOOTH",
"604 -298 OFFCURVE",
"647 -313 OFFCURVE",
"692 -313 CURVE SMOOTH"
);
},
{
closed = 1;
nodes = (
"888 145 OFFCURVE",
"888 152 OFFCURVE",
"888 153 CURVE SMOOTH",
"888 158 OFFCURVE",
"887 162 OFFCURVE",
"886 166 CURVE SMOOTH",
"873 212 OFFCURVE",
"859 271 OFFCURVE",
"819 301 CURVE SMOOTH",
"812 306 OFFCURVE",
"804 310 OFFCURVE",
"796 310 CURVE SMOOTH",
"771 310 OFFCURVE",
"758 279 OFFCURVE",
"758 259 CURVE SMOOTH",
"758 254 OFFCURVE",
"759 236 OFFCURVE",
"764 234 CURVE",
"766 235 OFFCURVE",
"766 238 OFFCURVE",
"766 239 CURVE SMOOTH",
"766 249 OFFCURVE",
"769 260 OFFCURVE",
"781 260 CURVE SMOOTH",
"811 260 OFFCURVE",
"862 182 OFFCURVE",
"875 157 CURVE",
"877 155 OFFCURVE",
"882 145 OFFCURVE",
"885 145 CURVE SMOOTH"
);
}
);
width = 1151;
}
);
unicode = 014A;
},
{
glyphname = O;
lastChange = "2022-02-17 03:35:41 +0000";
layers = (
{
layerId = "9E0C627C-9F9A-47B5-8A8C-706F30D5AE4A";
paths = (
{
closed = 1;
nodes = (
"302 -40 OFFCURVE",
"374 -20 OFFCURVE",
"437 5 CURVE SMOOTH",
"520 37 OFFCURVE",
"610 101 OFFCURVE",
"677 158 CURVE",
"703 160 OFFCURVE",
"730 162 OFFCURVE",
"755 169 CURVE SMOOTH",
"758 170 OFFCURVE",
"761 172 OFFCURVE",
"761 176 CURVE SMOOTH",
"761 182 OFFCURVE",
"757 183 OFFCURVE",
"752 183 CURVE SMOOTH",
"743 183 OFFCURVE",
"710 176 OFFCURVE",
"696 175 CURVE",
"776 247 OFFCURVE",
"880 362 OFFCURVE",
"880 477 CURVE SMOOTH",
"880 616 OFFCURVE",
"713 659 OFFCURVE",
"603 675 CURVE",
"658 693 OFFCURVE",
"715 704 OFFCURVE",
"772 704 CURVE SMOOTH",
"826 704 OFFCURVE",
"912 697 OFFCURVE",
"912 624 CURVE SMOOTH",
"912 594 OFFCURVE",
"892 577 OFFCURVE",
"892 571 CURVE SMOOTH",
"892 567 OFFCURVE",
"895 563 OFFCURVE",
"900 563 CURVE SMOOTH",
"915 563 OFFCURVE",
"927 610 OFFCURVE",
"927 624 CURVE SMOOTH",
"927 676 OFFCURVE",
"886 705 OFFCURVE",
"840 713 CURVE SMOOTH",
"801 720 OFFCURVE",
"760 723 OFFCURVE",
"720 723 CURVE SMOOTH",
"644 723 OFFCURVE",
"567 711 OFFCURVE",
"495 686 CURVE",
"463 686 LINE SMOOTH",
"409 686 OFFCURVE",
"356 681 OFFCURVE",
"303 671 CURVE SMOOTH",
"209 652 OFFCURVE",
"39 594 OFFCURVE",
"39 475 CURVE SMOOTH",
"39 426 OFFCURVE",
"68 383 OFFCURVE",
"101 349 CURVE",
"67 287 OFFCURVE",
"35 218 OFFCURVE",
"35 145 CURVE SMOOTH",
"35 24 OFFCURVE",
"117 -40 OFFCURVE",
"234 -40 CURVE SMOOTH"
);
},
{
closed = 1;
nodes = (
"177 -8 OFFCURVE",
"95 32 OFFCURVE",
"95 133 CURVE SMOOTH",
"95 192 OFFCURVE",
"122 256 OFFCURVE",
"150 307 CURVE",
"272 216 OFFCURVE",
"453 162 OFFCURVE",
"603 156 CURVE",
"513 65 OFFCURVE",
"400 -8 OFFCURVE",
"267 -8 CURVE SMOOTH"
);
},
{
closed = 1;
nodes = (
"110 410 OFFCURVE",
"97 438 OFFCURVE",
"97 466 CURVE SMOOTH",
"97 562 OFFCURVE",
"222 618 OFFCURVE",
"299 638 CURVE SMOOTH",
"341 649 OFFCURVE",
"383 655 OFFCURVE",
"425 657 CURVE",
"301 598 OFFCURVE",
"197 502 OFFCURVE",
"124 387 CURVE"
);
},
{
closed = 1;
nodes = (
"474 180 OFFCURVE",
"273 229 OFFCURVE",
"166 334 CURVE",
"252 471 OFFCURVE",
"396 590 OFFCURVE",
"545 653 CURVE",
"636 643 OFFCURVE",
"795 633 OFFCURVE",
"795 509 CURVE SMOOTH",
"795 402 OFFCURVE",
"691 250 OFFCURVE",
"620 173 CURVE"
);
},
{
closed = 1;
nodes = (
"349 279 OFFCURVE",
"352 279 OFFCURVE",
"354 280 CURVE SMOOTH",
"374 287 OFFCURVE",
"391 295 OFFCURVE",
"412 298 CURVE SMOOTH",
"425 300 OFFCURVE",
"488 308 OFFCURVE",
"496 314 CURVE SMOOTH",
"499 316 OFFCURVE",
"504 319 OFFCURVE",
"504 323 CURVE SMOOTH",
"504 328 OFFCURVE",
"477 339 OFFCURVE",
"471 344 CURVE SMOOTH",
"461 354 OFFCURVE",
"458 364 OFFCURVE",
"452 375 CURVE SMOOTH",
"450 379 OFFCURVE",
"449 381 OFFCURVE",
"445 381 CURVE SMOOTH",
"424 381 OFFCURVE",
"341 306 OFFCURVE",
"341 285 CURVE SMOOTH",
"341 281 OFFCURVE",
"343 279 OFFCURVE",
"347 279 CURVE SMOOTH"
);
}
);
width = 760;
}
);
note = O;
unicode = 004F;
},
{
glyphname = Oslash;
lastChange = "2022-02-17 03:35:41 +0000";
layers = (
{
layerId = "9E0C627C-9F9A-47B5-8A8C-706F30D5AE4A";
paths = (
{
closed = 1;
nodes = (
"302 -40 OFFCURVE",
"374 -20 OFFCURVE",
"437 5 CURVE SMOOTH",
"520 37 OFFCURVE",
"610 101 OFFCURVE",
"677 158 CURVE",
"702 160 OFFCURVE",
"730 162 OFFCURVE",
"755 169 CURVE SMOOTH",
"758 170 OFFCURVE",
"761 172 OFFCURVE",
"761 176 CURVE SMOOTH",
"761 182 OFFCURVE",
"757 183 OFFCURVE",
"752 183 CURVE SMOOTH",
"743 183 OFFCURVE",
"710 176 OFFCURVE",
"696 175 CURVE",
"776 247 OFFCURVE",
"880 362 OFFCURVE",
"880 477 CURVE SMOOTH",
"880 616 OFFCURVE",
"713 659 OFFCURVE",
"603 675 CURVE",
"658 693 OFFCURVE",
"715 704 OFFCURVE",
"772 704 CURVE SMOOTH",
"826 704 OFFCURVE",
"912 697 OFFCURVE",
"912 624 CURVE SMOOTH",
"912 594 OFFCURVE",
"892 577 OFFCURVE",
"892 571 CURVE SMOOTH",
"892 567 OFFCURVE",
"895 563 OFFCURVE",
"899 563 CURVE SMOOTH",
"915 563 OFFCURVE",
"927 610 OFFCURVE",
"927 624 CURVE SMOOTH",
"927 676 OFFCURVE",
"886 705 OFFCURVE",
"840 713 CURVE SMOOTH",
"801 720 OFFCURVE",
"760 723 OFFCURVE",
"720 723 CURVE SMOOTH",
"644 723 OFFCURVE",
"567 711 OFFCURVE",
"495 686 CURVE",
"463 686 LINE SMOOTH",
"409 686 OFFCURVE",
"356 681 OFFCURVE",
"303 671 CURVE SMOOTH",
"209 652 OFFCURVE",
"39 594 OFFCURVE",
"39 475 CURVE SMOOTH",
"39 426 OFFCURVE",
"68 383 OFFCURVE",
"101 349 CURVE",
"67 287 OFFCURVE",
"35 218 OFFCURVE",
"35 145 CURVE SMOOTH",
"35 24 OFFCURVE",
"117 -40 OFFCURVE",
"234 -40 CURVE SMOOTH"
);
},
{
closed = 1;
nodes = (
"177 -8 OFFCURVE",
"95 32 OFFCURVE",
"95 133 CURVE SMOOTH",
"95 192 OFFCURVE",
"122 256 OFFCURVE",
"150 307 CURVE",
"272 216 OFFCURVE",
"453 162 OFFCURVE",
"603 156 CURVE",
"513 65 OFFCURVE",
"400 -8 OFFCURVE",
"267 -8 CURVE SMOOTH"
);
},
{
closed = 1;
nodes = (
"349 279 OFFCURVE",
"352 279 OFFCURVE",
"354 280 CURVE SMOOTH",
"374 287 OFFCURVE",
"391 295 OFFCURVE",
"412 298 CURVE SMOOTH",
"425 300 OFFCURVE",
"488 308 OFFCURVE",
"496 314 CURVE SMOOTH",
"499 316 OFFCURVE",
"504 319 OFFCURVE",
"504 323 CURVE SMOOTH",
"504 328 OFFCURVE",
"477 339 OFFCURVE",
"471 344 CURVE SMOOTH",
"461 354 OFFCURVE",
"458 364 OFFCURVE",
"452 375 CURVE SMOOTH",
"450 379 OFFCURVE",
"449 381 OFFCURVE",
"445 381 CURVE SMOOTH",
"424 381 OFFCURVE",
"341 306 OFFCURVE",
"341 285 CURVE SMOOTH",
"341 281 OFFCURVE",
"343 279 OFFCURVE",
"347 279 CURVE SMOOTH"
);
},
{
closed = 1;
nodes = (
"110 410 OFFCURVE",
"97 438 OFFCURVE",
"97 466 CURVE SMOOTH",
"97 562 OFFCURVE",
"222 618 OFFCURVE",
"299 638 CURVE SMOOTH",
"341 649 OFFCURVE",
"383 655 OFFCURVE",
"425 657 CURVE",
"301 598 OFFCURVE",
"197 502 OFFCURVE",
"124 387 CURVE"
);
},
{
closed = 1;
nodes = (
"474 180 OFFCURVE",
"273 229 OFFCURVE",
"166 334 CURVE",
"252 471 OFFCURVE",
"396 590 OFFCURVE",
"545 653 CURVE",
"636 643 OFFCURVE",
"795 633 OFFCURVE",
"795 509 CURVE SMOOTH",
"795 402 OFFCURVE",
"691 250 OFFCURVE",
"620 173 CURVE"
);
}
);
width = 760;
}
);
note = Oslash;
unicode = 00D8;
},
{
glyphname = OE;
lastChange = "2022-02-17 03:35:41 +0000";
layers = (
{
layerId = "9E0C627C-9F9A-47B5-8A8C-706F30D5AE4A";
paths = (
{
closed = 1;
nodes = (
"1207 -103 OFFCURVE",
"1218 -53 OFFCURVE",
"1218 -36 CURVE SMOOTH",
"1218 49 OFFCURVE",
"1059 51 OFFCURVE",
"991 51 CURVE SMOOTH",
"829 51 OFFCURVE",
"668 16 OFFCURVE",
"506 16 CURVE SMOOTH",
"492 16 OFFCURVE",
"479 17 OFFCURVE",
"466 17 CURVE",
"591 75 OFFCURVE",
"740 197 OFFCURVE",
"818 310 CURVE",
"851 310 LINE SMOOTH",
"905 310 OFFCURVE",
"959 313 OFFCURVE",
"1013 313 CURVE SMOOTH",
"1028 313 OFFCURVE",
"1074 313 OFFCURVE",
"1074 290 CURVE SMOOTH",
"1074 275 OFFCURVE",
"1058 275 OFFCURVE",
"1058 268 CURVE SMOOTH",
"1058 267 OFFCURVE",
"1059 266 OFFCURVE",
"1061 266 CURVE SMOOTH",
"1063 266 OFFCURVE",
"1065 267 OFFCURVE",
"1067 268 CURVE SMOOTH",
"1091 279 OFFCURVE",
"1122 300 OFFCURVE",
"1122 330 CURVE SMOOTH",
"1122 369 OFFCURVE",
"1075 373 OFFCURVE",
"1046 373 CURVE SMOOTH",
"969 373 OFFCURVE",
"903 339 OFFCURVE",
"829 326 CURVE",
"857 370 OFFCURVE",
"880 424 OFFCURVE",
"880 477 CURVE SMOOTH",
"880 538 OFFCURVE",
"848 583 OFFCURVE",
"797 614 CURVE",
"904 594 OFFCURVE",
"1013 574 OFFCURVE",
"1118 543 CURVE SMOOTH",
"1144 535 OFFCURVE",
"1172 529 OFFCURVE",
"1200 529 CURVE SMOOTH",
"1247 529 OFFCURVE",
"1262 544 OFFCURVE",
"1296 569 CURVE SMOOTH",
"1300 572 OFFCURVE",
"1303 575 OFFCURVE",
"1303 580 CURVE SMOOTH",
"1303 582 OFFCURVE",
"1303 583 OFFCURVE",
"1301 583 CURVE SMOOTH",
"1297 583 OFFCURVE",
"1288 575 OFFCURVE",
"1269 575 CURVE SMOOTH",
"1260 575 LINE SMOOTH",
"1239 577 OFFCURVE",
"1216 584 OFFCURVE",
"1195 589 CURVE SMOOTH",
"1170 595 OFFCURVE",
"1145 601 OFFCURVE",
"1120 606 CURVE SMOOTH",
"976 634 OFFCURVE",
"832 659 OFFCURVE",
"688 682 CURVE SMOOTH",
"668 685 OFFCURVE",
"647 687 OFFCURVE",
"627 689 CURVE",
"635 694 OFFCURVE",
"666 712 OFFCURVE",
"666 723 CURVE SMOOTH",
"666 730 OFFCURVE",
"655 730 OFFCURVE",
"651 730 CURVE SMOOTH",
"619 730 OFFCURVE",
"555 708 OFFCURVE",
"525 697 CURVE",
"505 698 OFFCURVE",
"485 698 OFFCURVE",
"465 698 CURVE SMOOTH",
"367 698 OFFCURVE",
"267 690 OFFCURVE",
"171 668 CURVE SMOOTH",
"30 636 OFFCURVE",
"-101 545 OFFCURVE",
"-103 391 CURVE SMOOTH",
"-103 386 LINE SMOOTH",
"-104 332 OFFCURVE",
"-74 291 OFFCURVE",
"-25 270 CURVE SMOOTH",
"-12 264 OFFCURVE",
"3 260 OFFCURVE",
"18 260 CURVE SMOOTH",
"21 260 OFFCURVE",
"31 261 OFFCURVE",
"31 265 CURVE SMOOTH",
"31 269 OFFCURVE",
"26 269 OFFCURVE",
"24 269 CURVE SMOOTH",
"-43 269 OFFCURVE",
"-51 357 OFFCURVE",
"-51 406 CURVE SMOOTH",
"-51 610 OFFCURVE",
"197 672 OFFCURVE",
"361 672 CURVE SMOOTH",
"390 672 OFFCURVE",
"420 671 OFFCURVE",
"450 668 CURVE",
"269 591 OFFCURVE",
"132 440 OFFCURVE",
"58 259 CURVE SMOOTH",
"44 223 OFFCURVE",
"35 184 OFFCURVE",
"35 145 CURVE SMOOTH",
"35 24 OFFCURVE",
"117 -40 OFFCURVE",
"234 -40 CURVE SMOOTH",
"285 -40 OFFCURVE",
"337 -29 OFFCURVE",
"386 -13 CURVE",
"426 -26 OFFCURVE",
"471 -29 OFFCURVE",
"513 -29 CURVE SMOOTH",
"574 -29 OFFCURVE",
"634 -22 OFFCURVE",
"695 -18 CURVE SMOOTH",
"767 -13 OFFCURVE",
"840 -9 OFFCURVE",
"913 -9 CURVE SMOOTH",
"960 -9 OFFCURVE",
"1008 -11 OFFCURVE",
"1055 -15 CURVE SMOOTH",
"1086 -18 OFFCURVE",
"1191 -18 OFFCURVE",
"1191 -66 CURVE SMOOTH",
"1191 -79 OFFCURVE",
"1182 -96 OFFCURVE",
"1182 -100 CURVE SMOOTH",
"1182 -102 OFFCURVE",
"1184 -103 OFFCURVE",
"1185 -103 CURVE SMOOTH"
);
},
{
closed = 1;
nodes = (
"177 -8 OFFCURVE",
"95 32 OFFCURVE",
"95 133 CURVE SMOOTH",
"95 171 OFFCURVE",
"106 209 OFFCURVE",
"120 244 CURVE SMOOTH",
"192 422 OFFCURVE",
"371 579 OFFCURVE",
"545 653 CURVE",
"636 643 OFFCURVE",
"795 633 OFFCURVE",
"795 509 CURVE SMOOTH",
"795 474 OFFCURVE",
"784 438 OFFCURVE",
"771 406 CURVE SMOOTH",
"712 257 OFFCURVE",
"564 83 OFFCURVE",
"414 22 CURVE",
"372 29 OFFCURVE",
"325 40 OFFCURVE",
"309 84 CURVE",
"307 87 OFFCURVE",
"306 92 OFFCURVE",
"302 92 CURVE SMOOTH",
"295 92 OFFCURVE",
"294 85 OFFCURVE",
"294 80 CURVE SMOOTH",
"294 75 OFFCURVE",
"295 72 OFFCURVE",
"297 67 CURVE SMOOTH",
"306 39 OFFCURVE",
"325 17 OFFCURVE",
"350 2 CURVE",
"323 -4 OFFCURVE",
"295 -8 OFFCURVE",
"267 -8 CURVE SMOOTH"
);
}
);
width = 1251;
}
);
note = OE;
unicode = 0152;
},
{
glyphname = P;
lastChange = "2022-02-17 03:35:41 +0000";
layers = (
{
layerId = "9E0C627C-9F9A-47B5-8A8C-706F30D5AE4A";
paths = (
{
closed = 1;
nodes = (
"156 -85 OFFCURVE",
"222 -50 OFFCURVE",
"280 1 CURVE SMOOTH",
"380 90 OFFCURVE",
"449 217 OFFCURVE",
"505 337 CURVE SMOOTH",
"546 425 OFFCURVE",
"615 584 OFFCURVE",
"679 653 CURVE",
"784 613 OFFCURVE",
"938 532 OFFCURVE",
"938 401 CURVE SMOOTH",
"938 272 OFFCURVE",
"732 205 OFFCURVE",
"627 205 CURVE SMOOTH",
"605 205 OFFCURVE",
"584 211 OFFCURVE",
"562 211 CURVE SMOOTH",
"559 211 OFFCURVE",
"543 211 OFFCURVE",
"543 203 CURVE SMOOTH",
"543 190 OFFCURVE",
"602 189 OFFCURVE",
"612 189 CURVE SMOOTH",
"736 189 OFFCURVE",
"1011 262 OFFCURVE",
"1011 420 CURVE SMOOTH",
"1011 561 OFFCURVE",
"833 650 OFFCURVE",
"721 692 CURVE",
"761 724 OFFCURVE",
"809 742 OFFCURVE",
"861 742 CURVE SMOOTH",
"896 742 OFFCURVE",
"972 734 OFFCURVE",
"972 686 CURVE SMOOTH",
"972 677 OFFCURVE",
"968 670 OFFCURVE",
"968 662 CURVE SMOOTH",
"968 661 OFFCURVE",
"968 659 OFFCURVE",
"970 659 CURVE SMOOTH",
"980 659 OFFCURVE",
"990 701 OFFCURVE",
"990 710 CURVE SMOOTH",
"990 757 OFFCURVE",
"932 765 OFFCURVE",
"897 765 CURVE SMOOTH",
"825 765 OFFCURVE",
"759 740 OFFCURVE",
"701 699 CURVE",
"604 732 OFFCURVE",
"480 760 OFFCURVE",
"378 760 CURVE SMOOTH",
"188 760 OFFCURVE",
"22 673 OFFCURVE",
"2 469 CURVE SMOOTH",
"1 463 OFFCURVE",
"1 458 OFFCURVE",
"1 452 CURVE SMOOTH",
"1 394 OFFCURVE",
"29 340 OFFCURVE",
"73 302 CURVE SMOOTH",
"85 292 OFFCURVE",
"114 274 OFFCURVE",
"130 274 CURVE SMOOTH",
"132 274 OFFCURVE",
"138 274 OFFCURVE",
"138 278 CURVE SMOOTH",
"138 282 OFFCURVE",
"133 283 OFFCURVE",
"130 284 CURVE SMOOTH",
"119 288 OFFCURVE",
"110 292 OFFCURVE",
"101 298 CURVE SMOOTH",
"50 334 OFFCURVE",
"46 413 OFFCURVE",
"46 469 CURVE SMOOTH",
"46 652 OFFCURVE",
"160 723 OFFCURVE",
"332 723 CURVE SMOOTH",
"434 723 OFFCURVE",
"558 696 OFFCURVE",
"655 662 CURVE",
"631 640 OFFCURVE",
"608 616 OFFCURVE",
"588 591 CURVE SMOOTH",
"459 431 OFFCURVE",
"383 237 OFFCURVE",
"266 69 CURVE SMOOTH",
"227 14 OFFCURVE",
"154 -67 OFFCURVE",
"82 -67 CURVE SMOOTH",
"54 -67 OFFCURVE",
"9 -57 OFFCURVE",
"9 -22 CURVE SMOOTH",
"9 2 OFFCURVE",
"27 19 OFFCURVE",
"27 26 CURVE SMOOTH",
"27 30 OFFCURVE",
"23 31 OFFCURVE",
"20 31 CURVE SMOOTH",
"-3 31 OFFCURVE",
"-15 1 OFFCURVE",
"-15 -18 CURVE SMOOTH",
"-15 -67 OFFCURVE",
"37 -85 OFFCURVE",
"78 -85 CURVE SMOOTH"
);
},
{
closed = 1;
nodes = (
"309 196 OFFCURVE",
"320 214 OFFCURVE",
"322 219 CURVE SMOOTH",
"355 288 OFFCURVE",
"393 369 OFFCURVE",
"393 447 CURVE SMOOTH",
"393 474 OFFCURVE",
"389 518 OFFCURVE",
"353 518 CURVE SMOOTH",
"323 518 OFFCURVE",
"300 490 OFFCURVE",
"288 465 CURVE SMOOTH",
"287 463 OFFCURVE",
"286 461 OFFCURVE",
"286 459 CURVE SMOOTH",
"286 458 OFFCURVE",
"287 456 OFFCURVE",
"289 456 CURVE SMOOTH",
"295 456 OFFCURVE",
"296 471 OFFCURVE",
"310 471 CURVE SMOOTH",
"333 471 OFFCURVE",
"333 426 OFFCURVE",
"333 411 CURVE SMOOTH",
"333 349 OFFCURVE",
"321 283 OFFCURVE",
"305 223 CURVE",
"304 216 OFFCURVE",
"301 209 OFFCURVE",
"301 201 CURVE SMOOTH",
"301 200 OFFCURVE",
"301 196 OFFCURVE",
"304 196 CURVE SMOOTH"
);
}
);
width = 884;
}
);
note = P;
unicode = 0050;
},
{
glyphname = Thorn;
lastChange = "2022-02-17 03:35:41 +0000";
layers = (
{
layerId = "9E0C627C-9F9A-47B5-8A8C-706F30D5AE4A";
paths = (
{
closed = 1;
nodes = (
"112 -218 OFFCURVE",
"178 -183 OFFCURVE",
"231 -127 CURVE SMOOTH",
"399 50 OFFCURVE",
"460 275 OFFCURVE",
"584 466 CURVE",
"647 438 OFFCURVE",
"785 398 OFFCURVE",
"785 273 CURVE SMOOTH",
"785 149 OFFCURVE",
"606 85 OFFCURVE",
"515 85 CURVE SMOOTH",
"496 85 OFFCURVE",
"478 91 OFFCURVE",
"458 91 CURVE SMOOTH",
"456 91 OFFCURVE",
"442 91 OFFCURVE",
"442 83 CURVE SMOOTH",
"442 71 OFFCURVE",
"493 70 OFFCURVE",
"502 70 CURVE SMOOTH",
"609 70 OFFCURVE",
"848 140 OFFCURVE",
"848 291 CURVE SMOOTH",
"848 426 OFFCURVE",
"682 481 OFFCURVE",
"609 508 CURVE",
"713 692 OFFCURVE",
"843 745 OFFCURVE",
"895 745 CURVE SMOOTH",
"930 745 OFFCURVE",
"972 734 OFFCURVE",
"972 664 CURVE SMOOTH",
"972 655 OFFCURVE",
"968 648 OFFCURVE",
"968 640 CURVE SMOOTH",
"968 639 OFFCURVE",
"968 637 OFFCURVE",
"970 637 CURVE SMOOTH",
"980 637 OFFCURVE",
"1006 660 OFFCURVE",
"1006 697 CURVE SMOOTH",
"1006 744 OFFCURVE",
"955 765 OFFCURVE",
"897 765 CURVE SMOOTH",
"825 765 OFFCURVE",
"676 719 OFFCURVE",
"554 526 CURVE",
"481 549 OFFCURVE",
"407 561 OFFCURVE",
"338 561 CURVE SMOOTH",
"162 561 OFFCURVE",
"22 483 OFFCURVE",
"22 321 CURVE SMOOTH",
"22 310 OFFCURVE",
"23 299 OFFCURVE",
"24 287 CURVE SMOOTH",
"24 281 OFFCURVE",
"25 276 OFFCURVE",
"26 270 CURVE SMOOTH",
"32 244 OFFCURVE",
"41 233 OFFCURVE",
"47 233 CURVE SMOOTH",
"52 233 OFFCURVE",
"56 240 OFFCURVE",
"56 254 CURVE SMOOTH",
"56 261 OFFCURVE",
"55 269 OFFCURVE",
"53 279 CURVE SMOOTH",
"49 299 OFFCURVE",
"47 317 OFFCURVE",
"47 335 CURVE SMOOTH",
"47 463 OFFCURVE",
"157 518 OFFCURVE",
"304 518 CURVE SMOOTH",
"373 518 OFFCURVE",
"449 506 OFFCURVE",
"527 484 CURVE",
"474 392 OFFCURVE",
"377 195 OFFCURVE",
"218 -62 CURVE SMOOTH",
"183 -119 OFFCURVE",
"110 -200 OFFCURVE",
"38 -200 CURVE SMOOTH",
"10 -200 OFFCURVE",
"-35 -190 OFFCURVE",
"-35 -155 CURVE SMOOTH",
"-35 -131 OFFCURVE",
"-17 -114 OFFCURVE",
"-17 -107 CURVE SMOOTH",
"-17 -103 OFFCURVE",
"-21 -102 OFFCURVE",
"-24 -102 CURVE SMOOTH",
"-47 -102 OFFCURVE",
"-59 -132 OFFCURVE",
"-59 -151 CURVE SMOOTH",
"-59 -200 OFFCURVE",
"-7 -218 OFFCURVE",
"34 -218 CURVE SMOOTH"
);
}
);
width = 884;
}
);
unicode = 00DE;
},
{
glyphname = Q;
lastChange = "2022-02-17 03:35:41 +0000";
layers = (
{
layerId = "9E0C627C-9F9A-47B5-8A8C-706F30D5AE4A";
paths = (
{
closed = 1;
nodes = (
"983 -258 OFFCURVE",
"1074 -236 OFFCURVE",
"1133 -185 CURVE SMOOTH",
"1161 -161 OFFCURVE",
"1182 -128 OFFCURVE",
"1182 -90 CURVE SMOOTH",
"1182 -57 OFFCURVE",
"1161 -16 OFFCURVE",
"1123 -16 CURVE SMOOTH",
"1120 -16 OFFCURVE",
"1109 -19 OFFCURVE",
"1109 -23 CURVE SMOOTH",
"1109 -24 OFFCURVE",
"1110 -25 OFFCURVE",
"1110 -25 CURVE",
"1138 -36 OFFCURVE",
"1147 -60 OFFCURVE",
"1147 -89 CURVE SMOOTH",
"1147 -184 OFFCURVE",
"1052 -225 OFFCURVE",
"970 -225 CURVE SMOOTH",
"799 -225 OFFCURVE",
"587 -94 OFFCURVE",
"456 6 CURVE",
"611 68 OFFCURVE",
"880 296 OFFCURVE",
"880 477 CURVE SMOOTH",
"880 617 OFFCURVE",
"712 659 OFFCURVE",
"601 675 CURVE",
"656 693 OFFCURVE",
"713 704 OFFCURVE",
"771 704 CURVE SMOOTH",
"793 704 OFFCURVE",
"815 702 OFFCURVE",
"837 699 CURVE",
"840 698 OFFCURVE",
"842 698 OFFCURVE",
"845 698 CURVE SMOOTH",
"847 698 OFFCURVE",
"862 699 OFFCURVE",
"862 704 CURVE SMOOTH",
"862 710 OFFCURVE",
"841 713 OFFCURVE",
"840 713 CURVE SMOOTH",
"801 721 OFFCURVE",
"760 723 OFFCURVE",
"721 723 CURVE SMOOTH",
"644 723 OFFCURVE",
"568 711 OFFCURVE",
"496 686 CURVE",
"470 687 OFFCURVE",
"443 688 OFFCURVE",
"417 688 CURVE SMOOTH",
"271 688 OFFCURVE",
"31 658 OFFCURVE",
"31 464 CURVE SMOOTH",
"31 408 OFFCURVE",
"51 352 OFFCURVE",
"77 303 CURVE",
"54 254 OFFCURVE",
"37 207 OFFCURVE",
"37 152 CURVE SMOOTH",
"37 26 OFFCURVE",
"127 -40 OFFCURVE",
"247 -40 CURVE SMOOTH",
"289 -40 OFFCURVE",
"330 -33 OFFCURVE",
"370 -22 CURVE",
"511 -128 OFFCURVE",
"726 -258 OFFCURVE",
"906 -258 CURVE SMOOTH"
);
},
{
closed = 1;
nodes = (
"171 -9 OFFCURVE",
"94 30 OFFCURVE",
"94 131 CURVE SMOOTH",
"94 168 OFFCURVE",
"103 204 OFFCURVE",
"116 239 CURVE",
"177 149 OFFCURVE",
"257 67 OFFCURVE",
"342 0 CURVE",
"316 -6 OFFCURVE",
"289 -9 OFFCURVE",
"262 -9 CURVE SMOOTH"
);
},
{
closed = 1;
nodes = (
"103 413 OFFCURVE",
"91 451 OFFCURVE",
"91 489 CURVE SMOOTH",
"91 644 OFFCURVE",
"302 661 OFFCURVE",
"415 660 CURVE SMOOTH",
"431 660 LINE",
"302 600 OFFCURVE",
"194 500 OFFCURVE",
"119 379 CURVE"
);
},
{
closed = 1;
nodes = (
"328 107 OFFCURVE",
"222 210 OFFCURVE",
"153 317 CURVE",
"237 463 OFFCURVE",
"389 589 OFFCURVE",
"543 654 CURVE",
"640 643 OFFCURVE",
"804 627 OFFCURVE",
"804 496 CURVE SMOOTH",
"804 462 OFFCURVE",
"794 428 OFFCURVE",
"781 396 CURVE SMOOTH",
"725 253 OFFCURVE",
"567 91 OFFCURVE",
"428 28 CURVE"
);
},
{
closed = 1;
nodes = (
"349 279 OFFCURVE",
"352 279 OFFCURVE",
"354 280 CURVE SMOOTH",
"374 287 OFFCURVE",
"391 295 OFFCURVE",
"412 298 CURVE SMOOTH",
"425 300 OFFCURVE",
"488 308 OFFCURVE",
"496 314 CURVE SMOOTH",
"499 316 OFFCURVE",
"504 319 OFFCURVE",
"504 323 CURVE SMOOTH",
"504 328 OFFCURVE",
"477 339 OFFCURVE",
"471 344 CURVE SMOOTH",
"461 354 OFFCURVE",
"458 364 OFFCURVE",
"452 375 CURVE SMOOTH",
"450 379 OFFCURVE",
"449 381 OFFCURVE",
"445 381 CURVE SMOOTH",
"424 381 OFFCURVE",
"341 306 OFFCURVE",
"341 285 CURVE SMOOTH",
"341 281 OFFCURVE",
"343 279 OFFCURVE",
"347 279 CURVE SMOOTH"
);
}
);
width = 760;
}
);
note = Q;
unicode = 0051;
},
{
glyphname = R;
lastChange = "2022-02-17 03:35:41 +0000";
layers = (
{
layerId = "9E0C627C-9F9A-47B5-8A8C-706F30D5AE4A";
paths = (
{
closed = 1;
nodes = (
"1078 -188 OFFCURVE",
"1173 -165 OFFCURVE",
"1173 -100 CURVE SMOOTH",
"1173 -59 OFFCURVE",
"1137 -21 OFFCURVE",
"1102 -5 CURVE SMOOTH",
"1100 -4 OFFCURVE",
"1099 -4 OFFCURVE",
"1097 -4 CURVE SMOOTH",
"1095 -4 OFFCURVE",
"1088 -5 OFFCURVE",
"1088 -8 CURVE SMOOTH",
"1088 -9 OFFCURVE",
"1089 -9 OFFCURVE",
"1090 -10 CURVE SMOOTH",
"1115 -29 OFFCURVE",
"1128 -62 OFFCURVE",
"1128 -93 CURVE SMOOTH",
"1128 -135 OFFCURVE",
"1104 -160 OFFCURVE",
"1062 -160 CURVE SMOOTH",
"904 -160 OFFCURVE",
"628 138 OFFCURVE",
"528 245 CURVE",
"647 236 OFFCURVE",
"925 332 OFFCURVE",
"925 478 CURVE SMOOTH",
"925 580 OFFCURVE",
"798 655 OFFCURVE",
"715 687 CURVE",
"757 722 OFFCURVE",
"806 742 OFFCURVE",
"861 742 CURVE SMOOTH",
"896 742 OFFCURVE",
"972 733 OFFCURVE",
"972 686 CURVE SMOOTH",
"972 677 OFFCURVE",
"968 670 OFFCURVE",
"968 662 CURVE SMOOTH",
"968 661 OFFCURVE",
"968 659 OFFCURVE",
"970 659 CURVE SMOOTH",
"980 659 OFFCURVE",
"991 701 OFFCURVE",
"991 710 CURVE SMOOTH",
"991 757 OFFCURVE",
"933 765 OFFCURVE",
"897 765 CURVE SMOOTH",
"823 765 OFFCURVE",
"755 738 OFFCURVE",
"695 695 CURVE",
"612 724 OFFCURVE",
"518 740 OFFCURVE",
"430 740 CURVE SMOOTH",
"236 740 OFFCURVE",
"31 655 OFFCURVE",
"6 441 CURVE SMOOTH",
"5 435 OFFCURVE",
"5 429 OFFCURVE",
"5 423 CURVE SMOOTH",
"5 373 OFFCURVE",
"29 327 OFFCURVE",
"67 296 CURVE SMOOTH",
"78 288 OFFCURVE",
"102 275 OFFCURVE",
"115 275 CURVE SMOOTH",
"118 275 OFFCURVE",
"125 275 OFFCURVE",
"125 279 CURVE SMOOTH",
"125 282 OFFCURVE",
"120 284 OFFCURVE",
"118 284 CURVE",
"109 287 OFFCURVE",
"101 289 OFFCURVE",
"93 294 CURVE SMOOTH",
"49 321 OFFCURVE",
"45 388 OFFCURVE",
"45 434 CURVE SMOOTH",
"45 631 OFFCURVE",
"222 705 OFFCURVE",
"394 705 CURVE SMOOTH",
"481 705 OFFCURVE",
"569 689 OFFCURVE",
"649 657 CURVE",
"560 573 OFFCURVE",
"490 454 OFFCURVE",
"431 348 CURVE",
"424 355 OFFCURVE",
"415 363 OFFCURVE",
"407 370 CURVE",
"421 409 OFFCURVE",
"433 451 OFFCURVE",
"433 491 CURVE SMOOTH",
"433 496 OFFCURVE",
"432 502 OFFCURVE",
"432 507 CURVE SMOOTH",
"430 526 OFFCURVE",
"424 557 OFFCURVE",
"400 557 CURVE SMOOTH",
"377 557 OFFCURVE",
"361 534 OFFCURVE",
"354 514 CURVE SMOOTH",
"353 512 OFFCURVE",
"353 511 OFFCURVE",
"353 509 CURVE SMOOTH",
"353 508 OFFCURVE",
"353 507 OFFCURVE",
"355 507 CURVE SMOOTH",
"359 508 OFFCURVE",
"359 519 OFFCURVE",
"370 520 CURVE SMOOTH",
"386 521 OFFCURVE",
"389 488 OFFCURVE",
"390 477 CURVE SMOOTH",
"391 466 OFFCURVE",
"391 454 OFFCURVE",
"391 443 CURVE SMOOTH",
"391 423 OFFCURVE",
"390 404 OFFCURVE",
"388 384 CURVE",
"363 401 OFFCURVE",
"336 414 OFFCURVE",
"308 414 CURVE SMOOTH",
"252 414 OFFCURVE",
"222 364 OFFCURVE",
"222 313 CURVE SMOOTH",
"222 303 OFFCURVE",
"228 246 OFFCURVE",
"242 246 CURVE SMOOTH",
"244 246 OFFCURVE",
"245 249 OFFCURVE",
"245 251 CURVE SMOOTH",
"245 260 OFFCURVE",
"241 270 OFFCURVE",
"241 281 CURVE SMOOTH",
"241 302 OFFCURVE",
"249 380 OFFCURVE",
"279 380 CURVE SMOOTH",
"312 380 OFFCURVE",
"376 309 OFFCURVE",
"397 286 CURVE",
"342 186 OFFCURVE",
"213 -67 OFFCURVE",
"82 -67 CURVE SMOOTH",
"54 -67 OFFCURVE",
"9 -57 OFFCURVE",
"9 -22 CURVE SMOOTH",
"9 1 OFFCURVE",
"27 19 OFFCURVE",
"27 26 CURVE SMOOTH",
"27 30 OFFCURVE",
"23 31 OFFCURVE",
"20 31 CURVE SMOOTH",
"-3 31 OFFCURVE",
"-15 1 OFFCURVE",
"-15 -18 CURVE SMOOTH",
"-15 -67 OFFCURVE",
"37 -85 OFFCURVE",
"78 -85 CURVE SMOOTH",
"250 -85 OFFCURVE",
"376 92 OFFCURVE",
"451 228 CURVE",
"580 86 OFFCURVE",
"818 -188 OFFCURVE",
"1027 -188 CURVE SMOOTH"
);
},
{
closed = 1;
nodes = (
"484 292 LINE",
"534 394 OFFCURVE",
"601 563 OFFCURVE",
"673 646 CURVE",
"744 614 OFFCURVE",
"845 547 OFFCURVE",
"845 460 CURVE SMOOTH",
"845 345 OFFCURVE",
"649 260 OFFCURVE",
"552 260 CURVE SMOOTH",
"542 260 OFFCURVE",
"525 262 OFFCURVE",
"516 257 CURVE"
);
}
);
width = 744;
}
);
note = R;
unicode = 0052;
},
{
glyphname = S;
lastChange = "2022-02-17 03:35:41 +0000";
layers = (
{
layerId = "9E0C627C-9F9A-47B5-8A8C-706F30D5AE4A";
paths = (
{
closed = 1;
nodes = (
"614 -50 OFFCURVE",
"922 75 OFFCURVE",
"922 248 CURVE SMOOTH",
"922 408 OFFCURVE",
"667 407 OFFCURVE",
"567 478 CURVE SMOOTH",
"539 498 OFFCURVE",
"512 528 OFFCURVE",
"512 564 CURVE SMOOTH",
"512 601 OFFCURVE",
"539 631 OFFCURVE",
"568 651 CURVE",
"661 632 OFFCURVE",
"752 605 OFFCURVE",
"844 581 CURVE SMOOTH",
"868 575 OFFCURVE",
"893 567 OFFCURVE",
"918 567 CURVE SMOOTH",
"948 567 OFFCURVE",
"964 587 OFFCURVE",
"964 609 CURVE SMOOTH",
"964 617 OFFCURVE",
"962 625 OFFCURVE",
"957 633 CURVE SMOOTH",
"922 689 OFFCURVE",
"823 709 OFFCURVE",
"733 709 CURVE SMOOTH",
"680 709 OFFCURVE",
"631 702 OFFCURVE",
"600 691 CURVE",
"533 709 OFFCURVE",
"465 720 OFFCURVE",
"396 720 CURVE SMOOTH",
"290 720 OFFCURVE",
"121 694 OFFCURVE",
"121 556 CURVE SMOOTH",
"121 449 OFFCURVE",
"235 382 OFFCURVE",
"331 382 CURVE SMOOTH",
"342 382 OFFCURVE",
"402 385 OFFCURVE",
"402 398 CURVE SMOOTH",
"402 400 OFFCURVE",
"401 401 OFFCURVE",
"399 401 CURVE SMOOTH",
"395 401 OFFCURVE",
"390 400 OFFCURVE",
"385 400 CURVE SMOOTH",
"337 400 OFFCURVE",
"249 430 OFFCURVE",
"210 458 CURVE SMOOTH",
"175 484 OFFCURVE",
"143 529 OFFCURVE",
"143 574 CURVE SMOOTH",
"143 620 OFFCURVE",
"176 644 OFFCURVE",
"217 656 CURVE SMOOTH",
"264 669 OFFCURVE",
"315 673 OFFCURVE",
"364 673 CURVE SMOOTH",
"421 673 OFFCURVE",
"477 667 OFFCURVE",
"532 657 CURVE",
"491 629 OFFCURVE",
"454 585 OFFCURVE",
"454 533 CURVE SMOOTH",
"454 436 OFFCURVE",
"572 404 OFFCURVE",
"645 378 CURVE SMOOTH",
"776 331 OFFCURVE",
"841 294 OFFCURVE",
"841 229 CURVE SMOOTH",
"841 84 OFFCURVE",
"592 -24 OFFCURVE",
"409 -24 CURVE SMOOTH",
"314 -24 OFFCURVE",
"237 5 OFFCURVE",
"224 73 CURVE SMOOTH",
"223 79 OFFCURVE",
"222 85 OFFCURVE",
"222 91 CURVE SMOOTH",
"222 147 OFFCURVE",
"274 204 OFFCURVE",
"426 225 CURVE SMOOTH",
"449 228 OFFCURVE",
"486 232 OFFCURVE",
"525 232 CURVE SMOOTH",
"588 232 OFFCURVE",
"656 223 OFFCURVE",
"680 192 CURVE",
"681 190 OFFCURVE",
"683 188 OFFCURVE",
"686 188 CURVE SMOOTH",
"690 188 OFFCURVE",
"694 192 OFFCURVE",
"694 196 CURVE SMOOTH",
"694 197 OFFCURVE",
"693 199 OFFCURVE",
"692 200 CURVE",
"664 245 OFFCURVE",
"521 257 OFFCURVE",
"473 257 CURVE SMOOTH",
"253 257 OFFCURVE",
"159 167 OFFCURVE",
"159 85 CURVE SMOOTH",
"159 77 OFFCURVE",
"160 70 OFFCURVE",
"161 63 CURVE SMOOTH",
"177 -16 OFFCURVE",
"272 -50 OFFCURVE",
"389 -50 CURVE SMOOTH"
);
},
{
closed = 1;
nodes = (
"514 283 OFFCURVE",
"515 283 OFFCURVE",
"515 284 CURVE SMOOTH",
"515 290 OFFCURVE",
"502 290 OFFCURVE",
"502 305 CURVE SMOOTH",
"502 332 OFFCURVE",
"582 333 OFFCURVE",
"600 333 CURVE SMOOTH",
"617 333 OFFCURVE",
"634 330 OFFCURVE",
"650 330 CURVE SMOOTH",
"652 330 OFFCURVE",
"658 330 OFFCURVE",
"658 333 CURVE SMOOTH",
"658 337 OFFCURVE",
"645 343 OFFCURVE",
"641 345 CURVE",
"606 357 OFFCURVE",
"565 373 OFFCURVE",
"527 373 CURVE SMOOTH",
"505 373 OFFCURVE",
"466 366 OFFCURVE",
"466 337 CURVE SMOOTH",
"466 313 OFFCURVE",
"488 291 OFFCURVE",
"510 284 CURVE",
"511 283 OFFCURVE",
"512 283 OFFCURVE",
"513 283 CURVE SMOOTH"
);
},
{
closed = 1;
nodes = (
"892 607 OFFCURVE",
"875 609 OFFCURVE",
"852 614 CURVE SMOOTH",
"780 631 OFFCURVE",
"687 665 OFFCURVE",
"635 681 CURVE",
"667 690 OFFCURVE",
"698 694 OFFCURVE",
"730 694 CURVE SMOOTH",
"767 694 OFFCURVE",
"804 689 OFFCURVE",
"842 679 CURVE SMOOTH",
"886 667 OFFCURVE",
"930 636 OFFCURVE",
"930 619 CURVE SMOOTH",
"930 612 OFFCURVE",
"922 607 OFFCURVE",
"904 607 CURVE SMOOTH"
);
}
);
width = 900;
}
);
note = S;
unicode = 0053;
},
{
glyphname = Germandbls;
lastChange = "2022-02-17 03:35:41 +0000";
layers = (
{
layerId = "9E0C627C-9F9A-47B5-8A8C-706F30D5AE4A";
paths = (
{
closed = 1;
nodes = (
"-72 -141 OFFCURVE",
"-69 -141 OFFCURVE",
"-66 -139 CURVE SMOOTH",
"-36 -121 OFFCURVE",
"-12 -110 OFFCURVE",
"33 -100 CURVE SMOOTH",
"46 -97 OFFCURVE",
"58 -59 OFFCURVE",
"86 -8 CURVE SMOOTH",
"140 92 OFFCURVE",
"279 332 OFFCURVE",
"458 610 CURVE SMOOTH",
"478 642 OFFCURVE",
"519 655 OFFCURVE",
"590 655 CURVE SMOOTH",
"634 655 OFFCURVE",
"672 625 OFFCURVE",
"672 580 CURVE SMOOTH",
"672 453 OFFCURVE",
"484 379 OFFCURVE",
"355 335 CURVE SMOOTH",
"350 333 OFFCURVE",
"347 326 OFFCURVE",
"347 318 CURVE SMOOTH",
"347 302 OFFCURVE",
"356 280 OFFCURVE",
"369 278 CURVE SMOOTH",
"427 267 OFFCURVE",
"525 259 OFFCURVE",
"525 200 CURVE SMOOTH",
"525 115 OFFCURVE",
"387 -24 OFFCURVE",
"258 -24 CURVE SMOOTH",
"205 -24 OFFCURVE",
"193 12 OFFCURVE",
"183 12 CURVE SMOOTH",
"177 12 OFFCURVE",
"175 6 OFFCURVE",
"175 2 CURVE SMOOTH",
"175 -2 OFFCURVE",
"177 -6 OFFCURVE",
"179 -9 CURVE SMOOTH",
"201 -35 OFFCURVE",
"231 -44 OFFCURVE",
"264 -44 CURVE SMOOTH",
"450 -44 OFFCURVE",
"605 94 OFFCURVE",
"605 194 CURVE SMOOTH",
"605 298 OFFCURVE",
"472 285 OFFCURVE",
"428 296 CURVE SMOOTH",
"410 301 OFFCURVE",
"391 305 OFFCURVE",
"372 309 CURVE",
"396 320 OFFCURVE",
"420 329 OFFCURVE",
"462 345 CURVE SMOOTH",
"567 386 OFFCURVE",
"746 458 OFFCURVE",
"746 581 CURVE SMOOTH",
"746 672 OFFCURVE",
"668 686 OFFCURVE",
"606 686 CURVE SMOOTH",
"531 686 OFFCURVE",
"428 682 OFFCURVE",
"387 617 CURVE SMOOTH",
"235 375 OFFCURVE",
"139 187 OFFCURVE",
"4 -33 CURVE SMOOTH",
"-16 -65 OFFCURVE",
"-37 -93 OFFCURVE",
"-67 -116 CURVE SMOOTH",
"-72 -120 OFFCURVE",
"-82 -129 OFFCURVE",
"-82 -136 CURVE SMOOTH",
"-82 -140 OFFCURVE",
"-79 -141 OFFCURVE",
"-76 -141 CURVE SMOOTH"
);
},
{
closed = 1;
nodes = (
"134 240 OFFCURVE",
"145 258 OFFCURVE",
"147 263 CURVE SMOOTH",
"180 332 OFFCURVE",
"219 413 OFFCURVE",
"219 491 CURVE SMOOTH",
"219 518 OFFCURVE",
"214 562 OFFCURVE",
"178 562 CURVE SMOOTH",
"148 562 OFFCURVE",
"125 534 OFFCURVE",
"114 509 CURVE SMOOTH",
"113 507 OFFCURVE",
"112 505 OFFCURVE",
"112 503 CURVE SMOOTH",
"112 502 OFFCURVE",
"112 500 OFFCURVE",
"114 500 CURVE SMOOTH",
"121 500 OFFCURVE",
"121 515 OFFCURVE",
"136 515 CURVE SMOOTH",
"158 515 OFFCURVE",
"158 470 OFFCURVE",
"158 455 CURVE SMOOTH",
"158 393 OFFCURVE",
"146 327 OFFCURVE",
"131 267 CURVE SMOOTH",
"129 260 OFFCURVE",
"127 253 OFFCURVE",
"127 245 CURVE SMOOTH",
"127 244 OFFCURVE",
"127 240 OFFCURVE",
"129 240 CURVE SMOOTH"
);
}
);
width = 691;
}
);
unicode = 1E9E;
},
{
glyphname = Schwa;
lastChange = "2022-02-17 03:35:41 +0000";
layers = (
{
layerId = "9E0C627C-9F9A-47B5-8A8C-706F30D5AE4A";
paths = (
{
closed = 1;
nodes = (
"573 -41 OFFCURVE",
"846 261 OFFCURVE",
"846 517 CURVE SMOOTH",
"846 676 OFFCURVE",
"729 731 OFFCURVE",
"605 731 CURVE SMOOTH",
"487 731 OFFCURVE",
"313 686 OFFCURVE",
"226 558 CURVE SMOOTH",
"212 537 OFFCURVE",
"194 495 OFFCURVE",
"194 468 CURVE SMOOTH",
"194 463 OFFCURVE",
"196 454 OFFCURVE",
"201 454 CURVE SMOOTH",
"205 454 OFFCURVE",
"205 457 OFFCURVE",
"206 460 CURVE SMOOTH",
"211 481 OFFCURVE",
"245 529 OFFCURVE",
"258 546 CURVE SMOOTH",
"332 641 OFFCURVE",
"420 699 OFFCURVE",
"532 699 CURVE SMOOTH",
"670 699 OFFCURVE",
"776 638 OFFCURVE",
"770 482 CURVE SMOOTH",
"768 419 OFFCURVE",
"738 355 OFFCURVE",
"729 342 CURVE",
"652 388 OFFCURVE",
"558 410 OFFCURVE",
"466 410 CURVE SMOOTH",
"274 410 OFFCURVE",
"91 313 OFFCURVE",
"91 125 CURVE SMOOTH",
"91 30 OFFCURVE",
"177 -41 OFFCURVE",
"299 -41 CURVE SMOOTH"
);
},
{
closed = 1;
nodes = (
"349 142 OFFCURVE",
"352 142 OFFCURVE",
"354 143 CURVE SMOOTH",
"374 150 OFFCURVE",
"391 158 OFFCURVE",
"412 161 CURVE SMOOTH",
"425 163 OFFCURVE",
"488 171 OFFCURVE",
"496 177 CURVE SMOOTH",
"499 179 OFFCURVE",
"504 182 OFFCURVE",
"504 186 CURVE SMOOTH",
"504 191 OFFCURVE",
"477 202 OFFCURVE",
"471 207 CURVE SMOOTH",
"461 217 OFFCURVE",
"458 227 OFFCURVE",
"452 238 CURVE SMOOTH",
"450 242 OFFCURVE",
"449 244 OFFCURVE",
"445 244 CURVE SMOOTH",
"424 244 OFFCURVE",
"341 169 OFFCURVE",
"341 148 CURVE SMOOTH",
"341 144 OFFCURVE",
"343 142 OFFCURVE",
"347 142 CURVE SMOOTH"
);
},
{
closed = 1;
nodes = (
"212 -16 OFFCURVE",
"175 68 OFFCURVE",
"175 145 CURVE SMOOTH",
"175 283 OFFCURVE",
"327 369 OFFCURVE",
"495 369 CURVE SMOOTH",
"569 369 OFFCURVE",
"646 353 OFFCURVE",
"715 317 CURVE",
"647 173 OFFCURVE",
"513 -16 OFFCURVE",
"357 -16 CURVE SMOOTH"
);
}
);
width = 826;
}
);
unicode = 018F;
},
{
glyphname = T;
lastChange = "2022-02-17 03:35:41 +0000";
layers = (
{
layerId = "9E0C627C-9F9A-47B5-8A8C-706F30D5AE4A";
paths = (
{
closed = 1;
nodes = (
"465 -46 OFFCURVE",
"673 205 OFFCURVE",
"812 409 CURVE SMOOTH",
"861 481 OFFCURVE",
"905 557 OFFCURVE",
"953 629 CURVE",
"1021 611 OFFCURVE",
"1106 582 OFFCURVE",
"1174 582 CURVE SMOOTH",
"1229 582 OFFCURVE",
"1245 596 OFFCURVE",
"1288 622 CURVE SMOOTH",
"1291 624 OFFCURVE",
"1296 628 OFFCURVE",
"1296 633 CURVE SMOOTH",
"1296 635 OFFCURVE",
"1295 636 OFFCURVE",
"1293 636 CURVE SMOOTH",
"1287 636 OFFCURVE",
"1276 628 OFFCURVE",
"1256 628 CURVE SMOOTH",
"1204 628 OFFCURVE",
"1131 646 OFFCURVE",
"1080 659 CURVE SMOOTH",
"949 692 OFFCURVE",
"810 724 OFFCURVE",
"674 724 CURVE SMOOTH",
"499 724 OFFCURVE",
"197 668 OFFCURVE",
"119 488 CURVE SMOOTH",
"107 461 OFFCURVE",
"101 436 OFFCURVE",
"101 407 CURVE SMOOTH",
"101 402 LINE SMOOTH",
"99 329 OFFCURVE",
"173 276 OFFCURVE",
"243 276 CURVE SMOOTH",
"246 276 OFFCURVE",
"259 277 OFFCURVE",
"259 281 CURVE SMOOTH",
"259 285 OFFCURVE",
"252 285 OFFCURVE",
"250 285 CURVE SMOOTH",
"176 285 OFFCURVE",
"162 364 OFFCURVE",
"162 422 CURVE SMOOTH",
"162 625 OFFCURVE",
"429 690 OFFCURVE",
"590 690 CURVE SMOOTH",
"690 690 OFFCURVE",
"790 672 OFFCURVE",
"887 647 CURVE",
"885 646 OFFCURVE",
"884 644 OFFCURVE",
"883 642 CURVE SMOOTH",
"776 451 OFFCURVE",
"547 88 OFFCURVE",
"347 5 CURVE SMOOTH",
"314 -9 OFFCURVE",
"272 -15 OFFCURVE",
"236 -15 CURVE SMOOTH",
"143 -15 OFFCURVE",
"52 23 OFFCURVE",
"36 124 CURVE",
"36 132 LINE SMOOTH",
"36 162 OFFCURVE",
"57 175 OFFCURVE",
"57 182 CURVE SMOOTH",
"57 183 OFFCURVE",
"56 184 OFFCURVE",
"55 184 CURVE SMOOTH",
"52 184 OFFCURVE",
"49 182 OFFCURVE",
"48 181 CURVE SMOOTH",
"22 158 OFFCURVE",
"9 114 OFFCURVE",
"9 80 CURVE SMOOTH",
"9 -17 OFFCURVE",
"115 -46 OFFCURVE",
"195 -46 CURVE SMOOTH"
);
},
{
closed = 1;
nodes = (
"549 196 OFFCURVE",
"560 214 OFFCURVE",
"562 219 CURVE SMOOTH",
"595 288 OFFCURVE",
"633 369 OFFCURVE",
"633 447 CURVE SMOOTH",
"633 474 OFFCURVE",
"629 518 OFFCURVE",
"593 518 CURVE SMOOTH",
"563 518 OFFCURVE",
"540 490 OFFCURVE",
"528 465 CURVE SMOOTH",
"527 463 OFFCURVE",
"526 461 OFFCURVE",
"526 459 CURVE SMOOTH",
"526 458 OFFCURVE",
"527 456 OFFCURVE",
"529 456 CURVE SMOOTH",
"535 456 OFFCURVE",
"536 471 OFFCURVE",
"550 471 CURVE SMOOTH",
"573 471 OFFCURVE",
"573 426 OFFCURVE",
"573 411 CURVE SMOOTH",
"573 349 OFFCURVE",
"561 283 OFFCURVE",
"545 223 CURVE",
"544 216 OFFCURVE",
"541 209 OFFCURVE",
"541 201 CURVE SMOOTH",
"541 200 OFFCURVE",
"541 196 OFFCURVE",
"544 196 CURVE SMOOTH"
);
}
);
width = 826;
}
);
note = T;
unicode = 0054;
},
{
glyphname = U;
lastChange = "2022-02-17 03:35:41 +0000";
layers = (
{
layerId = "9E0C627C-9F9A-47B5-8A8C-706F30D5AE4A";
paths = (
{
closed = 1;
nodes = (
"345 -21 OFFCURVE",
"382 -11 OFFCURVE",
"414 5 CURVE SMOOTH",
"607 101 OFFCURVE",
"741 315 OFFCURVE",
"862 487 CURVE",
"867 487 OFFCURVE",
"872 489 OFFCURVE",
"877 489 CURVE SMOOTH",
"880 489 OFFCURVE",
"883 488 OFFCURVE",
"883 484 CURVE SMOOTH",
"883 477 OFFCURVE",
"875 465 OFFCURVE",
"871 459 CURVE SMOOTH",
"793 335 OFFCURVE",
"676 181 OFFCURVE",
"633 41 CURVE SMOOTH",
"631 35 OFFCURVE",
"624 8 OFFCURVE",
"624 2 CURVE SMOOTH",
"624 -10 OFFCURVE",
"674 -15 OFFCURVE",
"682 -15 CURVE SMOOTH",
"701 -15 OFFCURVE",
"716 -13 OFFCURVE",
"726 5 CURVE SMOOTH",
"731 15 OFFCURVE",
"735 24 OFFCURVE",
"742 33 CURVE SMOOTH",
"784 91 OFFCURVE",
"906 177 OFFCURVE",
"973 207 CURVE",
"972 211 OFFCURVE",
"970 215 OFFCURVE",
"966 215 CURVE SMOOTH",
"965 215 OFFCURVE",
"949 209 OFFCURVE",
"948 209 CURVE",
"896 188 OFFCURVE",
"850 157 OFFCURVE",
"804 125 CURVE SMOOTH",
"795 118 OFFCURVE",
"777 106 OFFCURVE",
"765 106 CURVE SMOOTH",
"757 106 OFFCURVE",
"755 112 OFFCURVE",
"755 119 CURVE SMOOTH",
"755 135 OFFCURVE",
"764 157 OFFCURVE",
"770 171 CURVE SMOOTH",
"830 312 OFFCURVE",
"900 450 OFFCURVE",
"989 575 CURVE SMOOTH",
"1008 602 OFFCURVE",
"1028 629 OFFCURVE",
"1050 655 CURVE SMOOTH",
"1062 670 OFFCURVE",
"1076 685 OFFCURVE",
"1089 700 CURVE SMOOTH",
"1090 701 OFFCURVE",
"1090 702 OFFCURVE",
"1090 703 CURVE SMOOTH",
"1088 714 OFFCURVE",
"1044 731 OFFCURVE",
"1034 731 CURVE SMOOTH",
"1011 731 OFFCURVE",
"973 668 OFFCURVE",
"959 650 CURVE SMOOTH",
"937 619 OFFCURVE",
"915 587 OFFCURVE",
"892 557 CURVE SMOOTH",
"798 434 OFFCURVE",
"508 32 OFFCURVE",
"343 32 CURVE SMOOTH",
"304 32 OFFCURVE",
"290 52 OFFCURVE",
"290 89 CURVE SMOOTH",
"290 140 OFFCURVE",
"317 214 OFFCURVE",
"337 261 CURVE SMOOTH",
"383 367 OFFCURVE",
"477 525 OFFCURVE",
"567 599 CURVE SMOOTH",
"569 601 OFFCURVE",
"573 604 OFFCURVE",
"573 607 CURVE SMOOTH",
"573 611 OFFCURVE",
"567 611 OFFCURVE",
"564 611 CURVE SMOOTH",
"559 611 OFFCURVE",
"553 609 OFFCURVE",
"548 607 CURVE SMOOTH",
"467 564 OFFCURVE",
"349 405 OFFCURVE",
"301 327 CURVE SMOOTH",
"277 288 OFFCURVE",
"254 247 OFFCURVE",
"237 204 CURVE SMOOTH",
"221 166 OFFCURVE",
"208 122 OFFCURVE",
"208 81 CURVE SMOOTH",
"208 13 OFFCURVE",
"242 -21 OFFCURVE",
"309 -21 CURVE SMOOTH"
);
},
{
closed = 1;
nodes = (
"215 234 OFFCURVE",
"222 245 OFFCURVE",
"224 249 CURVE SMOOTH",
"243 286 OFFCURVE",
"267 332 OFFCURVE",
"267 374 CURVE SMOOTH",
"267 396 OFFCURVE",
"261 424 OFFCURVE",
"233 424 CURVE SMOOTH",
"210 424 OFFCURVE",
"189 407 OFFCURVE",
"179 387 CURVE",
"178 383 LINE SMOOTH",
"178 382 OFFCURVE",
"179 381 OFFCURVE",
"180 381 CURVE SMOOTH",
"185 381 OFFCURVE",
"186 392 OFFCURVE",
"199 392 CURVE SMOOTH",
"220 392 OFFCURVE",
"221 351 OFFCURVE",
"221 336 CURVE SMOOTH",
"221 307 OFFCURVE",
"217 278 OFFCURVE",
"210 250 CURVE SMOOTH",
"209 246 OFFCURVE",
"208 242 OFFCURVE",
"208 238 CURVE SMOOTH",
"208 237 OFFCURVE",
"209 234 OFFCURVE",
"211 234 CURVE SMOOTH"
);
},
{
closed = 1;
nodes = (
"99 282 OFFCURVE",
"101 284 OFFCURVE",
"101 287 CURVE SMOOTH",
"101 294 OFFCURVE",
"58 323 OFFCURVE",
"58 390 CURVE SMOOTH",
"58 477 OFFCURVE",
"120 577 OFFCURVE",
"189 628 CURVE SMOOTH",
"240 665 OFFCURVE",
"298 680 OFFCURVE",
"360 680 CURVE SMOOTH",
"454 680 OFFCURVE",
"593 643 OFFCURVE",
"683 613 CURVE SMOOTH",
"700 607 OFFCURVE",
"718 603 OFFCURVE",
"737 603 CURVE SMOOTH",
"767 603 OFFCURVE",
"793 616 OFFCURVE",
"819 632 CURVE SMOOTH",
"823 634 OFFCURVE",
"827 638 OFFCURVE",
"827 643 CURVE SMOOTH",
"827 644 OFFCURVE",
"826 645 OFFCURVE",
"824 645 CURVE SMOOTH",
"818 645 OFFCURVE",
"810 639 OFFCURVE",
"798 639 CURVE SMOOTH",
"736 639 OFFCURVE",
"630 687 OFFCURVE",
"560 699 CURVE SMOOTH",
"520 705 OFFCURVE",
"480 708 OFFCURVE",
"440 708 CURVE SMOOTH",
"267 708 OFFCURVE",
"85 649 OFFCURVE",
"25 471 CURVE SMOOTH",
"18 450 OFFCURVE",
"14 427 OFFCURVE",
"14 406 CURVE SMOOTH",
"14 350 OFFCURVE",
"40 305 OFFCURVE",
"92 283 CURVE",
"96 282 LINE SMOOTH"
);
}
);
width = 980;
}
);
note = U;
unicode = 0055;
},
{
glyphname = V;
lastChange = "2022-02-17 03:35:41 +0000";
layers = (
{
layerId = "9E0C627C-9F9A-47B5-8A8C-706F30D5AE4A";
paths = (
{
closed = 1;
nodes = (
"444 -38 OFFCURVE",
"447 -35 OFFCURVE",
"449 -28 CURVE",
"466 13 OFFCURVE",
"513 41 OFFCURVE",
"549 64 CURVE SMOOTH",
"742 186 OFFCURVE",
"952 259 OFFCURVE",
"1104 439 CURVE SMOOTH",
"1148 490 OFFCURVE",
"1173 557 OFFCURVE",
"1173 624 CURVE SMOOTH",
"1173 670 OFFCURVE",
"1161 720 OFFCURVE",
"1131 755 CURVE",
"1129 756 OFFCURVE",
"1127 757 OFFCURVE",
"1125 757 CURVE SMOOTH",
"1121 757 OFFCURVE",
"1117 754 OFFCURVE",
"1117 750 CURVE SMOOTH",
"1117 748 OFFCURVE",
"1118 746 OFFCURVE",
"1119 745 CURVE SMOOTH",
"1135 723 OFFCURVE",
"1140 703 OFFCURVE",
"1140 676 CURVE SMOOTH",
"1140 596 OFFCURVE",
"1092 504 OFFCURVE",
"1041 444 CURVE SMOOTH",
"896 272 OFFCURVE",
"728 206 OFFCURVE",
"543 90 CURVE SMOOTH",
"530 82 OFFCURVE",
"490 54 OFFCURVE",
"475 54 CURVE SMOOTH",
"471 54 OFFCURVE",
"469 56 OFFCURVE",
"469 60 CURVE SMOOTH",
"469 65 LINE SMOOTH",
"473 107 OFFCURVE",
"486 147 OFFCURVE",
"500 187 CURVE SMOOTH",
"540 304 OFFCURVE",
"638 500 OFFCURVE",
"727 588 CURVE",
"728 590 OFFCURVE",
"729 592 OFFCURVE",
"729 594 CURVE SMOOTH",
"729 597 OFFCURVE",
"727 600 OFFCURVE",
"723 600 CURVE SMOOTH",
"722 600 OFFCURVE",
"721 600 OFFCURVE",
"720 599 CURVE SMOOTH",
"539 442 OFFCURVE",
"424 258 OFFCURVE",
"384 19 CURVE",
"384 14 LINE SMOOTH",
"384 -10 OFFCURVE",
"412 -38 OFFCURVE",
"436 -38 CURVE SMOOTH"
);
},
{
closed = 1;
nodes = (
"394 196 OFFCURVE",
"404 214 OFFCURVE",
"407 219 CURVE SMOOTH",
"440 288 OFFCURVE",
"478 369 OFFCURVE",
"478 447 CURVE SMOOTH",
"478 474 OFFCURVE",
"474 518 OFFCURVE",
"437 518 CURVE SMOOTH",
"407 518 OFFCURVE",
"385 490 OFFCURVE",
"373 465 CURVE SMOOTH",
"372 463 OFFCURVE",
"371 461 OFFCURVE",
"371 459 CURVE SMOOTH",
"371 458 OFFCURVE",
"372 456 OFFCURVE",
"373 456 CURVE SMOOTH",
"380 456 OFFCURVE",
"380 471 OFFCURVE",
"395 471 CURVE SMOOTH",
"416 471 OFFCURVE",
"417 433 OFFCURVE",
"417 415 CURVE SMOOTH",
"417 352 OFFCURVE",
"406 284 OFFCURVE",
"390 223 CURVE SMOOTH",
"388 216 OFFCURVE",
"386 209 OFFCURVE",
"386 201 CURVE SMOOTH",
"386 200 OFFCURVE",
"386 196 OFFCURVE",
"388 196 CURVE SMOOTH"
);
},
{
closed = 1;
nodes = (
"154 249 OFFCURVE",
"165 250 OFFCURVE",
"165 254 CURVE SMOOTH",
"165 258 OFFCURVE",
"159 258 OFFCURVE",
"157 258 CURVE SMOOTH",
"91 258 OFFCURVE",
"83 346 OFFCURVE",
"83 395 CURVE SMOOTH",
"83 584 OFFCURVE",
"285 663 OFFCURVE",
"446 663 CURVE SMOOTH",
"591 663 OFFCURVE",
"724 610 OFFCURVE",
"861 569 CURVE SMOOTH",
"888 561 OFFCURVE",
"915 555 OFFCURVE",
"943 555 CURVE SMOOTH",
"990 555 OFFCURVE",
"1005 570 OFFCURVE",
"1039 595 CURVE SMOOTH",
"1043 598 OFFCURVE",
"1047 601 OFFCURVE",
"1047 606 CURVE SMOOTH",
"1047 608 OFFCURVE",
"1046 609 OFFCURVE",
"1044 609 CURVE SMOOTH",
"1040 609 OFFCURVE",
"1031 601 OFFCURVE",
"1012 601 CURVE SMOOTH",
"968 601 OFFCURVE",
"905 620 OFFCURVE",
"863 632 CURVE SMOOTH",
"752 665 OFFCURVE",
"634 697 OFFCURVE",
"518 697 CURVE SMOOTH",
"328 697 OFFCURVE",
"30 610 OFFCURVE",
"30 375 CURVE SMOOTH",
"30 321 OFFCURVE",
"59 281 OFFCURVE",
"108 259 CURVE SMOOTH",
"121 253 OFFCURVE",
"137 249 OFFCURVE",
"151 249 CURVE SMOOTH"
);
}
);
width = 894;
}
);
note = V;
unicode = 0056;
},
{
glyphname = W;
lastChange = "2022-02-17 03:35:41 +0000";
layers = (
{
layerId = "9E0C627C-9F9A-47B5-8A8C-706F30D5AE4A";
paths = (
{
closed = 1;
nodes = (
"445 -38 OFFCURVE",
"446 -35 OFFCURVE",
"449 -28 CURVE",
"512 87 OFFCURVE",
"600 223 OFFCURVE",
"698 311 CURVE SMOOTH",
"742 351 OFFCURVE",
"843 447 OFFCURVE",
"903 447 CURVE SMOOTH",
"958 447 OFFCURVE",
"962 372 OFFCURVE",
"962 334 CURVE SMOOTH",
"962 301 OFFCURVE",
"958 269 OFFCURVE",
"954 238 CURVE SMOOTH",
"946 172 OFFCURVE",
"938 106 OFFCURVE",
"924 42 CURVE",
"924 40 OFFCURVE",
"923 38 OFFCURVE",
"923 36 CURVE SMOOTH",
"923 13 OFFCURVE",
"953 -6 OFFCURVE",
"974 -6 CURVE SMOOTH",
"983 -6 OFFCURVE",
"989 -3 OFFCURVE",
"995 5 CURVE SMOOTH",
"1004 20 OFFCURVE",
"1013 37 OFFCURVE",
"1021 53 CURVE SMOOTH",
"1041 87 OFFCURVE",
"1060 121 OFFCURVE",
"1079 155 CURVE SMOOTH",
"1138 260 OFFCURVE",
"1199 364 OFFCURVE",
"1264 464 CURVE SMOOTH",
"1302 521 OFFCURVE",
"1342 582 OFFCURVE",
"1391 629 CURVE SMOOTH",
"1449 684 OFFCURVE",
"1510 736 OFFCURVE",
"1594 736 CURVE SMOOTH",
"1625 736 OFFCURVE",
"1697 729 OFFCURVE",
"1697 685 CURVE SMOOTH",
"1697 674 OFFCURVE",
"1690 665 OFFCURVE",
"1690 656 CURVE SMOOTH",
"1690 654 OFFCURVE",
"1690 653 OFFCURVE",
"1691 653 CURVE SMOOTH",
"1703 653 OFFCURVE",
"1719 700 OFFCURVE",
"1719 711 CURVE SMOOTH",
"1719 753 OFFCURVE",
"1663 760 OFFCURVE",
"1632 760 CURVE SMOOTH",
"1325 760 OFFCURVE",
"1141 350 OFFCURVE",
"999 130 CURVE",
"1013 209 OFFCURVE",
"1029 295 OFFCURVE",
"1029 376 CURVE SMOOTH",
"1029 425 OFFCURVE",
"1023 508 OFFCURVE",
"956 508 CURVE SMOOTH",
"881 508 OFFCURVE",
"757 397 OFFCURVE",
"702 349 CURVE SMOOTH",
"624 279 OFFCURVE",
"525 166 OFFCURVE",
"471 78 CURVE",
"497 224 OFFCURVE",
"620 482 OFFCURVE",
"727 588 CURVE",
"728 590 OFFCURVE",
"729 592 OFFCURVE",
"729 594 CURVE SMOOTH",
"729 597 OFFCURVE",
"727 600 OFFCURVE",
"723 600 CURVE SMOOTH",
"722 600 OFFCURVE",
"721 600 OFFCURVE",
"720 599 CURVE SMOOTH",
"539 442 OFFCURVE",
"424 258 OFFCURVE",
"384 19 CURVE",
"384 14 LINE SMOOTH",
"384 -10 OFFCURVE",
"412 -38 OFFCURVE",
"436 -38 CURVE SMOOTH"
);
},
{
closed = 1;
nodes = (
"389 196 OFFCURVE",
"399 214 OFFCURVE",
"402 219 CURVE SMOOTH",
"435 288 OFFCURVE",
"473 369 OFFCURVE",
"473 447 CURVE SMOOTH",
"473 474 OFFCURVE",
"469 518 OFFCURVE",
"432 518 CURVE SMOOTH",
"402 518 OFFCURVE",
"380 490 OFFCURVE",
"368 465 CURVE SMOOTH",
"367 463 OFFCURVE",
"366 461 OFFCURVE",
"366 459 CURVE SMOOTH",
"366 458 OFFCURVE",
"367 456 OFFCURVE",
"368 456 CURVE SMOOTH",
"375 456 OFFCURVE",
"375 471 OFFCURVE",
"390 471 CURVE SMOOTH",
"411 471 OFFCURVE",
"412 433 OFFCURVE",
"412 415 CURVE SMOOTH",
"412 352 OFFCURVE",
"401 284 OFFCURVE",
"385 223 CURVE SMOOTH",
"383 216 OFFCURVE",
"381 209 OFFCURVE",
"381 201 CURVE SMOOTH",
"381 200 OFFCURVE",
"381 196 OFFCURVE",
"383 196 CURVE SMOOTH"
);
},
{
closed = 1;
nodes = (
"154 249 OFFCURVE",
"164 250 OFFCURVE",
"164 254 CURVE SMOOTH",
"164 258 OFFCURVE",
"159 258 OFFCURVE",
"157 258 CURVE SMOOTH",
"91 258 OFFCURVE",
"82 346 OFFCURVE",
"82 395 CURVE SMOOTH",
"82 584 OFFCURVE",
"285 663 OFFCURVE",
"446 663 CURVE SMOOTH",
"591 663 OFFCURVE",
"724 610 OFFCURVE",
"861 569 CURVE SMOOTH",
"888 561 OFFCURVE",
"915 555 OFFCURVE",
"943 555 CURVE SMOOTH",
"990 555 OFFCURVE",
"1005 570 OFFCURVE",
"1039 595 CURVE SMOOTH",
"1043 598 OFFCURVE",
"1047 601 OFFCURVE",
"1047 606 CURVE SMOOTH",
"1047 608 OFFCURVE",
"1046 609 OFFCURVE",
"1044 609 CURVE SMOOTH",
"1040 609 OFFCURVE",
"1031 601 OFFCURVE",
"1012 601 CURVE SMOOTH",
"968 601 OFFCURVE",
"905 620 OFFCURVE",
"863 632 CURVE SMOOTH",
"752 665 OFFCURVE",
"634 697 OFFCURVE",
"518 697 CURVE SMOOTH",
"328 697 OFFCURVE",
"30 610 OFFCURVE",
"30 375 CURVE SMOOTH",
"30 321 OFFCURVE",
"59 281 OFFCURVE",
"108 259 CURVE SMOOTH",
"121 253 OFFCURVE",
"137 249 OFFCURVE",
"151 249 CURVE SMOOTH"
);
}
);
width = 1187;
}
);
note = W;
unicode = 0057;
},
{
glyphname = X;
lastChange = "2022-02-17 03:35:41 +0000";
layers = (
{
layerId = "9E0C627C-9F9A-47B5-8A8C-706F30D5AE4A";
paths = (
{
closed = 1;
nodes = (
"857 -265 OFFCURVE",
"894 -216 OFFCURVE",
"894 -155 CURVE SMOOTH",
"894 -138 OFFCURVE",
"884 -82 OFFCURVE",
"861 -82 CURVE SMOOTH",
"859 -82 OFFCURVE",
"857 -83 OFFCURVE",
"857 -85 CURVE SMOOTH",
"857 -87 LINE",
"866 -102 OFFCURVE",
"869 -116 OFFCURVE",
"869 -133 CURVE SMOOTH",
"869 -182 OFFCURVE",
"840 -243 OFFCURVE",
"784 -243 CURVE SMOOTH",
"707 -243 OFFCURVE",
"631 -132 OFFCURVE",
"597 -76 CURVE SMOOTH",
"537 20 OFFCURVE",
"490 145 OFFCURVE",
"451 250 CURVE",
"527 307 OFFCURVE",
"602 367 OFFCURVE",
"666 438 CURVE SMOOTH",
"714 492 OFFCURVE",
"740 559 OFFCURVE",
"740 631 CURVE SMOOTH",
"740 678 OFFCURVE",
"727 736 OFFCURVE",
"697 773 CURVE SMOOTH",
"695 775 OFFCURVE",
"693 777 OFFCURVE",
"690 777 CURVE SMOOTH",
"686 777 OFFCURVE",
"683 773 OFFCURVE",
"683 769 CURVE SMOOTH",
"683 767 OFFCURVE",
"683 765 OFFCURVE",
"685 763 CURVE",
"701 740 OFFCURVE",
"706 718 OFFCURVE",
"706 690 CURVE SMOOTH",
"706 527 OFFCURVE",
"549 389 OFFCURVE",
"435 292 CURVE",
"401 384 OFFCURVE",
"369 476 OFFCURVE",
"335 567 CURVE SMOOTH",
"311 633 OFFCURVE",
"272 724 OFFCURVE",
"189 724 CURVE SMOOTH",
"96 724 OFFCURVE",
"43 627 OFFCURVE",
"43 544 CURVE SMOOTH",
"43 540 OFFCURVE",
"44 526 OFFCURVE",
"51 526 CURVE SMOOTH",
"56 526 OFFCURVE",
"57 536 OFFCURVE",
"58 540 CURVE SMOOTH",
"60 551 OFFCURVE",
"63 560 OFFCURVE",
"67 570 CURVE SMOOTH",
"78 599 OFFCURVE",
"128 687 OFFCURVE",
"163 687 CURVE SMOOTH",
"219 687 OFFCURVE",
"265 563 OFFCURVE",
"280 521 CURVE SMOOTH",
"314 430 OFFCURVE",
"344 337 OFFCURVE",
"379 246 CURVE",
"277 164 OFFCURVE",
"171 86 OFFCURVE",
"73 -2 CURVE SMOOTH",
"48 -25 OFFCURVE",
"22 -59 OFFCURVE",
"22 -95 CURVE SMOOTH",
"22 -111 OFFCURVE",
"28 -133 OFFCURVE",
"47 -133 CURVE SMOOTH",
"64 -133 OFFCURVE",
"66 -121 OFFCURVE",
"68 -108 CURVE SMOOTH",
"77 -63 OFFCURVE",
"108 -27 OFFCURVE",
"139 5 CURVE SMOOTH",
"216 82 OFFCURVE",
"306 146 OFFCURVE",
"394 209 CURVE",
"435 103 OFFCURVE",
"483 -11 OFFCURVE",
"550 -103 CURVE SMOOTH",
"604 -176 OFFCURVE",
"695 -265 OFFCURVE",
"793 -265 CURVE SMOOTH"
);
},
{
closed = 1;
nodes = (
"332 286 OFFCURVE",
"328 299 OFFCURVE",
"327 303 CURVE SMOOTH",
"312 341 OFFCURVE",
"294 390 OFFCURVE",
"263 418 CURVE SMOOTH",
"252 427 OFFCURVE",
"238 436 OFFCURVE",
"225 436 CURVE SMOOTH",
"217 436 OFFCURVE",
"210 434 OFFCURVE",
"203 426 CURVE SMOOTH",
"194 416 OFFCURVE",
"190 402 OFFCURVE",
"190 388 CURVE SMOOTH",
"190 379 OFFCURVE",
"191 369 OFFCURVE",
"195 361 CURVE",
"195 360 OFFCURVE",
"196 359 OFFCURVE",
"196 358 CURVE",
"197 357 OFFCURVE",
"198 358 OFFCURVE",
"199 358 CURVE",
"202 362 OFFCURVE",
"195 370 OFFCURVE",
"204 380 CURVE SMOOTH",
"207 383 OFFCURVE",
"211 384 OFFCURVE",
"215 384 CURVE SMOOTH",
"230 384 OFFCURVE",
"251 366 OFFCURVE",
"259 358 CURVE SMOOTH",
"281 339 OFFCURVE",
"300 317 OFFCURVE",
"317 293 CURVE SMOOTH",
"319 290 OFFCURVE",
"321 286 OFFCURVE",
"324 284 CURVE SMOOTH",
"325 283 OFFCURVE",
"327 281 OFFCURVE",
"329 283 CURVE SMOOTH"
);
}
);
width = 629;
}
);
note = X;
unicode = 0058;
},
{
glyphname = Y;
lastChange = "2022-02-17 03:35:41 +0000";
layers = (
{
layerId = "9E0C627C-9F9A-47B5-8A8C-706F30D5AE4A";
paths = (
{
closed = 1;
nodes = (
"548 -285 OFFCURVE",
"687 -205 OFFCURVE",
"799 -93 CURVE SMOOTH",
"1009 117 OFFCURVE",
"1128 393 OFFCURVE",
"1235 665 CURVE SMOOTH",
"1236 667 OFFCURVE",
"1237 670 OFFCURVE",
"1237 672 CURVE SMOOTH",
"1237 684 OFFCURVE",
"1222 687 OFFCURVE",
"1213 687 CURVE SMOOTH",
"1204 687 OFFCURVE",
"1195 685 OFFCURVE",
"1187 682 CURVE",
"1184 683 LINE",
"1181 683 OFFCURVE",
"1179 680 OFFCURVE",
"1178 678 CURVE",
"1153 668 OFFCURVE",
"1142 652 OFFCURVE",
"1136 627 CURVE",
"996 452 OFFCURVE",
"870 261 OFFCURVE",
"697 115 CURVE SMOOTH",
"656 81 OFFCURVE",
"587 32 OFFCURVE",
"532 32 CURVE SMOOTH",
"494 32 OFFCURVE",
"479 51 OFFCURVE",
"479 89 CURVE SMOOTH",
"479 140 OFFCURVE",
"506 214 OFFCURVE",
"526 261 CURVE SMOOTH",
"572 367 OFFCURVE",
"667 525 OFFCURVE",
"756 599 CURVE SMOOTH",
"758 601 OFFCURVE",
"762 604 OFFCURVE",
"762 607 CURVE SMOOTH",
"762 611 OFFCURVE",
"756 611 OFFCURVE",
"753 611 CURVE SMOOTH",
"748 611 OFFCURVE",
"742 609 OFFCURVE",
"737 607 CURVE SMOOTH",
"710 593 OFFCURVE",
"679 564 OFFCURVE",
"658 542 CURVE SMOOTH",
"572 457 OFFCURVE",
"471 316 OFFCURVE",
"426 204 CURVE SMOOTH",
"410 166 OFFCURVE",
"397 122 OFFCURVE",
"397 81 CURVE SMOOTH",
"397 21 OFFCURVE",
"425 -20 OFFCURVE",
"488 -20 CURVE SMOOTH",
"522 -20 OFFCURVE",
"560 -8 OFFCURVE",
"591 5 CURVE SMOOTH",
"820 102 OFFCURVE",
"978 391 OFFCURVE",
"1121 585 CURVE",
"1039 351 OFFCURVE",
"930 135 OFFCURVE",
"766 -53 CURVE SMOOTH",
"707 -120 OFFCURVE",
"623 -202 OFFCURVE",
"538 -234 CURVE SMOOTH",
"503 -248 OFFCURVE",
"465 -254 OFFCURVE",
"427 -254 CURVE SMOOTH",
"334 -254 OFFCURVE",
"244 -217 OFFCURVE",
"227 -115 CURVE",
"227 -107 LINE SMOOTH",
"227 -77 OFFCURVE",
"248 -64 OFFCURVE",
"248 -57 CURVE SMOOTH",
"248 -56 OFFCURVE",
"247 -55 OFFCURVE",
"246 -55 CURVE SMOOTH",
"243 -55 OFFCURVE",
"240 -57 OFFCURVE",
"239 -59 CURVE",
"213 -82 OFFCURVE",
"200 -124 OFFCURVE",
"200 -159 CURVE SMOOTH",
"200 -256 OFFCURVE",
"306 -285 OFFCURVE",
"386 -285 CURVE SMOOTH"
);
},
{
closed = 1;
nodes = (
"387 196 OFFCURVE",
"397 214 OFFCURVE",
"400 219 CURVE SMOOTH",
"433 288 OFFCURVE",
"471 369 OFFCURVE",
"471 447 CURVE SMOOTH",
"471 474 OFFCURVE",
"467 518 OFFCURVE",
"430 518 CURVE SMOOTH",
"400 518 OFFCURVE",
"378 490 OFFCURVE",
"366 465 CURVE SMOOTH",
"365 463 OFFCURVE",
"364 461 OFFCURVE",
"364 459 CURVE SMOOTH",
"364 458 OFFCURVE",
"365 456 OFFCURVE",
"366 456 CURVE SMOOTH",
"373 456 OFFCURVE",
"373 471 OFFCURVE",
"388 471 CURVE SMOOTH",
"409 471 OFFCURVE",
"410 433 OFFCURVE",
"410 415 CURVE SMOOTH",
"410 352 OFFCURVE",
"399 284 OFFCURVE",
"383 223 CURVE SMOOTH",
"381 216 OFFCURVE",
"379 209 OFFCURVE",
"379 201 CURVE SMOOTH",
"379 200 OFFCURVE",
"379 196 OFFCURVE",
"381 196 CURVE SMOOTH"
);
},
{
closed = 1;
nodes = (
"140 296 OFFCURVE",
"150 297 OFFCURVE",
"150 301 CURVE SMOOTH",
"150 305 OFFCURVE",
"145 305 OFFCURVE",
"143 305 CURVE SMOOTH",
"77 305 OFFCURVE",
"68 393 OFFCURVE",
"68 442 CURVE SMOOTH",
"68 631 OFFCURVE",
"271 710 OFFCURVE",
"432 710 CURVE SMOOTH",
"577 710 OFFCURVE",
"710 657 OFFCURVE",
"847 616 CURVE SMOOTH",
"874 608 OFFCURVE",
"901 602 OFFCURVE",
"929 602 CURVE SMOOTH",
"976 602 OFFCURVE",
"991 617 OFFCURVE",
"1025 642 CURVE SMOOTH",
"1029 645 OFFCURVE",
"1033 648 OFFCURVE",
"1033 653 CURVE SMOOTH",
"1033 655 OFFCURVE",
"1032 656 OFFCURVE",
"1030 656 CURVE SMOOTH",
"1026 656 OFFCURVE",
"1017 648 OFFCURVE",
"998 648 CURVE SMOOTH",
"954 648 OFFCURVE",
"891 667 OFFCURVE",
"849 679 CURVE SMOOTH",
"738 712 OFFCURVE",
"620 744 OFFCURVE",
"504 744 CURVE SMOOTH",
"314 744 OFFCURVE",
"16 657 OFFCURVE",
"16 422 CURVE SMOOTH",
"16 368 OFFCURVE",
"45 328 OFFCURVE",
"94 306 CURVE SMOOTH",
"107 300 OFFCURVE",
"123 296 OFFCURVE",
"137 296 CURVE SMOOTH"
);
}
);
width = 1056;
}
);
note = Y;
unicode = 0059;
},
{
glyphname = Z;
lastChange = "2022-02-17 03:35:41 +0000";
layers = (
{
layerId = "9E0C627C-9F9A-47B5-8A8C-706F30D5AE4A";
paths = (
{
closed = 1;
nodes = (
"1029 -126 OFFCURVE",
"1148 -119 OFFCURVE",
"1148 -48 CURVE SMOOTH",
"1148 -31 OFFCURVE",
"1141 14 OFFCURVE",
"1119 14 CURVE SMOOTH",
"1118 14 OFFCURVE",
"1116 13 OFFCURVE",
"1116 12 CURVE SMOOTH",
"1116 3 OFFCURVE",
"1122 -7 OFFCURVE",
"1122 -17 CURVE SMOOTH",
"1122 -53 OFFCURVE",
"1082 -56 OFFCURVE",
"1055 -56 CURVE SMOOTH",
"1022 -56 OFFCURVE",
"990 -52 OFFCURVE",
"958 -47 CURVE SMOOTH",
"780 -20 OFFCURVE",
"607 31 OFFCURVE",
"431 69 CURVE",
"534 154 OFFCURVE",
"633 245 OFFCURVE",
"730 338 CURVE",
"766 340 OFFCURVE",
"801 342 OFFCURVE",
"837 343 CURVE SMOOTH",
"854 344 OFFCURVE",
"873 343 OFFCURVE",
"890 345 CURVE SMOOTH",
"896 346 OFFCURVE",
"905 347 OFFCURVE",
"905 355 CURVE SMOOTH",
"905 363 OFFCURVE",
"895 365 OFFCURVE",
"889 365 CURVE SMOOTH",
"757 365 LINE",
"850 455 OFFCURVE",
"941 548 OFFCURVE",
"1029 642 CURVE",
"1055 635 OFFCURVE",
"1081 626 OFFCURVE",
"1108 626 CURVE SMOOTH",
"1137 626 OFFCURVE",
"1156 636 OFFCURVE",
"1173 658 CURVE SMOOTH",
"1179 667 OFFCURVE",
"1184 675 OFFCURVE",
"1193 682 CURVE SMOOTH",
"1197 685 OFFCURVE",
"1202 688 OFFCURVE",
"1202 694 CURVE SMOOTH",
"1202 695 OFFCURVE",
"1201 696 OFFCURVE",
"1200 696 CURVE SMOOTH",
"1195 696 OFFCURVE",
"1188 692 OFFCURVE",
"1179 692 CURVE SMOOTH",
"1170 692 LINE SMOOTH",
"1014 697 OFFCURVE",
"862 745 OFFCURVE",
"706 759 CURVE SMOOTH",
"697 760 OFFCURVE",
"688 760 OFFCURVE",
"679 760 CURVE SMOOTH",
"537 760 OFFCURVE",
"251 664 OFFCURVE",
"251 490 CURVE SMOOTH",
"251 435 OFFCURVE",
"280 386 OFFCURVE",
"339 386 CURVE SMOOTH",
"343 386 OFFCURVE",
"365 386 OFFCURVE",
"365 391 CURVE SMOOTH",
"365 394 OFFCURVE",
"359 394 OFFCURVE",
"358 394 CURVE SMOOTH",
"312 394 OFFCURVE",
"301 432 OFFCURVE",
"301 471 CURVE SMOOTH",
"301 482 OFFCURVE",
"301 493 OFFCURVE",
"303 504 CURVE SMOOTH",
"327 664 OFFCURVE",
"449 711 OFFCURVE",
"595 711 CURVE SMOOTH",
"714 711 OFFCURVE",
"863 681 OFFCURVE",
"979 654 CURVE",
"887 554 OFFCURVE",
"787 460 OFFCURVE",
"688 365 CURVE",
"619 365 LINE",
"641 402 OFFCURVE",
"660 441 OFFCURVE",
"668 482 CURVE SMOOTH",
"670 491 OFFCURVE",
"672 503 OFFCURVE",
"672 515 CURVE SMOOTH",
"672 538 OFFCURVE",
"664 561 OFFCURVE",
"633 561 CURVE SMOOTH",
"607 561 OFFCURVE",
"583 540 OFFCURVE",
"569 520 CURVE",
"567 519 OFFCURVE",
"566 517 OFFCURVE",
"565 514 CURVE SMOOTH",
"565 513 OFFCURVE",
"566 512 OFFCURVE",
"567 511 CURVE",
"573 510 OFFCURVE",
"576 522 OFFCURVE",
"587 522 CURVE SMOOTH",
"591 522 LINE SMOOTH",
"603 520 OFFCURVE",
"606 507 OFFCURVE",
"606 493 CURVE SMOOTH",
"606 479 OFFCURVE",
"603 465 OFFCURVE",
"602 458 CURVE SMOOTH",
"596 427 OFFCURVE",
"587 396 OFFCURVE",
"576 365 CURVE",
"456 365 LINE SMOOTH",
"440 365 OFFCURVE",
"402 314 OFFCURVE",
"402 299 CURVE SMOOTH",
"402 298 OFFCURVE",
"402 296 OFFCURVE",
"404 296 CURVE SMOOTH",
"406 296 LINE",
"425 300 OFFCURVE",
"443 305 OFFCURVE",
"462 309 CURVE SMOOTH",
"494 316 OFFCURVE",
"527 320 OFFCURVE",
"559 324 CURVE",
"553 309 OFFCURVE",
"546 294 OFFCURVE",
"539 279 CURVE SMOOTH",
"535 272 OFFCURVE",
"531 263 OFFCURVE",
"531 255 CURVE SMOOTH",
"531 254 OFFCURVE",
"531 253 OFFCURVE",
"532 253 CURVE SMOOTH",
"538 252 OFFCURVE",
"552 268 OFFCURVE",
"555 272 CURVE SMOOTH",
"568 290 OFFCURVE",
"582 309 OFFCURVE",
"595 328 CURVE",
"615 330 OFFCURVE",
"636 331 OFFCURVE",
"656 333 CURVE",
"566 248 OFFCURVE",
"477 162 OFFCURVE",
"385 79 CURVE",
"323 92 OFFCURVE",
"236 112 OFFCURVE",
"175 112 CURVE SMOOTH",
"117 112 OFFCURVE",
"49 97 OFFCURVE",
"15 46 CURVE",
"15 45 OFFCURVE",
"14 44 OFFCURVE",
"14 43 CURVE SMOOTH",
"14 38 OFFCURVE",
"21 36 OFFCURVE",
"24 36 CURVE SMOOTH",
"28 36 OFFCURVE",
"30 37 OFFCURVE",
"32 39 CURVE SMOOTH",
"58 70 OFFCURVE",
"96 74 OFFCURVE",
"135 74 CURVE SMOOTH",
"204 74 OFFCURVE",
"278 61 OFFCURVE",
"345 44 CURVE",
"292 1 OFFCURVE",
"174 -78 OFFCURVE",
"105 -78 CURVE SMOOTH",
"86 -78 OFFCURVE",
"54 -73 OFFCURVE",
"54 -49 CURVE SMOOTH",
"54 -21 OFFCURVE",
"89 14 OFFCURVE",
"89 17 CURVE SMOOTH",
"89 20 OFFCURVE",
"85 20 OFFCURVE",
"83 20 CURVE SMOOTH",
"55 20 OFFCURVE",
"23 -24 OFFCURVE",
"23 -51 CURVE SMOOTH",
"23 -90 OFFCURVE",
"61 -105 OFFCURVE",
"94 -105 CURVE SMOOTH",
"206 -105 OFFCURVE",
"302 -34 OFFCURVE",
"386 33 CURVE",
"553 -15 OFFCURVE",
"714 -83 OFFCURVE",
"885 -118 CURVE SMOOTH",
"916 -124 OFFCURVE",
"948 -126 OFFCURVE",
"979 -126 CURVE SMOOTH"
);
}
);
width = 889;
}
);
note = Z;
unicode = 005A;
},
{
glyphname = a;
lastChange = "2022-02-17 03:35:41 +0000";
layers = (
{
layerId = "9E0C627C-9F9A-47B5-8A8C-706F30D5AE4A";
paths = (
{
closed = 1;
nodes = (
"40 -6 OFFCURVE",
"63 4 OFFCURVE",
"83 16 CURVE SMOOTH",
"139 50 OFFCURVE",
"192 91 OFFCURVE",
"243 131 CURVE SMOOTH",
"289 167 OFFCURVE",
"338 202 OFFCURVE",
"381 242 CURVE",
"358 213 OFFCURVE",
"234 36 OFFCURVE",
"234 13 CURVE SMOOTH",
"234 2 OFFCURVE",
"283 -2 OFFCURVE",
"291 -2 CURVE SMOOTH",
"308 -2 OFFCURVE",
"326 0 OFFCURVE",
"334 16 CURVE SMOOTH",
"339 25 OFFCURVE",
"342 33 OFFCURVE",
"348 41 CURVE SMOOTH",
"387 94 OFFCURVE",
"497 173 OFFCURVE",
"558 200 CURVE",
"557 203 OFFCURVE",
"556 207 OFFCURVE",
"552 207 CURVE SMOOTH",
"551 207 OFFCURVE",
"535 201 OFFCURVE",
"534 200 CURVE",
"477 178 OFFCURVE",
"409 131 OFFCURVE",
"363 91 CURVE",
"361 90 OFFCURVE",
"357 86 OFFCURVE",
"354 86 CURVE SMOOTH",
"351 86 OFFCURVE",
"351 90 OFFCURVE",
"351 92 CURVE SMOOTH",
"351 102 OFFCURVE",
"357 114 OFFCURVE",
"361 123 CURVE SMOOTH",
"396 198 OFFCURVE",
"435 272 OFFCURVE",
"491 334 CURVE SMOOTH",
"502 347 OFFCURVE",
"521 357 OFFCURVE",
"537 361 CURVE",
"533 371 OFFCURVE",
"392 376 OFFCURVE",
"375 376 CURVE SMOOTH",
"354 376 OFFCURVE",
"298 376 OFFCURVE",
"281 364 CURVE SMOOTH",
"177 294 OFFCURVE",
"90 177 OFFCURVE",
"32 66 CURVE SMOOTH",
"21 45 OFFCURVE",
"6 20 OFFCURVE",
"0 -3 CURVE",
"5 -5 OFFCURVE",
"11 -6 OFFCURVE",
"16 -6 CURVE SMOOTH"
);
},
{
closed = 1;
nodes = (
"107 69 OFFCURVE",
"105 72 OFFCURVE",
"105 75 CURVE SMOOTH",
"105 84 OFFCURVE",
"113 99 OFFCURVE",
"117 106 CURVE SMOOTH",
"151 176 OFFCURVE",
"235 293 OFFCURVE",
"297 338 CURVE SMOOTH",
"304 343 OFFCURVE",
"318 343 OFFCURVE",
"326 343 CURVE SMOOTH",
"346 343 OFFCURVE",
"407 343 OFFCURVE",
"407 315 CURVE SMOOTH",
"407 298 OFFCURVE",
"388 279 OFFCURVE",
"377 268 CURVE SMOOTH",
"312 206 OFFCURVE",
"216 129 OFFCURVE",
"139 82 CURVE SMOOTH",
"132 78 OFFCURVE",
"119 69 OFFCURVE",
"111 69 CURVE SMOOTH"
);
}
);
width = 431;
}
);
note = a;
unicode = 0061;
},
{
glyphname = ae;
lastChange = "2022-02-17 03:35:41 +0000";
layers = (
{
layerId = "9E0C627C-9F9A-47B5-8A8C-706F30D5AE4A";
paths = (
{
closed = 1;
nodes = (
"40 -6 OFFCURVE",
"64 4 OFFCURVE",
"83 16 CURVE SMOOTH",
"143 53 OFFCURVE",
"199 97 OFFCURVE",
"255 140 CURVE SMOOTH",
"297 173 OFFCURVE",
"342 206 OFFCURVE",
"381 242 CURVE",
"358 213 OFFCURVE",
"234 36 OFFCURVE",
"234 13 CURVE SMOOTH",
"234 2 OFFCURVE",
"285 -3 OFFCURVE",
"294 -3 CURVE SMOOTH",
"326 -3 OFFCURVE",
"357 4 OFFCURVE",
"387 8 CURVE SMOOTH",
"450 17 OFFCURVE",
"543 72 OFFCURVE",
"586 116 CURVE SMOOTH",
"590 121 OFFCURVE",
"593 126 OFFCURVE",
"593 132 CURVE SMOOTH",
"593 135 OFFCURVE",
"592 139 OFFCURVE",
"589 139 CURVE SMOOTH",
"587 139 OFFCURVE",
"585 137 OFFCURVE",
"584 136 CURVE SMOOTH",
"538 99 OFFCURVE",
"447 37 OFFCURVE",
"387 37 CURVE SMOOTH",
"365 37 OFFCURVE",
"349 47 OFFCURVE",
"349 71 CURVE SMOOTH",
"349 107 OFFCURVE",
"385 160 OFFCURVE",
"405 191 CURVE",
"410 183 OFFCURVE",
"420 171 OFFCURVE",
"431 171 CURVE",
"456 180 LINE SMOOTH",
"475 186 OFFCURVE",
"493 192 OFFCURVE",
"512 197 CURVE SMOOTH",
"555 208 OFFCURVE",
"594 209 OFFCURVE",
"637 215 CURVE SMOOTH",
"638 215 OFFCURVE",
"640 215 OFFCURVE",
"641 217 CURVE",
"635 233 OFFCURVE",
"571 233 OFFCURVE",
"558 233 CURVE",
"602 253 OFFCURVE",
"673 328 OFFCURVE",
"693 372 CURVE SMOOTH",
"696 380 OFFCURVE",
"703 392 OFFCURVE",
"703 401 CURVE SMOOTH",
"703 409 OFFCURVE",
"696 412 OFFCURVE",
"688 412 CURVE SMOOTH",
"669 412 OFFCURVE",
"632 401 OFFCURVE",
"625 381 CURVE",
"617 383 OFFCURVE",
"608 383 OFFCURVE",
"599 383 CURVE SMOOTH",
"574 383 OFFCURVE",
"542 379 OFFCURVE",
"520 366 CURVE",
"473 374 OFFCURVE",
"423 376 OFFCURVE",
"375 376 CURVE SMOOTH",
"355 376 OFFCURVE",
"298 376 OFFCURVE",
"281 364 CURVE SMOOTH",
"175 291 OFFCURVE",
"92 180 OFFCURVE",
"32 66 CURVE SMOOTH",
"21 45 OFFCURVE",
"6 20 OFFCURVE",
"0 -3 CURVE",
"5 -5 OFFCURVE",
"11 -6 OFFCURVE",
"16 -6 CURVE SMOOTH"
);
},
{
closed = 1;
nodes = (
"107 69 OFFCURVE",
"105 72 OFFCURVE",
"105 75 CURVE SMOOTH",
"105 84 OFFCURVE",
"113 99 OFFCURVE",
"117 106 CURVE SMOOTH",
"151 176 OFFCURVE",
"235 293 OFFCURVE",
"297 338 CURVE SMOOTH",
"304 343 OFFCURVE",
"318 343 OFFCURVE",
"326 343 CURVE SMOOTH",
"346 343 OFFCURVE",
"407 343 OFFCURVE",
"407 315 CURVE SMOOTH",
"407 298 OFFCURVE",
"388 279 OFFCURVE",
"377 268 CURVE SMOOTH",
"312 206 OFFCURVE",
"216 129 OFFCURVE",
"139 82 CURVE SMOOTH",
"132 78 OFFCURVE",
"119 69 OFFCURVE",
"111 69 CURVE SMOOTH"
);
},
{
closed = 1;
nodes = (
"456 265 OFFCURVE",
"537 371 OFFCURVE",
"602 371 CURVE SMOOTH",
"605 371 OFFCURVE",
"622 369 OFFCURVE",
"622 367 CURVE",
"621 365 LINE",
"615 321 OFFCURVE",
"585 284 OFFCURVE",
"552 253 CURVE SMOOTH",
"546 248 OFFCURVE",
"538 240 OFFCURVE",
"534 233 CURVE",
"496 231 OFFCURVE",
"458 225 OFFCURVE",
"421 215 CURVE"
);
}
);
width = 594;
}
);
note = ae;
unicode = 00E6;
},
{
glyphname = b;
lastChange = "2022-02-17 03:35:41 +0000";
layers = (
{
layerId = "9E0C627C-9F9A-47B5-8A8C-706F30D5AE4A";
paths = (
{
closed = 1;
nodes = (
"192 -8 OFFCURVE",
"223 -5 OFFCURVE",
"244 10 CURVE SMOOTH",
"328 69 OFFCURVE",
"426 196 OFFCURVE",
"462 293 CURVE SMOOTH",
"468 309 OFFCURVE",
"475 330 OFFCURVE",
"475 348 CURVE SMOOTH",
"475 361 OFFCURVE",
"470 371 OFFCURVE",
"456 371 CURVE SMOOTH",
"431 371 OFFCURVE",
"389 343 OFFCURVE",
"369 329 CURVE SMOOTH",
"327 300 OFFCURVE",
"185 193 OFFCURVE",
"158 154 CURVE",
"163 179 OFFCURVE",
"190 230 OFFCURVE",
"202 253 CURVE SMOOTH",
"238 322 OFFCURVE",
"361 535 OFFCURVE",
"448 535 CURVE SMOOTH",
"450 535 OFFCURVE",
"454 535 OFFCURVE",
"454 538 CURVE SMOOTH",
"454 540 OFFCURVE",
"452 542 OFFCURVE",
"450 543 CURVE",
"432 558 OFFCURVE",
"412 569 OFFCURVE",
"387 569 CURVE SMOOTH",
"335 569 OFFCURVE",
"294 521 OFFCURVE",
"274 478 CURVE SMOOTH",
"161 238 LINE SMOOTH",
"138 189 OFFCURVE",
"98 118 OFFCURVE",
"62 78 CURVE SMOOTH",
"43 55 OFFCURVE",
"20 34 OFFCURVE",
"0 12 CURVE",
"8 13 OFFCURVE",
"15 13 OFFCURVE",
"23 13 CURVE SMOOTH",
"42 13 OFFCURVE",
"60 10 OFFCURVE",
"79 5 CURVE SMOOTH",
"108 -3 OFFCURVE",
"137 -8 OFFCURVE",
"167 -8 CURVE SMOOTH"
);
},
{
closed = 1;
nodes = (
"125 14 OFFCURVE",
"114 21 OFFCURVE",
"114 37 CURVE SMOOTH",
"114 56 OFFCURVE",
"127 79 OFFCURVE",
"137 95 CURVE SMOOTH",
"163 139 OFFCURVE",
"329 291 OFFCURVE",
"380 291 CURVE SMOOTH",
"388 291 OFFCURVE",
"392 286 OFFCURVE",
"392 278 CURVE SMOOTH",
"392 266 OFFCURVE",
"386 252 OFFCURVE",
"381 242 CURVE SMOOTH",
"353 179 OFFCURVE",
"278 97 OFFCURVE",
"225 53 CURVE SMOOTH",
"204 35 OFFCURVE",
"168 14 OFFCURVE",
"140 14 CURVE SMOOTH"
);
}
);
width = 389;
}
);
note = b;
unicode = 0062;
},
{
glyphname = c;
lastChange = "2022-02-17 03:35:41 +0000";
layers = (
{
layerId = "9E0C627C-9F9A-47B5-8A8C-706F30D5AE4A";
paths = (
{
closed = 1;
nodes = (
"78 -3 OFFCURVE",
"109 3 OFFCURVE",
"140 8 CURVE SMOOTH",
"229 21 OFFCURVE",
"339 103 OFFCURVE",
"389 175 CURVE SMOOTH",
"391 178 OFFCURVE",
"393 182 OFFCURVE",
"393 186 CURVE SMOOTH",
"393 188 OFFCURVE",
"392 190 OFFCURVE",
"390 190 CURVE SMOOTH",
"386 190 OFFCURVE",
"383 186 OFFCURVE",
"381 184 CURVE SMOOTH",
"328 130 OFFCURVE",
"218 37 OFFCURVE",
"140 37 CURVE SMOOTH",
"117 37 OFFCURVE",
"102 47 OFFCURVE",
"102 71 CURVE SMOOTH",
"102 130 OFFCURVE",
"215 278 OFFCURVE",
"259 317 CURVE SMOOTH",
"275 331 OFFCURVE",
"300 346 OFFCURVE",
"321 346 CURVE SMOOTH",
"345 346 OFFCURVE",
"353 327 OFFCURVE",
"353 306 CURVE SMOOTH",
"353 297 OFFCURVE",
"351 288 OFFCURVE",
"351 279 CURVE SMOOTH",
"351 276 OFFCURVE",
"351 268 OFFCURVE",
"357 268 CURVE SMOOTH",
"363 268 OFFCURVE",
"365 277 OFFCURVE",
"366 281 CURVE SMOOTH",
"373 306 OFFCURVE",
"383 343 OFFCURVE",
"400 363 CURVE",
"398 373 OFFCURVE",
"337 377 OFFCURVE",
"329 377 CURVE SMOOTH",
"310 377 OFFCURVE",
"285 375 OFFCURVE",
"269 364 CURVE SMOOTH",
"161 292 OFFCURVE",
"59 155 OFFCURVE",
"5 37 CURVE SMOOTH",
"3 32 OFFCURVE",
"0 26 OFFCURVE",
"0 20 CURVE SMOOTH",
"0 -2 OFFCURVE",
"31 -3 OFFCURVE",
"47 -3 CURVE SMOOTH"
);
}
);
width = 319;
}
);
note = c;
unicode = 0063;
},
{
glyphname = d;
lastChange = "2022-02-17 03:35:41 +0000";
layers = (
{
layerId = "9E0C627C-9F9A-47B5-8A8C-706F30D5AE4A";
paths = (
{
closed = 1;
nodes = (
"218 -38 OFFCURVE",
"220 -37 OFFCURVE",
"221 -36 CURVE SMOOTH",
"292 28 OFFCURVE",
"374 83 OFFCURVE",
"454 134 CURVE SMOOTH",
"490 157 OFFCURVE",
"527 182 OFFCURVE",
"566 200 CURVE",
"566 203 OFFCURVE",
"564 207 OFFCURVE",
"560 207 CURVE SMOOTH",
"559 207 OFFCURVE",
"543 201 OFFCURVE",
"541 200 CURVE SMOOTH",
"479 176 OFFCURVE",
"421 137 OFFCURVE",
"367 99 CURVE",
"365 97 OFFCURVE",
"363 96 OFFCURVE",
"361 96 CURVE SMOOTH",
"355 96 OFFCURVE",
"354 102 OFFCURVE",
"354 106 CURVE SMOOTH",
"354 112 OFFCURVE",
"356 118 OFFCURVE",
"359 124 CURVE SMOOTH",
"406 228 OFFCURVE",
"469 327 OFFCURVE",
"536 419 CURVE SMOOTH",
"572 468 OFFCURVE",
"611 535 OFFCURVE",
"681 535 CURVE SMOOTH",
"682 535 OFFCURVE",
"689 534 OFFCURVE",
"689 536 CURVE SMOOTH",
"689 538 OFFCURVE",
"684 542 OFFCURVE",
"683 543 CURVE SMOOTH",
"665 558 OFFCURVE",
"644 568 OFFCURVE",
"620 568 CURVE SMOOTH",
"609 568 OFFCURVE",
"598 565 OFFCURVE",
"588 560 CURVE SMOOTH",
"554 543 OFFCURVE",
"531 497 OFFCURVE",
"512 466 CURVE SMOOTH",
"493 435 OFFCURVE",
"474 404 OFFCURVE",
"456 373 CURVE",
"429 375 OFFCURVE",
"402 376 OFFCURVE",
"375 376 CURVE SMOOTH",
"354 376 OFFCURVE",
"298 376 OFFCURVE",
"281 364 CURVE SMOOTH",
"175 294 OFFCURVE",
"77 165 OFFCURVE",
"21 52 CURVE SMOOTH",
"14 39 OFFCURVE",
"4 18 OFFCURVE",
"4 3 CURVE SMOOTH",
"4 -7 OFFCURVE",
"8 -12 OFFCURVE",
"18 -12 CURVE SMOOTH",
"71 -12 OFFCURVE",
"315 187 OFFCURVE",
"368 231 CURVE",
"326 162 OFFCURVE",
"285 93 OFFCURVE",
"244 24 CURVE SMOOTH",
"235 8 OFFCURVE",
"225 -7 OFFCURVE",
"214 -21 CURVE SMOOTH",
"211 -24 OFFCURVE",
"210 -26 OFFCURVE",
"210 -29 CURVE SMOOTH",
"210 -33 OFFCURVE",
"212 -38 OFFCURVE",
"217 -38 CURVE SMOOTH"
);
},
{
closed = 1;
nodes = (
"107 69 OFFCURVE",
"105 72 OFFCURVE",
"105 75 CURVE SMOOTH",
"105 84 OFFCURVE",
"113 98 OFFCURVE",
"116 106 CURVE",
"149 173 OFFCURVE",
"237 296 OFFCURVE",
"297 338 CURVE SMOOTH",
"304 343 OFFCURVE",
"317 343 OFFCURVE",
"325 343 CURVE SMOOTH",
"344 343 OFFCURVE",
"415 341 OFFCURVE",
"415 316 CURVE SMOOTH",
"415 299 OFFCURVE",
"386 276 OFFCURVE",
"375 265 CURVE SMOOTH",
"302 198 OFFCURVE",
"224 134 OFFCURVE",
"139 82 CURVE SMOOTH",
"132 78 OFFCURVE",
"118 69 OFFCURVE",
"110 69 CURVE SMOOTH"
);
}
);
width = 415;
}
);
note = d;
unicode = 0064;
},
{
glyphname = eth;
lastChange = "2022-02-17 03:35:41 +0000";
layers = (
{
layerId = "9E0C627C-9F9A-47B5-8A8C-706F30D5AE4A";
paths = (
{
closed = 1;
nodes = (
"235 -6 OFFCURVE",
"356 172 OFFCURVE",
"406 250 CURVE SMOOTH",
"442 308 OFFCURVE",
"483 425 OFFCURVE",
"483 535 CURVE SMOOTH",
"483 562 OFFCURVE",
"480 587 OFFCURVE",
"475 612 CURVE",
"494 623 OFFCURVE",
"513 633 OFFCURVE",
"531 644 CURVE SMOOTH",
"540 651 OFFCURVE",
"550 663 OFFCURVE",
"550 675 CURVE SMOOTH",
"550 678 OFFCURVE",
"549 681 OFFCURVE",
"548 684 CURVE SMOOTH",
"547 687 OFFCURVE",
"545 689 OFFCURVE",
"542 688 CURVE SMOOTH",
"489 664 LINE SMOOTH",
"481 660 OFFCURVE",
"472 656 OFFCURVE",
"463 653 CURVE",
"454 677 OFFCURVE",
"441 700 OFFCURVE",
"423 719 CURVE SMOOTH",
"402 741 OFFCURVE",
"375 750 OFFCURVE",
"348 750 CURVE SMOOTH",
"284 750 OFFCURVE",
"218 701 OFFCURVE",
"225 664 CURVE SMOOTH",
"226 659 OFFCURVE",
"229 657 OFFCURVE",
"232 657 CURVE SMOOTH",
"235 657 OFFCURVE",
"239 661 OFFCURVE",
"240 667 CURVE SMOOTH",
"242 690 OFFCURVE",
"269 709 OFFCURVE",
"300 709 CURVE SMOOTH",
"317 709 OFFCURVE",
"335 703 OFFCURVE",
"351 690 CURVE SMOOTH",
"371 673 OFFCURVE",
"386 649 OFFCURVE",
"397 623 CURVE",
"374 612 LINE SMOOTH",
"356 604 OFFCURVE",
"337 596 OFFCURVE",
"320 587 CURVE SMOOTH",
"310 581 OFFCURVE",
"306 566 OFFCURVE",
"306 552 CURVE SMOOTH",
"306 544 OFFCURVE",
"307 537 OFFCURVE",
"309 532 CURVE SMOOTH",
"310 530 OFFCURVE",
"311 527 OFFCURVE",
"315 526 CURVE",
"348 542 OFFCURVE",
"380 559 OFFCURVE",
"412 577 CURVE",
"419 547 OFFCURVE",
"423 515 OFFCURVE",
"423 484 CURVE SMOOTH",
"423 443 OFFCURVE",
"417 404 OFFCURVE",
"406 372 CURVE",
"391 376 OFFCURVE",
"374 378 OFFCURVE",
"358 378 CURVE SMOOTH",
"231 378 OFFCURVE",
"80 266 OFFCURVE",
"35 118 CURVE SMOOTH",
"30 102 OFFCURVE",
"28 87 OFFCURVE",
"28 73 CURVE SMOOTH",
"28 27 OFFCURVE",
"55 -6 OFFCURVE",
"97 -6 CURVE SMOOTH"
);
},
{
closed = 1;
nodes = (
"95 23 OFFCURVE",
"83 50 OFFCURVE",
"83 82 CURVE SMOOTH",
"83 97 OFFCURVE",
"86 115 OFFCURVE",
"92 131 CURVE SMOOTH",
"134 249 OFFCURVE",
"241 350 OFFCURVE",
"357 350 CURVE SMOOTH",
"370 350 OFFCURVE",
"383 349 OFFCURVE",
"396 346 CURVE",
"361 248 OFFCURVE",
"293 159 OFFCURVE",
"203 72 CURVE SMOOTH",
"168 37 OFFCURVE",
"141 23 OFFCURVE",
"122 23 CURVE SMOOTH"
);
}
);
width = 481;
}
);
unicode = 00F0;
},
{
glyphname = e;
lastChange = "2022-02-17 03:35:41 +0000";
layers = (
{
layerId = "9E0C627C-9F9A-47B5-8A8C-706F30D5AE4A";
paths = (
{
closed = 1;
nodes = (
"78 -3 OFFCURVE",
"108 4 OFFCURVE",
"139 8 CURVE SMOOTH",
"202 17 OFFCURVE",
"295 72 OFFCURVE",
"338 116 CURVE SMOOTH",
"342 121 OFFCURVE",
"345 126 OFFCURVE",
"345 132 CURVE SMOOTH",
"345 135 OFFCURVE",
"344 139 OFFCURVE",
"341 139 CURVE SMOOTH",
"339 139 OFFCURVE",
"337 137 OFFCURVE",
"336 136 CURVE SMOOTH",
"290 99 OFFCURVE",
"199 37 OFFCURVE",
"139 37 CURVE SMOOTH",
"117 37 OFFCURVE",
"101 47 OFFCURVE",
"101 71 CURVE SMOOTH",
"101 107 OFFCURVE",
"137 160 OFFCURVE",
"157 191 CURVE",
"163 183 OFFCURVE",
"172 171 OFFCURVE",
"183 171 CURVE",
"208 180 LINE SMOOTH",
"227 186 OFFCURVE",
"245 192 OFFCURVE",
"264 197 CURVE SMOOTH",
"307 208 OFFCURVE",
"346 209 OFFCURVE",
"389 215 CURVE SMOOTH",
"390 215 OFFCURVE",
"392 215 OFFCURVE",
"393 217 CURVE",
"387 233 OFFCURVE",
"323 233 OFFCURVE",
"310 233 CURVE",
"354 253 OFFCURVE",
"425 328 OFFCURVE",
"445 372 CURVE SMOOTH",
"448 380 OFFCURVE",
"455 392 OFFCURVE",
"455 401 CURVE SMOOTH",
"455 409 OFFCURVE",
"448 412 OFFCURVE",
"440 412 CURVE SMOOTH",
"421 412 OFFCURVE",
"384 402 OFFCURVE",
"377 381 CURVE",
"369 383 OFFCURVE",
"360 383 OFFCURVE",
"351 383 CURVE SMOOTH",
"326 383 OFFCURVE",
"290 379 OFFCURVE",
"268 364 CURVE SMOOTH",
"160 290 OFFCURVE",
"59 157 OFFCURVE",
"5 37 CURVE",
"2 32 OFFCURVE",
"0 26 OFFCURVE",
"0 20 CURVE SMOOTH",
"0 -2 OFFCURVE",
"31 -3 OFFCURVE",
"46 -3 CURVE SMOOTH"
);
},
{
closed = 1;
nodes = (
"208 265 OFFCURVE",
"289 371 OFFCURVE",
"354 371 CURVE SMOOTH",
"357 371 OFFCURVE",
"374 369 OFFCURVE",
"374 367 CURVE",
"373 365 LINE",
"367 321 OFFCURVE",
"337 284 OFFCURVE",
"304 253 CURVE SMOOTH",
"298 248 OFFCURVE",
"290 240 OFFCURVE",
"286 233 CURVE",
"248 231 OFFCURVE",
"210 225 OFFCURVE",
"173 215 CURVE"
);
}
);
width = 344;
}
);
note = e;
unicode = 0065;
},
{
glyphname = schwa;
lastChange = "2022-02-17 03:35:41 +0000";
layers = (
{
layerId = "9E0C627C-9F9A-47B5-8A8C-706F30D5AE4A";
paths = (
{
closed = 1;
nodes = (
"148 -4 OFFCURVE",
"173 -2 OFFCURVE",
"189 9 CURVE SMOOTH",
"297 81 OFFCURVE",
"399 218 OFFCURVE",
"453 336 CURVE SMOOTH",
"455 341 OFFCURVE",
"458 347 OFFCURVE",
"458 353 CURVE SMOOTH",
"458 375 OFFCURVE",
"427 376 OFFCURVE",
"411 376 CURVE SMOOTH",
"380 376 OFFCURVE",
"349 370 OFFCURVE",
"318 365 CURVE SMOOTH",
"229 352 OFFCURVE",
"129 270 OFFCURVE",
"103 231 CURVE SMOOTH",
"101 228 OFFCURVE",
"99 224 OFFCURVE",
"99 220 CURVE SMOOTH",
"99 218 OFFCURVE",
"100 216 OFFCURVE",
"102 216 CURVE SMOOTH",
"106 216 OFFCURVE",
"109 220 OFFCURVE",
"111 222 CURVE SMOOTH",
"140 243 OFFCURVE",
"240 336 OFFCURVE",
"318 336 CURVE SMOOTH",
"341 336 OFFCURVE",
"356 326 OFFCURVE",
"356 302 CURVE SMOOTH",
"356 285 OFFCURVE",
"347 261 OFFCURVE",
"332 234 CURVE",
"329 234 LINE SMOOTH",
"253 234 OFFCURVE",
"47 178 OFFCURVE",
"47 60 CURVE SMOOTH",
"47 51 OFFCURVE",
"48 41 OFFCURVE",
"51 31 CURVE",
"66 0 OFFCURVE",
"102 -4 OFFCURVE",
"129 -4 CURVE SMOOTH"
);
},
{
closed = 1;
nodes = (
"111 17 OFFCURVE",
"104 36 OFFCURVE",
"104 55 CURVE SMOOTH",
"104 133 OFFCURVE",
"257 207 OFFCURVE",
"324 219 CURVE",
"287 155 OFFCURVE",
"228 82 OFFCURVE",
"199 56 CURVE SMOOTH",
"183 42 OFFCURVE",
"152 17 OFFCURVE",
"131 17 CURVE SMOOTH"
);
}
);
width = 339;
}
);
unicode = 0259;
},
{
glyphname = f;
lastChange = "2022-02-17 03:35:41 +0000";
layers = (
{
layerId = "9E0C627C-9F9A-47B5-8A8C-706F30D5AE4A";
paths = (
{
closed = 1;
nodes = (
"-258 -284 OFFCURVE",
"-200 -271 OFFCURVE",
"-158 -248 CURVE SMOOTH",
"-86 -208 OFFCURVE",
"-28 -155 OFFCURVE",
"18 -87 CURVE SMOOTH",
"73 -3 OFFCURVE",
"114 87 OFFCURVE",
"155 178 CURVE SMOOTH",
"173 216 OFFCURVE",
"196 271 OFFCURVE",
"216 306 CURVE SMOOTH",
"224 321 OFFCURVE",
"257 325 OFFCURVE",
"273 326 CURVE SMOOTH",
"293 327 OFFCURVE",
"314 330 OFFCURVE",
"335 330 CURVE SMOOTH",
"341 330 OFFCURVE",
"355 344 OFFCURVE",
"355 351 CURVE SMOOTH",
"355 353 OFFCURVE",
"353 353 OFFCURVE",
"352 353 CURVE SMOOTH",
"239 353 LINE",
"272 409 OFFCURVE",
"309 461 OFFCURVE",
"345 515 CURVE SMOOTH",
"379 565 OFFCURVE",
"473 675 OFFCURVE",
"538 675 CURVE SMOOTH",
"594 675 OFFCURVE",
"595 589 OFFCURVE",
"595 554 CURVE SMOOTH",
"595 550 OFFCURVE",
"595 545 OFFCURVE",
"598 545 CURVE SMOOTH",
"614 545 OFFCURVE",
"628 608 OFFCURVE",
"628 622 CURVE SMOOTH",
"628 677 OFFCURVE",
"583 689 OFFCURVE",
"537 689 CURVE SMOOTH",
"381 689 OFFCURVE",
"338 604 OFFCURVE",
"264 484 CURVE SMOOTH",
"238 443 OFFCURVE",
"215 399 OFFCURVE",
"194 356 CURVE",
"180 356 OFFCURVE",
"121 359 OFFCURVE",
"121 335 CURVE SMOOTH",
"121 332 OFFCURVE",
"122 330 OFFCURVE",
"124 329 CURVE SMOOTH",
"134 326 OFFCURVE",
"166 319 OFFCURVE",
"166 305 CURVE",
"150 267 LINE SMOOTH",
"94 140 OFFCURVE",
"27 9 OFFCURVE",
"-57 -101 CURVE SMOOTH",
"-95 -149 OFFCURVE",
"-186 -251 OFFCURVE",
"-248 -261 CURVE SMOOTH",
"-255 -262 OFFCURVE",
"-262 -263 OFFCURVE",
"-270 -263 CURVE SMOOTH",
"-334 -263 OFFCURVE",
"-358 -207 OFFCURVE",
"-358 -150 CURVE SMOOTH",
"-358 -147 OFFCURVE",
"-358 -140 OFFCURVE",
"-362 -140 CURVE SMOOTH",
"-378 -140 OFFCURVE",
"-391 -203 OFFCURVE",
"-391 -217 CURVE SMOOTH",
"-391 -268 OFFCURVE",
"-350 -284 OFFCURVE",
"-305 -284 CURVE SMOOTH"
);
}
);
width = 229;
}
);
note = f;
unicode = 0066;
},
{
glyphname = g;
lastChange = "2022-02-17 03:35:41 +0000";
layers = (
{
layerId = "9E0C627C-9F9A-47B5-8A8C-706F30D5AE4A";
paths = (
{
closed = 1;
nodes = (
"77 -266 OFFCURVE",
"272 -29 OFFCURVE",
"331 105 CURVE SMOOTH",
"385 231 LINE SMOOTH",
"394 252 OFFCURVE",
"403 275 OFFCURVE",
"415 295 CURVE SMOOTH",
"432 324 OFFCURVE",
"451 336 OFFCURVE",
"483 342 CURVE SMOOTH",
"485 342 OFFCURVE",
"499 343 OFFCURVE",
"499 348 CURVE SMOOTH",
"499 350 OFFCURVE",
"497 351 OFFCURVE",
"496 351 CURVE SMOOTH",
"448 361 OFFCURVE",
"396 367 OFFCURVE",
"347 373 CURVE SMOOTH",
"326 375 OFFCURVE",
"304 377 OFFCURVE",
"282 377 CURVE SMOOTH",
"269 377 OFFCURVE",
"246 377 OFFCURVE",
"234 371 CURVE SMOOTH",
"170 341 OFFCURVE",
"84 168 OFFCURVE",
"42 104 CURVE SMOOTH",
"29 85 OFFCURVE",
"-12 17 OFFCURVE",
"-12 -4 CURVE SMOOTH",
"-12 -8 OFFCURVE",
"-7 -10 OFFCURVE",
"-3 -10 CURVE SMOOTH",
"42 -10 OFFCURVE",
"243 152 OFFCURVE",
"285 186 CURVE SMOOTH",
"308 204 OFFCURVE",
"333 222 OFFCURVE",
"353 243 CURVE",
"307 159 LINE SMOOTH",
"256 66 OFFCURVE",
"75 -223 OFFCURVE",
"-32 -242 CURVE",
"-39 -244 OFFCURVE",
"-46 -244 OFFCURVE",
"-53 -244 CURVE SMOOTH",
"-120 -244 OFFCURVE",
"-134 -186 OFFCURVE",
"-134 -130 CURVE SMOOTH",
"-134 -126 OFFCURVE",
"-134 -122 OFFCURVE",
"-137 -122 CURVE SMOOTH",
"-153 -122 OFFCURVE",
"-167 -185 OFFCURVE",
"-167 -199 CURVE SMOOTH",
"-167 -250 OFFCURVE",
"-127 -266 OFFCURVE",
"-82 -266 CURVE SMOOTH"
);
},
{
closed = 1;
nodes = (
"98 90 OFFCURVE",
"95 95 OFFCURVE",
"95 103 CURVE SMOOTH",
"95 153 OFFCURVE",
"226 308 OFFCURVE",
"268 338 CURVE SMOOTH",
"275 343 OFFCURVE",
"289 343 OFFCURVE",
"297 343 CURVE SMOOTH",
"317 343 OFFCURVE",
"378 343 OFFCURVE",
"378 315 CURVE SMOOTH",
"378 298 OFFCURVE",
"359 279 OFFCURVE",
"348 268 CURVE SMOOTH",
"313 234 OFFCURVE",
"146 90 OFFCURVE",
"107 90 CURVE SMOOTH"
);
}
);
width = 398;
}
);
note = g;
unicode = 0067;
},
{
glyphname = h;
lastChange = "2022-02-17 03:35:41 +0000";
layers = (
{
layerId = "9E0C627C-9F9A-47B5-8A8C-706F30D5AE4A";
paths = (
{
closed = 1;
nodes = (
"177 -38 OFFCURVE",
"179 -37 OFFCURVE",
"180 -36 CURVE SMOOTH",
"251 28 OFFCURVE",
"333 83 OFFCURVE",
"413 134 CURVE SMOOTH",
"449 157 OFFCURVE",
"486 182 OFFCURVE",
"525 200 CURVE",
"525 203 OFFCURVE",
"523 207 OFFCURVE",
"519 207 CURVE SMOOTH",
"518 207 OFFCURVE",
"503 201 OFFCURVE",
"501 201 CURVE",
"449 180 OFFCURVE",
"402 150 OFFCURVE",
"355 119 CURVE SMOOTH",
"348 115 OFFCURVE",
"334 105 OFFCURVE",
"325 105 CURVE SMOOTH",
"319 105 OFFCURVE",
"317 109 OFFCURVE",
"317 114 CURVE SMOOTH",
"317 129 OFFCURVE",
"330 154 OFFCURVE",
"336 168 CURVE SMOOTH",
"357 214 OFFCURVE",
"402 302 OFFCURVE",
"445 330 CURVE SMOOTH",
"449 333 OFFCURVE",
"463 340 OFFCURVE",
"463 347 CURVE SMOOTH",
"463 359 OFFCURVE",
"418 364 OFFCURVE",
"408 364 CURVE SMOOTH",
"302 364 OFFCURVE",
"164 212 OFFCURVE",
"101 135 CURVE",
"130 193 LINE SMOOTH",
"187 305 OFFCURVE",
"258 408 OFFCURVE",
"323 515 CURVE SMOOTH",
"374 600 OFFCURVE",
"465 726 OFFCURVE",
"578 726 CURVE SMOOTH",
"645 726 OFFCURVE",
"659 668 OFFCURVE",
"659 612 CURVE SMOOTH",
"659 608 OFFCURVE",
"659 604 OFFCURVE",
"662 604 CURVE SMOOTH",
"678 604 OFFCURVE",
"691 668 OFFCURVE",
"691 681 CURVE SMOOTH",
"691 734 OFFCURVE",
"649 748 OFFCURVE",
"604 748 CURVE SMOOTH",
"444 748 OFFCURVE",
"322 619 OFFCURVE",
"243 493 CURVE SMOOTH",
"213 446 OFFCURVE",
"188 396 OFFCURVE",
"163 346 CURVE SMOOTH",
"128 274 OFFCURVE",
"94 201 OFFCURVE",
"63 127 CURVE SMOOTH",
"46 87 OFFCURVE",
"26 48 OFFCURVE",
"0 14 CURVE SMOOTH",
"-6 6 OFFCURVE",
"-13 0 OFFCURVE",
"-19 -8 CURVE",
"-19 -9 OFFCURVE",
"-20 -9 OFFCURVE",
"-20 -10 CURVE SMOOTH",
"-20 -11 OFFCURVE",
"-17 -11 OFFCURVE",
"-16 -11 CURVE SMOOTH",
"-6 -11 OFFCURVE",
"4 -6 OFFCURVE",
"13 -2 CURVE SMOOTH",
"24 3 OFFCURVE",
"36 4 OFFCURVE",
"46 9 CURVE SMOOTH",
"58 15 OFFCURVE",
"60 25 OFFCURVE",
"65 37 CURVE SMOOTH",
"105 129 OFFCURVE",
"201 228 OFFCURVE",
"287 277 CURVE SMOOTH",
"301 285 OFFCURVE",
"332 302 OFFCURVE",
"348 302 CURVE SMOOTH",
"352 302 OFFCURVE",
"356 301 OFFCURVE",
"356 295 CURVE SMOOTH",
"356 278 OFFCURVE",
"195 7 OFFCURVE",
"173 -21 CURVE SMOOTH",
"171 -24 OFFCURVE",
"169 -26 OFFCURVE",
"169 -29 CURVE SMOOTH",
"169 -33 OFFCURVE",
"171 -38 OFFCURVE",
"176 -38 CURVE SMOOTH"
);
},
{
closed = 1;
nodes = (
"127 188 LINE",
"127 186 OFFCURVE",
"126 185 OFFCURVE",
"125 183 CURVE SMOOTH"
);
},
{
closed = 1;
nodes = (
"131 194 OFFCURVE",
"135 201 OFFCURVE",
"138 208 CURVE",
"127 188 LINE"
);
}
);
width = 379;
}
);
note = h;
unicode = 0068;
},
{
glyphname = i;
lastChange = "2022-02-17 03:35:41 +0000";
layers = (
{
layerId = "9E0C627C-9F9A-47B5-8A8C-706F30D5AE4A";
paths = (
{
closed = 1;
nodes = (
"77 -2 OFFCURVE",
"94 0 OFFCURVE",
"101 16 CURVE SMOOTH",
"131 83 OFFCURVE",
"259 170 OFFCURVE",
"325 200 CURVE",
"325 203 OFFCURVE",
"323 207 OFFCURVE",
"319 207 CURVE SMOOTH",
"317 207 OFFCURVE",
"300 200 OFFCURVE",
"298 199 CURVE SMOOTH",
"241 176 OFFCURVE",
"176 131 OFFCURVE",
"130 91 CURVE",
"128 90 OFFCURVE",
"124 86 OFFCURVE",
"121 86 CURVE SMOOTH",
"119 86 OFFCURVE",
"118 90 OFFCURVE",
"118 92 CURVE SMOOTH",
"118 101 OFFCURVE",
"124 114 OFFCURVE",
"128 123 CURVE SMOOTH",
"150 167 OFFCURVE",
"172 211 OFFCURVE",
"199 253 CURVE SMOOTH",
"209 269 OFFCURVE",
"254 336 OFFCURVE",
"254 354 CURVE SMOOTH",
"254 356 OFFCURVE",
"254 358 OFFCURVE",
"251 358 CURVE SMOOTH",
"239 358 OFFCURVE",
"171 330 OFFCURVE",
"171 325 CURVE SMOOTH",
"171 322 OFFCURVE",
"181 321 OFFCURVE",
"181 307 CURVE SMOOTH",
"181 296 OFFCURVE",
"175 286 OFFCURVE",
"169 277 CURVE SMOOTH",
"122 200 OFFCURVE",
"45 122 OFFCURVE",
"16 36 CURVE SMOOTH",
"15 32 OFFCURVE",
"10 17 OFFCURVE",
"10 13 CURVE SMOOTH",
"10 2 OFFCURVE",
"54 -2 OFFCURVE",
"62 -2 CURVE SMOOTH"
);
},
{
closed = 1;
nodes = (
"244 401 OFFCURVE",
"280 423 OFFCURVE",
"292 430 CURVE SMOOTH",
"306 438 OFFCURVE",
"319 441 OFFCURVE",
"334 446 CURVE SMOOTH",
"336 447 OFFCURVE",
"341 449 OFFCURVE",
"341 452 CURVE SMOOTH",
"341 466 OFFCURVE",
"275 468 OFFCURVE",
"263 468 CURVE SMOOTH",
"257 468 OFFCURVE",
"232 468 OFFCURVE",
"232 459 CURVE SMOOTH",
"232 452 OFFCURVE",
"236 445 OFFCURVE",
"236 437 CURVE SMOOTH",
"236 422 OFFCURVE",
"226 411 OFFCURVE",
"226 405 CURVE SMOOTH",
"226 402 OFFCURVE",
"229 401 OFFCURVE",
"232 401 CURVE SMOOTH"
);
}
);
width = 224;
}
);
note = i;
unicode = 0069;
},
{
color = 11;
glyphname = idotless;
lastChange = "2022-02-17 03:35:41 +0000";
layers = (
{
layerId = "9E0C627C-9F9A-47B5-8A8C-706F30D5AE4A";
paths = (
{
closed = 1;
nodes = (
"77 -2 OFFCURVE",
"94 0 OFFCURVE",
"101 16 CURVE SMOOTH",
"131 83 OFFCURVE",
"259 170 OFFCURVE",
"325 200 CURVE",
"325 203 OFFCURVE",
"323 207 OFFCURVE",
"319 207 CURVE SMOOTH",
"317 207 OFFCURVE",
"300 200 OFFCURVE",
"298 199 CURVE SMOOTH",
"241 176 OFFCURVE",
"176 131 OFFCURVE",
"130 91 CURVE",
"128 90 OFFCURVE",
"124 86 OFFCURVE",
"121 86 CURVE SMOOTH",
"119 86 OFFCURVE",
"118 90 OFFCURVE",
"118 92 CURVE SMOOTH",
"118 101 OFFCURVE",
"124 114 OFFCURVE",
"128 123 CURVE SMOOTH",
"150 167 OFFCURVE",
"172 211 OFFCURVE",
"199 253 CURVE SMOOTH",
"209 269 OFFCURVE",
"254 336 OFFCURVE",
"254 354 CURVE SMOOTH",
"254 356 OFFCURVE",
"254 358 OFFCURVE",
"251 358 CURVE SMOOTH",
"239 358 OFFCURVE",
"171 330 OFFCURVE",
"171 325 CURVE SMOOTH",
"171 322 OFFCURVE",
"181 321 OFFCURVE",
"181 307 CURVE SMOOTH",
"181 296 OFFCURVE",
"175 286 OFFCURVE",
"169 277 CURVE SMOOTH",
"122 200 OFFCURVE",
"45 122 OFFCURVE",
"16 36 CURVE SMOOTH",
"15 32 OFFCURVE",
"10 17 OFFCURVE",
"10 13 CURVE SMOOTH",
"10 2 OFFCURVE",
"54 -2 OFFCURVE",
"62 -2 CURVE SMOOTH"
);
}
);
width = 224;
}
);
note = dotlessi;
unicode = 0131;
},
{
glyphname = j;
lastChange = "2022-02-17 03:35:41 +0000";
layers = (
{
layerId = "9E0C627C-9F9A-47B5-8A8C-706F30D5AE4A";
paths = (
{
closed = 1;
nodes = (
"-166 -266 OFFCURVE",
"-48 -176 OFFCURVE",
"24 -69 CURVE SMOOTH",
"49 -31 OFFCURVE",
"70 10 OFFCURVE",
"91 50 CURVE SMOOTH",
"126 118 OFFCURVE",
"158 188 OFFCURVE",
"190 257 CURVE SMOOTH",
"199 278 OFFCURVE",
"230 330 OFFCURVE",
"230 350 CURVE SMOOTH",
"230 354 OFFCURVE",
"229 358 OFFCURVE",
"225 358 CURVE SMOOTH",
"213 358 OFFCURVE",
"146 330 OFFCURVE",
"146 326 CURVE SMOOTH",
"146 321 OFFCURVE",
"155 320 OFFCURVE",
"155 301 CURVE SMOOTH",
"155 289 OFFCURVE",
"152 278 OFFCURVE",
"148 267 CURVE SMOOTH",
"132 223 OFFCURVE",
"104 173 OFFCURVE",
"81 132 CURVE SMOOTH",
"42 58 OFFCURVE",
"0 -17 OFFCURVE",
"-51 -83 CURVE SMOOTH",
"-88 -131 OFFCURVE",
"-180 -234 OFFCURVE",
"-242 -243 CURVE",
"-249 -245 OFFCURVE",
"-256 -245 OFFCURVE",
"-264 -245 CURVE SMOOTH",
"-328 -245 OFFCURVE",
"-352 -189 OFFCURVE",
"-352 -133 CURVE SMOOTH",
"-352 -130 OFFCURVE",
"-352 -122 OFFCURVE",
"-356 -122 CURVE SMOOTH",
"-372 -122 OFFCURVE",
"-385 -186 OFFCURVE",
"-385 -199 CURVE SMOOTH",
"-385 -251 OFFCURVE",
"-344 -266 OFFCURVE",
"-299 -266 CURVE SMOOTH"
);
},
{
closed = 1;
nodes = (
"219 401 OFFCURVE",
"255 423 OFFCURVE",
"266 430 CURVE SMOOTH",
"280 438 OFFCURVE",
"293 441 OFFCURVE",
"308 446 CURVE SMOOTH",
"311 447 OFFCURVE",
"315 449 OFFCURVE",
"315 452 CURVE SMOOTH",
"315 466 OFFCURVE",
"249 468 OFFCURVE",
"237 468 CURVE SMOOTH",
"232 468 OFFCURVE",
"207 468 OFFCURVE",
"207 459 CURVE SMOOTH",
"207 452 OFFCURVE",
"211 445 OFFCURVE",
"211 437 CURVE SMOOTH",
"211 422 OFFCURVE",
"200 411 OFFCURVE",
"200 405 CURVE SMOOTH",
"200 402 OFFCURVE",
"204 401 OFFCURVE",
"206 401 CURVE SMOOTH"
);
}
);
width = 177;
}
);
note = j;
unicode = 006A;
},
{
color = 11;
glyphname = jdotless;
lastChange = "2022-02-17 03:35:41 +0000";
layers = (
{
layerId = "9E0C627C-9F9A-47B5-8A8C-706F30D5AE4A";
paths = (
{
closed = 1;
nodes = (
"-166 -266 OFFCURVE",
"-48 -176 OFFCURVE",
"24 -69 CURVE SMOOTH",
"49 -31 OFFCURVE",
"70 10 OFFCURVE",
"91 50 CURVE SMOOTH",
"126 118 OFFCURVE",
"158 188 OFFCURVE",
"190 257 CURVE SMOOTH",
"199 278 OFFCURVE",
"230 330 OFFCURVE",
"230 350 CURVE SMOOTH",
"230 354 OFFCURVE",
"229 358 OFFCURVE",
"225 358 CURVE SMOOTH",
"213 358 OFFCURVE",
"146 330 OFFCURVE",
"146 326 CURVE SMOOTH",
"146 321 OFFCURVE",
"155 320 OFFCURVE",
"155 301 CURVE SMOOTH",
"155 289 OFFCURVE",
"152 278 OFFCURVE",
"148 267 CURVE SMOOTH",
"132 223 OFFCURVE",
"104 173 OFFCURVE",
"81 132 CURVE SMOOTH",
"42 58 OFFCURVE",
"0 -17 OFFCURVE",
"-51 -83 CURVE SMOOTH",
"-88 -131 OFFCURVE",
"-180 -234 OFFCURVE",
"-242 -243 CURVE",
"-249 -245 OFFCURVE",
"-256 -245 OFFCURVE",
"-264 -245 CURVE SMOOTH",
"-328 -245 OFFCURVE",
"-352 -189 OFFCURVE",
"-352 -133 CURVE SMOOTH",
"-352 -130 OFFCURVE",
"-352 -122 OFFCURVE",
"-356 -122 CURVE SMOOTH",
"-372 -122 OFFCURVE",
"-385 -186 OFFCURVE",
"-385 -199 CURVE SMOOTH",
"-385 -251 OFFCURVE",
"-344 -266 OFFCURVE",
"-299 -266 CURVE SMOOTH"
);
}
);
width = 177;
}
);
unicode = 0237;
},
{
glyphname = k;
lastChange = "2022-02-17 03:35:41 +0000";
layers = (
{
layerId = "9E0C627C-9F9A-47B5-8A8C-706F30D5AE4A";
paths = (
{
closed = 1;
nodes = (
"380 -18 OFFCURVE",
"435 19 OFFCURVE",
"450 36 CURVE SMOOTH",
"457 44 OFFCURVE",
"467 69 OFFCURVE",
"467 80 CURVE",
"467 80 OFFCURVE",
"467 82 OFFCURVE",
"466 82 CURVE SMOOTH",
"465 82 OFFCURVE",
"464 81 OFFCURVE",
"464 80 CURVE",
"439 49 OFFCURVE",
"407 14 OFFCURVE",
"363 14 CURVE SMOOTH",
"304 14 OFFCURVE",
"232 110 OFFCURVE",
"201 154 CURVE",
"308 164 OFFCURVE",
"489 209 OFFCURVE",
"489 345 CURVE SMOOTH",
"489 358 OFFCURVE",
"489 392 OFFCURVE",
"470 392 CURVE SMOOTH",
"456 392 OFFCURVE",
"433 377 OFFCURVE",
"422 369 CURVE SMOOTH",
"337 313 OFFCURVE",
"260 246 OFFCURVE",
"187 176 CURVE",
"180 188 LINE",
"238 299 OFFCURVE",
"304 407 OFFCURVE",
"367 515 CURVE SMOOTH",
"418 602 OFFCURVE",
"508 726 OFFCURVE",
"622 726 CURVE SMOOTH",
"689 726 OFFCURVE",
"703 668 OFFCURVE",
"703 612 CURVE SMOOTH",
"703 608 OFFCURVE",
"703 604 OFFCURVE",
"706 604 CURVE SMOOTH",
"722 604 OFFCURVE",
"736 668 OFFCURVE",
"736 681 CURVE SMOOTH",
"736 734 OFFCURVE",
"694 748 OFFCURVE",
"649 748 CURVE SMOOTH",
"391 748 OFFCURVE",
"247 436 OFFCURVE",
"154 235 CURVE",
"147 249 OFFCURVE",
"139 264 OFFCURVE",
"139 280 CURVE SMOOTH",
"139 287 OFFCURVE",
"141 294 OFFCURVE",
"141 300 CURVE SMOOTH",
"141 304 OFFCURVE",
"138 306 OFFCURVE",
"134 306 CURVE SMOOTH",
"131 306 OFFCURVE",
"129 304 OFFCURVE",
"127 301 CURVE SMOOTH",
"120 289 OFFCURVE",
"97 255 OFFCURVE",
"97 243 CURVE SMOOTH",
"97 232 OFFCURVE",
"122 185 OFFCURVE",
"128 175 CURVE",
"107 127 LINE SMOOTH",
"91 89 OFFCURVE",
"72 51 OFFCURVE",
"47 18 CURVE SMOOTH",
"40 9 OFFCURVE",
"32 1 OFFCURVE",
"25 -8 CURVE SMOOTH",
"24 -10 LINE",
"24 -11 OFFCURVE",
"27 -11 OFFCURVE",
"28 -11 CURVE SMOOTH",
"38 -11 OFFCURVE",
"48 -6 OFFCURVE",
"57 -2 CURVE SMOOTH",
"68 3 OFFCURVE",
"80 4 OFFCURVE",
"90 9 CURVE SMOOTH",
"102 15 OFFCURVE",
"104 26 OFFCURVE",
"109 37 CURVE SMOOTH",
"123 68 OFFCURVE",
"144 97 OFFCURVE",
"163 124 CURVE",
"206 70 OFFCURVE",
"281 -18 OFFCURVE",
"357 -18 CURVE SMOOTH"
);
},
{
closed = 1;
nodes = (
"230 175 OFFCURVE",
"223 176 OFFCURVE",
"216 177 CURVE",
"244 203 OFFCURVE",
"398 337 OFFCURVE",
"422 337 CURVE SMOOTH",
"424 337 OFFCURVE",
"425 336 OFFCURVE",
"425 334 CURVE SMOOTH",
"425 282 OFFCURVE",
"385 218 OFFCURVE",
"337 198 CURVE SMOOTH",
"306 186 OFFCURVE",
"271 175 OFFCURVE",
"237 175 CURVE SMOOTH"
);
}
);
width = 419;
}
);
note = k;
unicode = 006B;
},
{
glyphname = kgreenlandic;
lastChange = "2022-02-17 03:35:41 +0000";
layers = (
{
layerId = "9E0C627C-9F9A-47B5-8A8C-706F30D5AE4A";
paths = (
{
closed = 1;
nodes = (
"380 -18 OFFCURVE",
"435 19 OFFCURVE",
"450 36 CURVE SMOOTH",
"457 44 OFFCURVE",
"467 69 OFFCURVE",
"467 80 CURVE",
"467 80 OFFCURVE",
"467 82 OFFCURVE",
"466 82 CURVE SMOOTH",
"465 82 OFFCURVE",
"464 81 OFFCURVE",
"464 80 CURVE",
"439 49 OFFCURVE",
"407 14 OFFCURVE",
"363 14 CURVE SMOOTH",
"314 14 OFFCURVE",
"260 69 OFFCURVE",
"183 184 CURVE",
"251 244 OFFCURVE",
"371 330 OFFCURVE",
"432 330 CURVE SMOOTH",
"439 330 OFFCURVE",
"445 329 OFFCURVE",
"450 327 CURVE SMOOTH",
"466 320 OFFCURVE",
"472 337 OFFCURVE",
"472 355 CURVE SMOOTH",
"472 373 OFFCURVE",
"466 392 OFFCURVE",
"457 391 CURVE SMOOTH",
"373 382 OFFCURVE",
"271 297 OFFCURVE",
"200 226 CURVE",
"259 338 OFFCURVE",
"341 494 OFFCURVE",
"356 521 CURVE SMOOTH",
"362 531 OFFCURVE",
"289 495 OFFCURVE",
"278 478 CURVE SMOOTH",
"250 433 OFFCURVE",
"192 317 OFFCURVE",
"154 235 CURVE",
"147 249 OFFCURVE",
"139 264 OFFCURVE",
"139 280 CURVE SMOOTH",
"139 287 OFFCURVE",
"141 294 OFFCURVE",
"141 300 CURVE SMOOTH",
"141 304 OFFCURVE",
"138 306 OFFCURVE",
"134 306 CURVE SMOOTH",
"131 306 OFFCURVE",
"129 304 OFFCURVE",
"127 301 CURVE SMOOTH",
"120 289 OFFCURVE",
"97 255 OFFCURVE",
"97 243 CURVE SMOOTH",
"97 232 OFFCURVE",
"122 185 OFFCURVE",
"128 175 CURVE",
"107 127 LINE SMOOTH",
"91 89 OFFCURVE",
"72 51 OFFCURVE",
"47 18 CURVE SMOOTH",
"40 9 OFFCURVE",
"30 2 OFFCURVE",
"25 -8 CURVE SMOOTH",
"24 -10 LINE",
"24 -11 OFFCURVE",
"27 -11 OFFCURVE",
"28 -11 CURVE SMOOTH",
"38 -11 OFFCURVE",
"48 -6 OFFCURVE",
"57 -2 CURVE SMOOTH",
"68 3 OFFCURVE",
"80 4 OFFCURVE",
"90 9 CURVE SMOOTH",
"102 15 OFFCURVE",
"104 26 OFFCURVE",
"109 37 CURVE SMOOTH",
"123 68 OFFCURVE",
"144 97 OFFCURVE",
"163 124 CURVE",
"206 70 OFFCURVE",
"281 -18 OFFCURVE",
"357 -18 CURVE SMOOTH"
);
}
);
width = 419;
}
);
unicode = 0138;
},
{
glyphname = l;
lastChange = "2022-02-17 03:35:41 +0000";
layers = (
{
layerId = "9E0C627C-9F9A-47B5-8A8C-706F30D5AE4A";
paths = (
{
closed = 1;
nodes = (
"71 -2 OFFCURVE",
"88 0 OFFCURVE",
"95 16 CURVE SMOOTH",
"99 25 OFFCURVE",
"103 33 OFFCURVE",
"109 41 CURVE SMOOTH",
"148 94 OFFCURVE",
"258 173 OFFCURVE",
"319 200 CURVE",
"319 203 OFFCURVE",
"317 207 OFFCURVE",
"313 207 CURVE SMOOTH",
"312 207 OFFCURVE",
"300 202 OFFCURVE",
"299 202 CURVE",
"244 181 OFFCURVE",
"196 146 OFFCURVE",
"148 111 CURVE SMOOTH",
"142 107 OFFCURVE",
"131 98 OFFCURVE",
"123 98 CURVE SMOOTH",
"118 98 OFFCURVE",
"116 103 OFFCURVE",
"116 107 CURVE SMOOTH",
"116 119 OFFCURVE",
"125 137 OFFCURVE",
"130 147 CURVE SMOOTH",
"191 268 OFFCURVE",
"281 371 OFFCURVE",
"353 485 CURVE SMOOTH",
"365 504 OFFCURVE",
"379 530 OFFCURVE",
"379 553 CURVE SMOOTH",
"379 558 OFFCURVE",
"377 573 OFFCURVE",
"369 573 CURVE SMOOTH",
"358 573 OFFCURVE",
"291 545 OFFCURVE",
"291 541 CURVE SMOOTH",
"291 536 OFFCURVE",
"299 536 OFFCURVE",
"299 523 CURVE SMOOTH",
"299 521 OFFCURVE",
"299 519 OFFCURVE",
"298 517 CURVE",
"287 462 OFFCURVE",
"197 325 OFFCURVE",
"162 272 CURVE SMOOTH",
"130 223 OFFCURVE",
"2 61 OFFCURVE",
"2 13 CURVE SMOOTH",
"2 2 OFFCURVE",
"48 -2 OFFCURVE",
"55 -2 CURVE SMOOTH"
);
}
);
width = 229;
}
);
note = l;
unicode = 006C;
},
{
glyphname = m;
lastChange = "2022-02-17 03:35:41 +0000";
layers = (
{
background = {
paths = (
{
closed = 1;
nodes = (
"389 -43 OFFCURVE",
"391 -42 OFFCURVE",
"392 -41 CURVE SMOOTH",
"463 23 OFFCURVE",
"545 78 OFFCURVE",
"625 129 CURVE SMOOTH",
"661 152 OFFCURVE",
"698 177 OFFCURVE",
"737 195 CURVE",
"737 198 OFFCURVE",
"735 202 OFFCURVE",
"731 202 CURVE SMOOTH",
"730 202 OFFCURVE",
"718 197 OFFCURVE",
"716 197 CURVE",
"663 177 OFFCURVE",
"614 146 OFFCURVE",
"567 114 CURVE SMOOTH",
"560 110 OFFCURVE",
"546 100 OFFCURVE",
"537 100 CURVE SMOOTH",
"531 100 OFFCURVE",
"529 104 OFFCURVE",
"529 109 CURVE SMOOTH",
"529 124 OFFCURVE",
"542 149 OFFCURVE",
"548 163 CURVE SMOOTH",
"569 208 OFFCURVE",
"615 298 OFFCURVE",
"657 325 CURVE SMOOTH",
"662 328 OFFCURVE",
"675 335 OFFCURVE",
"675 342 CURVE SMOOTH",
"675 354 OFFCURVE",
"630 359 OFFCURVE",
"620 359 CURVE SMOOTH",
"529 359 OFFCURVE",
"395 231 OFFCURVE",
"336 163 CURVE",
"347 203 OFFCURVE",
"380 271 OFFCURVE",
"404 305 CURVE SMOOTH",
"410 313 OFFCURVE",
"418 325 OFFCURVE",
"418 335 CURVE SMOOTH",
"418 350 OFFCURVE",
"402 352 OFFCURVE",
"391 352 CURVE SMOOTH",
"293 352 OFFCURVE",
"159 201 OFFCURVE",
"101 130 CURVE",
"137 201 OFFCURVE",
"175 268 OFFCURVE",
"220 333 CURVE",
"223 336 OFFCURVE",
"226 341 OFFCURVE",
"226 345 CURVE SMOOTH",
"226 349 OFFCURVE",
"223 349 OFFCURVE",
"220 349 CURVE SMOOTH",
"209 349 OFFCURVE",
"186 341 OFFCURVE",
"176 337 CURVE SMOOTH",
"148 326 OFFCURVE",
"126 304 OFFCURVE",
"109 280 CURVE SMOOTH",
"105 275 OFFCURVE",
"95 262 OFFCURVE",
"95 255 CURVE SMOOTH",
"95 247 OFFCURVE",
"108 257 OFFCURVE",
"108 243 CURVE SMOOTH",
"108 219 OFFCURVE",
"70 147 OFFCURVE",
"57 123 CURVE SMOOTH",
"39 88 OFFCURVE",
"18 54 OFFCURVE",
"-7 24 CURVE SMOOTH",
"-17 12 OFFCURVE",
"-29 1 OFFCURVE",
"-39 -10 CURVE",
"-39 -11 OFFCURVE",
"-40 -11 OFFCURVE",
"-40 -12 CURVE SMOOTH",
"-40 -14 OFFCURVE",
"-37 -14 OFFCURVE",
"-36 -14 CURVE SMOOTH",
"-26 -14 OFFCURVE",
"-15 -9 OFFCURVE",
"-6 -5 CURVE SMOOTH",
"5 0 OFFCURVE",
"17 1 OFFCURVE",
"28 6 CURVE SMOOTH",
"41 11 OFFCURVE",
"44 22 OFFCURVE",
"50 33 CURVE SMOOTH",
"85 95 OFFCURVE",
"139 150 OFFCURVE",
"190 199 CURVE SMOOTH",
"214 222 OFFCURVE",
"284 281 OFFCURVE",
"315 281 CURVE SMOOTH",
"323 281 OFFCURVE",
"325 276 OFFCURVE",
"325 269 CURVE SMOOTH",
"325 245 OFFCURVE",
"291 167 OFFCURVE",
"279 140 CURVE SMOOTH",
"263 101 OFFCURVE",
"244 61 OFFCURVE",
"219 27 CURVE SMOOTH",
"213 19 OFFCURVE",
"207 12 OFFCURVE",
"201 5 CURVE",
"200 3 LINE",
"200 2 OFFCURVE",
"203 2 OFFCURVE",
"204 2 CURVE SMOOTH",
"213 2 OFFCURVE",
"224 7 OFFCURVE",
"233 11 CURVE SMOOTH",
"244 16 OFFCURVE",
"256 17 OFFCURVE",
"266 22 CURVE SMOOTH",
"278 28 OFFCURVE",
"280 39 OFFCURVE",
"285 50 CURVE SMOOTH",
"322 133 OFFCURVE",
"420 227 OFFCURVE",
"499 272 CURVE SMOOTH",
"513 280 OFFCURVE",
"544 297 OFFCURVE",
"560 297 CURVE SMOOTH",
"564 297 OFFCURVE",
"568 296 OFFCURVE",
"568 290 CURVE SMOOTH",
"568 274 OFFCURVE",
"409 3 OFFCURVE",
"385 -26 CURVE SMOOTH",
"383 -28 OFFCURVE",
"381 -31 OFFCURVE",
"381 -34 CURVE SMOOTH",
"381 -38 OFFCURVE",
"383 -43 OFFCURVE",
"388 -43 CURVE SMOOTH"
);
}
);
};
layerId = "9E0C627C-9F9A-47B5-8A8C-706F30D5AE4A";
paths = (
{
closed = 1;
nodes = (
"389 -38 OFFCURVE",
"391 -37 OFFCURVE",
"392 -36 CURVE SMOOTH",
"463 28 OFFCURVE",
"545 83 OFFCURVE",
"625 134 CURVE SMOOTH",
"661 157 OFFCURVE",
"698 182 OFFCURVE",
"737 200 CURVE",
"737 203 OFFCURVE",
"735 207 OFFCURVE",
"731 207 CURVE SMOOTH",
"730 207 OFFCURVE",
"718 202 OFFCURVE",
"716 202 CURVE",
"663 182 OFFCURVE",
"614 151 OFFCURVE",
"567 119 CURVE SMOOTH",
"560 115 OFFCURVE",
"546 105 OFFCURVE",
"537 105 CURVE SMOOTH",
"531 105 OFFCURVE",
"529 109 OFFCURVE",
"529 114 CURVE SMOOTH",
"529 129 OFFCURVE",
"542 154 OFFCURVE",
"548 168 CURVE SMOOTH",
"569 213 OFFCURVE",
"615 303 OFFCURVE",
"657 330 CURVE SMOOTH",
"662 333 OFFCURVE",
"675 340 OFFCURVE",
"675 347 CURVE SMOOTH",
"675 359 OFFCURVE",
"630 364 OFFCURVE",
"620 364 CURVE SMOOTH",
"529 364 OFFCURVE",
"395 236 OFFCURVE",
"336 168 CURVE",
"347 208 OFFCURVE",
"380 276 OFFCURVE",
"404 310 CURVE SMOOTH",
"410 318 OFFCURVE",
"418 330 OFFCURVE",
"418 340 CURVE SMOOTH",
"418 355 OFFCURVE",
"402 357 OFFCURVE",
"391 357 CURVE SMOOTH",
"293 357 OFFCURVE",
"159 206 OFFCURVE",
"101 135 CURVE",
"137 206 OFFCURVE",
"175 273 OFFCURVE",
"220 338 CURVE",
"223 341 OFFCURVE",
"226 346 OFFCURVE",
"226 350 CURVE SMOOTH",
"226 354 OFFCURVE",
"223 354 OFFCURVE",
"220 354 CURVE SMOOTH",
"209 354 OFFCURVE",
"186 346 OFFCURVE",
"176 342 CURVE SMOOTH",
"148 331 OFFCURVE",
"126 309 OFFCURVE",
"109 285 CURVE SMOOTH",
"105 280 OFFCURVE",
"95 267 OFFCURVE",
"95 260 CURVE SMOOTH",
"95 252 OFFCURVE",
"108 262 OFFCURVE",
"108 248 CURVE SMOOTH",
"108 224 OFFCURVE",
"70 152 OFFCURVE",
"57 128 CURVE SMOOTH",
"39 93 OFFCURVE",
"17 58 OFFCURVE",
"-7 29 CURVE SMOOTH",
"-25 8 OFFCURVE",
"-40 -6 OFFCURVE",
"-40 -7 CURVE SMOOTH",
"-40 -9 OFFCURVE",
"-37 -9 OFFCURVE",
"-36 -9 CURVE SMOOTH",
"-26 -9 OFFCURVE",
"-15 -4 OFFCURVE",
"-6 0 CURVE SMOOTH",
"5 5 OFFCURVE",
"17 6 OFFCURVE",
"28 11 CURVE SMOOTH",
"41 16 OFFCURVE",
"44 27 OFFCURVE",
"50 38 CURVE SMOOTH",
"85 100 OFFCURVE",
"139 155 OFFCURVE",
"190 204 CURVE SMOOTH",
"214 227 OFFCURVE",
"284 286 OFFCURVE",
"315 286 CURVE SMOOTH",
"323 286 OFFCURVE",
"325 281 OFFCURVE",
"325 274 CURVE SMOOTH",
"325 250 OFFCURVE",
"291 172 OFFCURVE",
"279 145 CURVE SMOOTH",
"263 106 OFFCURVE",
"244 66 OFFCURVE",
"219 32 CURVE SMOOTH",
"213 24 OFFCURVE",
"207 17 OFFCURVE",
"201 10 CURVE",
"200 8 LINE",
"200 7 OFFCURVE",
"203 7 OFFCURVE",
"204 7 CURVE SMOOTH",
"213 7 OFFCURVE",
"224 12 OFFCURVE",
"233 16 CURVE SMOOTH",
"244 21 OFFCURVE",
"256 22 OFFCURVE",
"266 27 CURVE SMOOTH",
"278 33 OFFCURVE",
"280 44 OFFCURVE",
"285 55 CURVE SMOOTH",
"322 138 OFFCURVE",
"420 232 OFFCURVE",
"499 277 CURVE SMOOTH",
"513 285 OFFCURVE",
"544 302 OFFCURVE",
"560 302 CURVE SMOOTH",
"564 302 OFFCURVE",
"568 301 OFFCURVE",
"568 295 CURVE SMOOTH",
"568 279 OFFCURVE",
"409 8 OFFCURVE",
"385 -21 CURVE SMOOTH",
"383 -23 OFFCURVE",
"381 -26 OFFCURVE",
"381 -29 CURVE SMOOTH",
"381 -33 OFFCURVE",
"383 -38 OFFCURVE",
"388 -38 CURVE SMOOTH"
);
}
);
width = 639;
}
);
note = m;
unicode = 006D;
},
{
glyphname = n;
lastChange = "2022-02-17 03:35:41 +0000";
layers = (
{
layerId = "9E0C627C-9F9A-47B5-8A8C-706F30D5AE4A";
paths = (
{
closed = 1;
nodes = (
"177 -38 OFFCURVE",
"179 -37 OFFCURVE",
"180 -36 CURVE SMOOTH",
"251 28 OFFCURVE",
"333 83 OFFCURVE",
"413 134 CURVE SMOOTH",
"449 157 OFFCURVE",
"486 182 OFFCURVE",
"525 200 CURVE",
"525 203 OFFCURVE",
"523 207 OFFCURVE",
"519 207 CURVE SMOOTH",
"518 207 OFFCURVE",
"506 202 OFFCURVE",
"504 202 CURVE",
"451 182 OFFCURVE",
"402 151 OFFCURVE",
"355 119 CURVE SMOOTH",
"348 115 OFFCURVE",
"334 105 OFFCURVE",
"325 105 CURVE SMOOTH",
"319 105 OFFCURVE",
"317 109 OFFCURVE",
"317 114 CURVE SMOOTH",
"317 129 OFFCURVE",
"330 154 OFFCURVE",
"336 168 CURVE SMOOTH",
"357 213 OFFCURVE",
"403 303 OFFCURVE",
"445 330 CURVE SMOOTH",
"450 333 OFFCURVE",
"463 340 OFFCURVE",
"463 347 CURVE SMOOTH",
"463 359 OFFCURVE",
"418 364 OFFCURVE",
"408 364 CURVE SMOOTH",
"302 364 OFFCURVE",
"166 214 OFFCURVE",
"101 135 CURVE",
"137 206 OFFCURVE",
"175 273 OFFCURVE",
"220 338 CURVE",
"223 341 OFFCURVE",
"226 346 OFFCURVE",
"226 350 CURVE SMOOTH",
"226 354 OFFCURVE",
"223 354 OFFCURVE",
"220 354 CURVE SMOOTH",
"209 354 OFFCURVE",
"186 346 OFFCURVE",
"176 342 CURVE SMOOTH",
"148 331 OFFCURVE",
"126 309 OFFCURVE",
"109 285 CURVE SMOOTH",
"105 280 OFFCURVE",
"95 267 OFFCURVE",
"95 260 CURVE SMOOTH",
"95 252 OFFCURVE",
"108 262 OFFCURVE",
"108 248 CURVE SMOOTH",
"108 224 OFFCURVE",
"70 152 OFFCURVE",
"57 128 CURVE SMOOTH",
"39 93 OFFCURVE",
"18 59 OFFCURVE",
"-7 29 CURVE SMOOTH",
"-17 17 OFFCURVE",
"-29 6 OFFCURVE",
"-39 -5 CURVE",
"-39 -6 OFFCURVE",
"-40 -6 OFFCURVE",
"-40 -7 CURVE SMOOTH",
"-40 -9 OFFCURVE",
"-37 -8 OFFCURVE",
"-36 -8 CURVE SMOOTH",
"-26 -8 OFFCURVE",
"-15 -4 OFFCURVE",
"-6 0 CURVE SMOOTH",
"5 5 OFFCURVE",
"17 6 OFFCURVE",
"28 11 CURVE SMOOTH",
"41 16 OFFCURVE",
"44 27 OFFCURVE",
"50 38 CURVE SMOOTH",
"95 120 OFFCURVE",
"205 230 OFFCURVE",
"287 277 CURVE SMOOTH",
"301 285 OFFCURVE",
"332 302 OFFCURVE",
"348 302 CURVE SMOOTH",
"352 302 OFFCURVE",
"356 301 OFFCURVE",
"356 295 CURVE SMOOTH",
"356 279 OFFCURVE",
"197 8 OFFCURVE",
"173 -21 CURVE SMOOTH",
"171 -23 OFFCURVE",
"169 -26 OFFCURVE",
"169 -29 CURVE SMOOTH",
"169 -33 OFFCURVE",
"171 -38 OFFCURVE",
"176 -38 CURVE SMOOTH"
);
}
);
width = 379;
}
);
note = n;
unicode = 006E;
},
{
glyphname = eng;
lastChange = "2022-02-17 03:35:41 +0000";
layers = (
{
layerId = "9E0C627C-9F9A-47B5-8A8C-706F30D5AE4A";
paths = (
{
closed = 1;
nodes = (
"28 -273 OFFCURVE",
"143 -183 OFFCURVE",
"211 -76 CURVE SMOOTH",
"255 -6 OFFCURVE",
"309 109 OFFCURVE",
"336 168 CURVE SMOOTH",
"357 213 OFFCURVE",
"403 303 OFFCURVE",
"445 330 CURVE SMOOTH",
"450 333 OFFCURVE",
"463 340 OFFCURVE",
"463 347 CURVE SMOOTH",
"463 359 OFFCURVE",
"418 364 OFFCURVE",
"408 364 CURVE SMOOTH",
"302 364 OFFCURVE",
"166 214 OFFCURVE",
"101 135 CURVE",
"137 206 OFFCURVE",
"175 273 OFFCURVE",
"220 338 CURVE",
"223 341 OFFCURVE",
"226 346 OFFCURVE",
"226 350 CURVE SMOOTH",
"226 354 OFFCURVE",
"223 354 OFFCURVE",
"220 354 CURVE SMOOTH",
"209 354 OFFCURVE",
"186 346 OFFCURVE",
"176 342 CURVE SMOOTH",
"148 331 OFFCURVE",
"126 309 OFFCURVE",
"109 285 CURVE SMOOTH",
"105 280 OFFCURVE",
"95 267 OFFCURVE",
"95 260 CURVE SMOOTH",
"95 252 OFFCURVE",
"108 262 OFFCURVE",
"108 248 CURVE SMOOTH",
"108 224 OFFCURVE",
"70 152 OFFCURVE",
"57 128 CURVE SMOOTH",
"39 93 OFFCURVE",
"18 59 OFFCURVE",
"-7 29 CURVE SMOOTH",
"-17 17 OFFCURVE",
"-29 6 OFFCURVE",
"-39 -5 CURVE",
"-39 -6 OFFCURVE",
"-40 -6 OFFCURVE",
"-40 -7 CURVE SMOOTH",
"-40 -9 OFFCURVE",
"-37 -8 OFFCURVE",
"-36 -8 CURVE SMOOTH",
"-26 -8 OFFCURVE",
"-15 -4 OFFCURVE",
"-6 0 CURVE SMOOTH",
"5 5 OFFCURVE",
"17 6 OFFCURVE",
"28 11 CURVE SMOOTH",
"41 16 OFFCURVE",
"44 27 OFFCURVE",
"50 38 CURVE SMOOTH",
"95 120 OFFCURVE",
"205 230 OFFCURVE",
"287 277 CURVE SMOOTH",
"301 285 OFFCURVE",
"332 302 OFFCURVE",
"348 302 CURVE SMOOTH",
"352 302 OFFCURVE",
"356 301 OFFCURVE",
"356 295 CURVE SMOOTH",
"356 282 OFFCURVE",
"181 -30 OFFCURVE",
"136 -90 CURVE SMOOTH",
"101 -138 OFFCURVE",
"13 -241 OFFCURVE",
"-49 -250 CURVE",
"-56 -252 OFFCURVE",
"-63 -252 OFFCURVE",
"-71 -252 CURVE SMOOTH",
"-135 -252 OFFCURVE",
"-161 -196 OFFCURVE",
"-163 -140 CURVE SMOOTH",
"-163 -137 OFFCURVE",
"-163 -129 OFFCURVE",
"-167 -129 CURVE SMOOTH",
"-183 -129 OFFCURVE",
"-194 -193 OFFCURVE",
"-194 -206 CURVE SMOOTH",
"-192 -258 OFFCURVE",
"-150 -273 OFFCURVE",
"-105 -273 CURVE SMOOTH"
);
}
);
width = 359;
}
);
unicode = 014B;
},
{
glyphname = o;
lastChange = "2022-02-17 03:35:41 +0000";
layers = (
{
layerId = "9E0C627C-9F9A-47B5-8A8C-706F30D5AE4A";
paths = (
{
closed = 1;
nodes = (
"169 -4 OFFCURVE",
"368 127 OFFCURVE",
"418 224 CURVE SMOOTH",
"430 249 OFFCURVE",
"437 282 OFFCURVE",
"437 310 CURVE SMOOTH",
"437 341 OFFCURVE",
"429 384 OFFCURVE",
"393 384 CURVE SMOOTH",
"389 384 OFFCURVE",
"385 383 OFFCURVE",
"385 382 CURVE SMOOTH",
"385 378 OFFCURVE",
"387 373 OFFCURVE",
"387 369 CURVE SMOOTH",
"387 355 OFFCURVE",
"377 346 OFFCURVE",
"364 346 CURVE SMOOTH",
"320 346 OFFCURVE",
"278 354 OFFCURVE",
"235 354 CURVE SMOOTH",
"211 354 OFFCURVE",
"191 351 OFFCURVE",
"173 334 CURVE SMOOTH",
"132 296 OFFCURVE",
"60 129 OFFCURVE",
"38 71 CURVE SMOOTH",
"33 58 OFFCURVE",
"20 24 OFFCURVE",
"20 12 CURVE SMOOTH",
"20 0 OFFCURVE",
"51 -4 OFFCURVE",
"60 -4 CURVE SMOOTH"
);
},
{
closed = 1;
nodes = (
"115 43 OFFCURVE",
"109 46 OFFCURVE",
"109 58 CURVE SMOOTH",
"109 117 OFFCURVE",
"212 310 OFFCURVE",
"268 330 CURVE SMOOTH",
"276 333 OFFCURVE",
"284 334 OFFCURVE",
"293 334 CURVE SMOOTH",
"331 334 OFFCURVE",
"362 313 OFFCURVE",
"362 273 CURVE SMOOTH",
"362 238 OFFCURVE",
"341 191 OFFCURVE",
"321 163 CURVE SMOOTH",
"281 111 OFFCURVE",
"227 73 OFFCURVE",
"166 52 CURVE SMOOTH",
"153 48 OFFCURVE",
"139 43 OFFCURVE",
"126 43 CURVE SMOOTH"
);
}
);
width = 393;
}
);
note = o;
unicode = 006F;
},
{
glyphname = oslash;
lastChange = "2022-02-17 03:35:41 +0000";
layers = (
{
layerId = "9E0C627C-9F9A-47B5-8A8C-706F30D5AE4A";
paths = (
{
closed = 1;
nodes = (
"-45 -93 OFFCURVE",
"-43 -93 OFFCURVE",
"-41 -92 CURVE",
"51 -3 LINE",
"54 -3 OFFCURVE",
"57 -4 OFFCURVE",
"60 -4 CURVE SMOOTH",
"170 -4 OFFCURVE",
"368 127 OFFCURVE",
"418 224 CURVE SMOOTH",
"431 249 OFFCURVE",
"438 282 OFFCURVE",
"438 310 CURVE SMOOTH",
"438 327 OFFCURVE",
"436 345 OFFCURVE",
"428 360 CURVE",
"434 366 OFFCURVE",
"499 426 OFFCURVE",
"499 429 CURVE",
"497 435 OFFCURVE",
"471 435 OFFCURVE",
"466 435 CURVE SMOOTH",
"458 435 OFFCURVE",
"435 434 OFFCURVE",
"429 429 CURVE",
"351 346 LINE",
"312 348 OFFCURVE",
"274 354 OFFCURVE",
"235 354 CURVE SMOOTH",
"212 354 OFFCURVE",
"191 351 OFFCURVE",
"173 334 CURVE SMOOTH",
"132 295 OFFCURVE",
"61 130 OFFCURVE",
"39 71 CURVE SMOOTH",
"34 58 OFFCURVE",
"20 24 OFFCURVE",
"20 12 CURVE SMOOTH",
"20 9 OFFCURVE",
"24 6 OFFCURVE",
"27 4 CURVE",
"19 -4 OFFCURVE",
"-59 -85 OFFCURVE",
"-59 -87 CURVE SMOOTH",
"-58 -92 OFFCURVE",
"-51 -93 OFFCURVE",
"-47 -93 CURVE SMOOTH"
);
},
{
closed = 1;
nodes = (
"119 43 OFFCURVE",
"111 45 OFFCURVE",
"110 54 CURVE",
"359 294 LINE",
"362 287 OFFCURVE",
"363 280 OFFCURVE",
"363 273 CURVE SMOOTH",
"363 238 OFFCURVE",
"342 190 OFFCURVE",
"321 163 CURVE SMOOTH",
"281 110 OFFCURVE",
"228 74 OFFCURVE",
"166 52 CURVE SMOOTH",
"153 48 OFFCURVE",
"140 43 OFFCURVE",
"126 43 CURVE SMOOTH"
);
},
{
closed = 1;
nodes = (
"136 154 OFFCURVE",
"214 311 OFFCURVE",
"268 330 CURVE SMOOTH",
"276 333 OFFCURVE",
"285 334 OFFCURVE",
"293 334 CURVE SMOOTH",
"307 334 OFFCURVE",
"320 332 OFFCURVE",
"331 326 CURVE",
"119 101 LINE"
);
}
);
width = 393;
}
);
note = oslash;
unicode = 00F8;
},
{
glyphname = oe;
lastChange = "2022-02-17 03:35:41 +0000";
layers = (
{
layerId = "9E0C627C-9F9A-47B5-8A8C-706F30D5AE4A";
paths = (
{
closed = 1;
nodes = (
"129 -4 OFFCURVE",
"222 47 OFFCURVE",
"278 85 CURVE",
"271 71 OFFCURVE",
"249 33 OFFCURVE",
"249 20 CURVE SMOOTH",
"249 -2 OFFCURVE",
"280 -3 OFFCURVE",
"295 -3 CURVE SMOOTH",
"326 -3 OFFCURVE",
"357 4 OFFCURVE",
"388 8 CURVE SMOOTH",
"450 17 OFFCURVE",
"544 72 OFFCURVE",
"586 116 CURVE SMOOTH",
"590 121 OFFCURVE",
"594 126 OFFCURVE",
"594 132 CURVE SMOOTH",
"594 135 OFFCURVE",
"593 139 OFFCURVE",
"590 139 CURVE SMOOTH",
"588 139 OFFCURVE",
"586 137 OFFCURVE",
"584 136 CURVE",
"538 99 OFFCURVE",
"448 37 OFFCURVE",
"388 37 CURVE SMOOTH",
"365 37 OFFCURVE",
"350 47 OFFCURVE",
"350 71 CURVE SMOOTH",
"350 107 OFFCURVE",
"385 160 OFFCURVE",
"405 191 CURVE",
"409 186 OFFCURVE",
"422 171 OFFCURVE",
"428 171 CURVE SMOOTH",
"431 171 LINE",
"465 180 OFFCURVE",
"495 193 OFFCURVE",
"531 201 CURVE SMOOTH",
"566 209 OFFCURVE",
"602 210 OFFCURVE",
"638 215 CURVE SMOOTH",
"639 215 OFFCURVE",
"641 215 OFFCURVE",
"642 217 CURVE",
"638 233 OFFCURVE",
"570 233 OFFCURVE",
"558 233 CURVE",
"603 253 OFFCURVE",
"673 328 OFFCURVE",
"693 372 CURVE SMOOTH",
"697 380 OFFCURVE",
"703 392 OFFCURVE",
"703 401 CURVE SMOOTH",
"703 409 OFFCURVE",
"696 412 OFFCURVE",
"689 412 CURVE SMOOTH",
"669 412 OFFCURVE",
"633 401 OFFCURVE",
"626 381 CURVE",
"617 383 OFFCURVE",
"608 383 OFFCURVE",
"600 383 CURVE SMOOTH",
"573 383 OFFCURVE",
"539 379 OFFCURVE",
"517 364 CURVE SMOOTH",
"488 345 OFFCURVE",
"462 322 OFFCURVE",
"437 299 CURVE",
"439 332 OFFCURVE",
"433 384 OFFCURVE",
"390 384 CURVE SMOOTH",
"389 384 OFFCURVE",
"386 383 OFFCURVE",
"386 382 CURVE SMOOTH",
"386 378 OFFCURVE",
"388 373 OFFCURVE",
"388 369 CURVE SMOOTH",
"388 355 OFFCURVE",
"378 346 OFFCURVE",
"364 346 CURVE SMOOTH",
"321 346 OFFCURVE",
"278 354 OFFCURVE",
"235 354 CURVE SMOOTH",
"212 354 OFFCURVE",
"190 351 OFFCURVE",
"173 334 CURVE SMOOTH",
"131 294 OFFCURVE",
"62 131 OFFCURVE",
"39 71 CURVE SMOOTH",
"34 58 OFFCURVE",
"20 24 OFFCURVE",
"20 12 CURVE SMOOTH",
"20 0 OFFCURVE",
"51 -4 OFFCURVE",
"60 -4 CURVE SMOOTH"
);
},
{
closed = 1;
nodes = (
"115 43 OFFCURVE",
"109 46 OFFCURVE",
"109 58 CURVE SMOOTH",
"109 117 OFFCURVE",
"212 310 OFFCURVE",
"268 330 CURVE SMOOTH",
"276 333 OFFCURVE",
"285 334 OFFCURVE",
"293 334 CURVE SMOOTH",
"331 334 OFFCURVE",
"363 313 OFFCURVE",
"363 273 CURVE SMOOTH",
"363 238 OFFCURVE",
"342 191 OFFCURVE",
"321 163 CURVE SMOOTH",
"282 111 OFFCURVE",
"228 73 OFFCURVE",
"166 52 CURVE SMOOTH",
"153 48 OFFCURVE",
"140 43 OFFCURVE",
"126 43 CURVE SMOOTH"
);
},
{
closed = 1;
nodes = (
"457 265 OFFCURVE",
"538 371 OFFCURVE",
"603 371 CURVE SMOOTH",
"606 371 OFFCURVE",
"622 369 OFFCURVE",
"622 367 CURVE SMOOTH",
"622 365 LINE SMOOTH",
"616 321 OFFCURVE",
"585 284 OFFCURVE",
"553 253 CURVE SMOOTH",
"547 248 OFFCURVE",
"538 240 OFFCURVE",
"534 233 CURVE",
"496 231 OFFCURVE",
"458 225 OFFCURVE",
"422 215 CURVE"
);
}
);
width = 597;
}
);
note = oe;
unicode = 0153;
},
{
glyphname = p;
lastChange = "2022-02-17 03:35:41 +0000";
layers = (
{
layerId = "9E0C627C-9F9A-47B5-8A8C-706F30D5AE4A";
paths = (
{
closed = 1;
nodes = (
"-125 -226 OFFCURVE",
"-58 -198 OFFCURVE",
"-58 -193 CURVE SMOOTH",
"-58 -190 OFFCURVE",
"-66 -189 OFFCURVE",
"-66 -176 CURVE SMOOTH",
"-66 -137 OFFCURVE",
"7 -28 OFFCURVE",
"31 9 CURVE",
"63 -4 OFFCURVE",
"97 -9 OFFCURVE",
"130 -9 CURVE SMOOTH",
"156 -9 OFFCURVE",
"195 -5 OFFCURVE",
"216 10 CURVE SMOOTH",
"303 72 OFFCURVE",
"397 195 OFFCURVE",
"434 295 CURVE SMOOTH",
"440 310 OFFCURVE",
"447 329 OFFCURVE",
"447 346 CURVE SMOOTH",
"447 362 OFFCURVE",
"440 372 OFFCURVE",
"423 372 CURVE SMOOTH",
"396 372 OFFCURVE",
"352 345 OFFCURVE",
"329 329 CURVE SMOOTH",
"284 298 OFFCURVE",
"130 177 OFFCURVE",
"101 135 CURVE",
"136 206 OFFCURVE",
"174 273 OFFCURVE",
"220 338 CURVE SMOOTH",
"222 341 OFFCURVE",
"226 346 OFFCURVE",
"226 350 CURVE SMOOTH",
"226 354 OFFCURVE",
"222 354 OFFCURVE",
"219 354 CURVE SMOOTH",
"208 354 OFFCURVE",
"186 346 OFFCURVE",
"175 342 CURVE SMOOTH",
"148 331 OFFCURVE",
"116 311 OFFCURVE",
"100 287 CURVE SMOOTH",
"96 281 OFFCURVE",
"89 272 OFFCURVE",
"89 265 CURVE SMOOTH",
"89 250 OFFCURVE",
"108 264 OFFCURVE",
"108 247 CURVE SMOOTH",
"108 221 OFFCURVE",
"76 154 OFFCURVE",
"61 131 CURVE SMOOTH",
"27 75 OFFCURVE",
"-10 21 OFFCURVE",
"-48 -33 CURVE SMOOTH",
"-72 -68 OFFCURVE",
"-97 -102 OFFCURVE",
"-120 -138 CURVE SMOOTH",
"-132 -157 OFFCURVE",
"-146 -183 OFFCURVE",
"-146 -206 CURVE SMOOTH",
"-146 -211 OFFCURVE",
"-144 -226 OFFCURVE",
"-137 -226 CURVE SMOOTH"
);
},
{
closed = 1;
nodes = (
"91 14 OFFCURVE",
"77 21 OFFCURVE",
"77 40 CURVE SMOOTH",
"77 59 OFFCURVE",
"88 80 OFFCURVE",
"97 95 CURVE SMOOTH",
"123 139 OFFCURVE",
"290 291 OFFCURVE",
"340 291 CURVE SMOOTH",
"348 291 OFFCURVE",
"352 286 OFFCURVE",
"352 278 CURVE SMOOTH",
"352 266 OFFCURVE",
"346 252 OFFCURVE",
"341 242 CURVE SMOOTH",
"313 178 OFFCURVE",
"254 97 OFFCURVE",
"200 52 CURVE SMOOTH",
"177 33 OFFCURVE",
"139 14 OFFCURVE",
"109 14 CURVE SMOOTH"
);
}
);
width = 367;
}
);
note = p;
unicode = 0070;
},
{
glyphname = thorn;
lastChange = "2022-02-17 03:35:41 +0000";
layers = (
{
background = {
hints = (
{
horizontal = 1;
place = "{-13, 22}";
type = Stem;
},
{
horizontal = 1;
place = "{366, -20}";
target = down;
type = TopGhost;
},
{
horizontal = 1;
place = "{530, 34}";
type = Stem;
},
{
place = "{-37, 475}";
type = Stem;
}
);
paths = (
{
closed = 1;
nodes = (
"85 168 OFFCURVE",
"12 47 OFFCURVE",
"85 88 CURVE",
"89 108 OFFCURVE",
"153 225 OFFCURVE",
"165 248 CURVE SMOOTH",
"201 317 OFFCURVE",
"324 530 OFFCURVE",
"411 530 CURVE SMOOTH",
"413 530 OFFCURVE",
"417 530 OFFCURVE",
"417 533 CURVE SMOOTH",
"417 535 OFFCURVE",
"415 537 OFFCURVE",
"413 538 CURVE",
"395 553 OFFCURVE",
"375 564 OFFCURVE",
"350 564 CURVE SMOOTH",
"298 564 OFFCURVE",
"258 516 OFFCURVE",
"237 473 CURVE SMOOTH",
"109 216 LINE SMOOTH"
);
}
);
};
layerId = "9E0C627C-9F9A-47B5-8A8C-706F30D5AE4A";
paths = (
{
closed = 1;
nodes = (
"-125 -226 OFFCURVE",
"-58 -198 OFFCURVE",
"-58 -193 CURVE SMOOTH",
"-58 -190 OFFCURVE",
"-66 -189 OFFCURVE",
"-66 -176 CURVE SMOOTH",
"-66 -137 OFFCURVE",
"7 -28 OFFCURVE",
"31 9 CURVE",
"63 -4 OFFCURVE",
"97 -9 OFFCURVE",
"130 -9 CURVE SMOOTH",
"156 -9 OFFCURVE",
"195 -5 OFFCURVE",
"216 10 CURVE SMOOTH",
"303 72 OFFCURVE",
"397 195 OFFCURVE",
"434 295 CURVE SMOOTH",
"440 310 OFFCURVE",
"447 329 OFFCURVE",
"447 346 CURVE SMOOTH",
"447 362 OFFCURVE",
"440 372 OFFCURVE",
"423 372 CURVE SMOOTH",
"396 372 OFFCURVE",
"352 345 OFFCURVE",
"329 329 CURVE SMOOTH",
"287 300 OFFCURVE",
"147 191 OFFCURVE",
"107 143 CURVE",
"208 346 OFFCURVE",
"327 535 OFFCURVE",
"411 535 CURVE SMOOTH",
"413 535 OFFCURVE",
"417 535 OFFCURVE",
"417 538 CURVE SMOOTH",
"417 540 OFFCURVE",
"415 542 OFFCURVE",
"413 543 CURVE",
"395 558 OFFCURVE",
"375 569 OFFCURVE",
"350 569 CURVE SMOOTH",
"298 569 OFFCURVE",
"258 521 OFFCURVE",
"237 478 CURVE SMOOTH",
"109 221 LINE SMOOTH",
"60 124 OFFCURVE",
"22 66 OFFCURVE",
"-48 -33 CURVE SMOOTH",
"-72 -68 OFFCURVE",
"-97 -102 OFFCURVE",
"-120 -138 CURVE SMOOTH",
"-132 -157 OFFCURVE",
"-146 -183 OFFCURVE",
"-146 -206 CURVE SMOOTH",
"-146 -211 OFFCURVE",
"-144 -226 OFFCURVE",
"-137 -226 CURVE SMOOTH"
);
},
{
closed = 1;
nodes = (
"91 14 OFFCURVE",
"77 21 OFFCURVE",
"77 40 CURVE SMOOTH",
"77 59 OFFCURVE",
"88 80 OFFCURVE",
"97 95 CURVE SMOOTH",
"123 139 OFFCURVE",
"290 291 OFFCURVE",
"340 291 CURVE SMOOTH",
"348 291 OFFCURVE",
"352 286 OFFCURVE",
"352 278 CURVE SMOOTH",
"352 266 OFFCURVE",
"346 252 OFFCURVE",
"341 242 CURVE SMOOTH",
"313 178 OFFCURVE",
"254 97 OFFCURVE",
"200 52 CURVE SMOOTH",
"177 33 OFFCURVE",
"139 14 OFFCURVE",
"109 14 CURVE SMOOTH"
);
}
);
width = 367;
}
);
unicode = 00FE;
},
{
glyphname = q;
lastChange = "2022-02-17 03:35:41 +0000";
layers = (
{
layerId = "9E0C627C-9F9A-47B5-8A8C-706F30D5AE4A";
paths = (
{
closed = 1;
nodes = (
"214 -233 OFFCURVE",
"219 -228 OFFCURVE",
"227 -216 CURVE SMOOTH",
"233 -207 OFFCURVE",
"237 -191 OFFCURVE",
"241 -181 CURVE SMOOTH",
"276 -92 LINE SMOOTH",
"304 -23 OFFCURVE",
"345 47 OFFCURVE",
"403 94 CURVE SMOOTH",
"444 128 OFFCURVE",
"510 178 OFFCURVE",
"558 200 CURVE",
"557 203 OFFCURVE",
"556 207 OFFCURVE",
"552 207 CURVE SMOOTH",
"551 207 OFFCURVE",
"535 201 OFFCURVE",
"534 200 CURVE",
"466 172 OFFCURVE",
"405 123 OFFCURVE",
"350 76 CURVE",
"348 75 OFFCURVE",
"346 73 OFFCURVE",
"344 73 CURVE SMOOTH",
"342 73 OFFCURVE",
"342 74 OFFCURVE",
"342 75 CURVE SMOOTH",
"342 85 OFFCURVE",
"356 113 OFFCURVE",
"361 123 CURVE SMOOTH",
"398 198 OFFCURVE",
"434 271 OFFCURVE",
"491 334 CURVE SMOOTH",
"503 347 OFFCURVE",
"520 357 OFFCURVE",
"537 361 CURVE",
"532 371 OFFCURVE",
"392 376 OFFCURVE",
"375 376 CURVE SMOOTH",
"354 376 OFFCURVE",
"299 376 OFFCURVE",
"281 364 CURVE SMOOTH",
"177 295 OFFCURVE",
"89 176 OFFCURVE",
"32 66 CURVE SMOOTH",
"21 45 OFFCURVE",
"6 20 OFFCURVE",
"0 -3 CURVE",
"5 -5 OFFCURVE",
"11 -6 OFFCURVE",
"16 -6 CURVE SMOOTH",
"40 -6 OFFCURVE",
"63 4 OFFCURVE",
"83 16 CURVE SMOOTH",
"139 50 OFFCURVE",
"192 91 OFFCURVE",
"243 131 CURVE SMOOTH",
"289 167 OFFCURVE",
"338 202 OFFCURVE",
"381 242 CURVE",
"355 208 OFFCURVE",
"160 -194 OFFCURVE",
"160 -215 CURVE SMOOTH",
"160 -227 OFFCURVE",
"190 -233 OFFCURVE",
"198 -233 CURVE SMOOTH"
);
},
{
closed = 1;
nodes = (
"107 69 OFFCURVE",
"105 72 OFFCURVE",
"105 75 CURVE SMOOTH",
"105 84 OFFCURVE",
"113 99 OFFCURVE",
"117 106 CURVE SMOOTH",
"151 176 OFFCURVE",
"235 293 OFFCURVE",
"297 338 CURVE SMOOTH",
"304 343 OFFCURVE",
"318 343 OFFCURVE",
"326 343 CURVE SMOOTH",
"346 343 OFFCURVE",
"407 343 OFFCURVE",
"407 315 CURVE SMOOTH",
"407 298 OFFCURVE",
"388 279 OFFCURVE",
"377 268 CURVE SMOOTH",
"312 206 OFFCURVE",
"216 129 OFFCURVE",
"139 82 CURVE SMOOTH",
"132 78 OFFCURVE",
"119 69 OFFCURVE",
"111 69 CURVE SMOOTH"
);
}
);
width = 452;
}
);
note = q;
unicode = 0071;
},
{
glyphname = r;
lastChange = "2022-02-17 03:35:41 +0000";
layers = (
{
layerId = "9E0C627C-9F9A-47B5-8A8C-706F30D5AE4A";
paths = (
{
closed = 1;
nodes = (
"9 -7 OFFCURVE",
"77 13 OFFCURVE",
"83 28 CURVE SMOOTH",
"92 48 OFFCURVE",
"99 69 OFFCURVE",
"108 89 CURVE SMOOTH",
"146 176 OFFCURVE",
"202 268 OFFCURVE",
"303 283 CURVE SMOOTH",
"360 292 OFFCURVE",
"424 295 OFFCURVE",
"422 370 CURVE",
"421 377 LINE",
"409 364 OFFCURVE",
"363 357 OFFCURVE",
"345 352 CURVE SMOOTH",
"331 348 OFFCURVE",
"317 343 OFFCURVE",
"303 337 CURVE SMOOTH",
"263 320 OFFCURVE",
"203 258 OFFCURVE",
"176 222 CURVE",
"192 248 OFFCURVE",
"244 325 OFFCURVE",
"244 353 CURVE SMOOTH",
"244 354 OFFCURVE",
"242 363 OFFCURVE",
"239 363 CURVE SMOOTH",
"236 363 OFFCURVE",
"169 333 OFFCURVE",
"164 330 CURVE SMOOTH",
"159 326 OFFCURVE",
"149 319 OFFCURVE",
"149 311 CURVE SMOOTH",
"149 304 OFFCURVE",
"152 296 OFFCURVE",
"152 288 CURVE SMOOTH",
"152 277 OFFCURVE",
"150 267 OFFCURVE",
"145 258 CURVE SMOOTH",
"121 205 OFFCURVE",
"90 153 OFFCURVE",
"60 103 CURVE SMOOTH",
"38 67 OFFCURVE",
"17 28 OFFCURVE",
"-9 -6 CURVE",
"-9 -7 OFFCURVE",
"-7 -7 OFFCURVE",
"-7 -7 CURVE"
);
}
);
width = 295;
}
);
note = r;
unicode = 0072;
},
{
glyphname = s;
lastChange = "2022-02-17 03:35:41 +0000";
layers = (
{
layerId = "9E0C627C-9F9A-47B5-8A8C-706F30D5AE4A";
paths = (
{
closed = 1;
nodes = (
"237 -33 OFFCURVE",
"117 232 OFFCURVE",
"193 330 CURVE SMOOTH",
"202 341 OFFCURVE",
"216 354 OFFCURVE",
"231 354 CURVE SMOOTH",
"253 354 OFFCURVE",
"260 331 OFFCURVE",
"260 313 CURVE SMOOTH",
"260 302 OFFCURVE",
"256 292 OFFCURVE",
"256 281 CURVE SMOOTH",
"256 278 OFFCURVE",
"257 272 OFFCURVE",
"261 272 CURVE SMOOTH",
"267 272 OFFCURVE",
"270 281 OFFCURVE",
"271 285 CURVE SMOOTH",
"280 312 OFFCURVE",
"293 333 OFFCURVE",
"307 357 CURVE SMOOTH",
"309 360 OFFCURVE",
"311 363 OFFCURVE",
"311 366 CURVE SMOOTH",
"311 379 OFFCURVE",
"279 379 OFFCURVE",
"270 379 CURVE SMOOTH",
"259 379 OFFCURVE",
"237 378 OFFCURVE",
"227 374 CURVE SMOOTH",
"145 344 OFFCURVE",
"114 267 OFFCURVE",
"106 186 CURVE SMOOTH",
"102 136 OFFCURVE",
"100 73 OFFCURVE",
"78 28 CURVE SMOOTH",
"68 6 OFFCURVE",
"47 -6 OFFCURVE",
"23 -6 CURVE SMOOTH",
"-19 -6 OFFCURVE",
"-33 29 OFFCURVE",
"-40 29 CURVE SMOOTH",
"-47 29 OFFCURVE",
"-50 19 OFFCURVE",
"-50 13 CURVE SMOOTH",
"-50 -18 OFFCURVE",
"8 -33 OFFCURVE",
"32 -33 CURVE SMOOTH"
);
}
);
width = 207;
}
);
note = s;
unicode = 0073;
},
{
glyphname = germandbls;
lastChange = "2022-02-17 03:35:41 +0000";
layers = (
{
layerId = "9E0C627C-9F9A-47B5-8A8C-706F30D5AE4A";
paths = (
{
closed = 1;
nodes = (
"-258 -284 OFFCURVE",
"-200 -271 OFFCURVE",
"-158 -248 CURVE SMOOTH",
"-86 -208 OFFCURVE",
"-28 -155 OFFCURVE",
"18 -87 CURVE SMOOTH",
"73 -3 OFFCURVE",
"150 151 OFFCURVE",
"191 242 CURVE SMOOTH",
"233 335 OFFCURVE",
"299 446 OFFCURVE",
"345 515 CURVE SMOOTH",
"377 563 OFFCURVE",
"417 630 OFFCURVE",
"465 675 CURVE SMOOTH",
"496 705 OFFCURVE",
"525 719 OFFCURVE",
"547 719 CURVE SMOOTH",
"576 719 OFFCURVE",
"592 694 OFFCURVE",
"592 648 CURVE SMOOTH",
"592 611 OFFCURVE",
"585 564 OFFCURVE",
"567 512 CURVE SMOOTH",
"547 452 OFFCURVE",
"520 425 OFFCURVE",
"506 410 CURVE",
"497 409 OFFCURVE",
"489 408 OFFCURVE",
"481 405 CURVE SMOOTH",
"329 348 OFFCURVE",
"393 153 OFFCURVE",
"332 29 CURVE SMOOTH",
"322 7 OFFCURVE",
"301 -5 OFFCURVE",
"267 -5 CURVE SMOOTH",
"214 -5 OFFCURVE",
"201 53 OFFCURVE",
"177 53 CURVE SMOOTH",
"169 53 OFFCURVE",
"162 52 OFFCURVE",
"162 41 CURVE SMOOTH",
"162 -3 OFFCURVE",
"236 -32 OFFCURVE",
"260 -32 CURVE SMOOTH",
"367 -32 OFFCURVE",
"425 27 OFFCURVE",
"425 151 CURVE SMOOTH",
"425 169 OFFCURVE",
"421 203 OFFCURVE",
"421 239 CURVE SMOOTH",
"421 281 OFFCURVE",
"426 327 OFFCURVE",
"448 360 CURVE SMOOTH",
"463 383 OFFCURVE",
"487 387 OFFCURVE",
"503 387 CURVE",
"520 390 OFFCURVE",
"567 436 OFFCURVE",
"601 501 CURVE SMOOTH",
"629 554 OFFCURVE",
"641 608 OFFCURVE",
"640 668 CURVE SMOOTH",
"639 713 OFFCURVE",
"602 740 OFFCURVE",
"551 740 CURVE SMOOTH",
"515 740 OFFCURVE",
"471 726 OFFCURVE",
"428 694 CURVE SMOOTH",
"365 647 OFFCURVE",
"324 579 OFFCURVE",
"295 534 CURVE SMOOTH",
"274 501 OFFCURVE",
"238 441 OFFCURVE",
"217 398 CURVE",
"202 398 OFFCURVE",
"144 401 OFFCURVE",
"144 377 CURVE SMOOTH",
"144 374 OFFCURVE",
"145 372 OFFCURVE",
"147 371 CURVE SMOOTH",
"157 368 OFFCURVE",
"189 361 OFFCURVE",
"189 347 CURVE",
"66 94 OFFCURVE",
"44 31 OFFCURVE",
"-57 -101 CURVE SMOOTH",
"-95 -149 OFFCURVE",
"-186 -251 OFFCURVE",
"-248 -261 CURVE SMOOTH",
"-255 -262 OFFCURVE",
"-262 -263 OFFCURVE",
"-270 -263 CURVE SMOOTH",
"-334 -263 OFFCURVE",
"-358 -207 OFFCURVE",
"-358 -150 CURVE SMOOTH",
"-358 -147 OFFCURVE",
"-358 -140 OFFCURVE",
"-362 -140 CURVE SMOOTH",
"-378 -140 OFFCURVE",
"-391 -203 OFFCURVE",
"-391 -217 CURVE SMOOTH",
"-391 -268 OFFCURVE",
"-350 -284 OFFCURVE",
"-305 -284 CURVE SMOOTH"
);
}
);
width = 494;
}
);
note = germandbls;
unicode = 00DF;
},
{
glyphname = t;
lastChange = "2022-02-17 03:35:41 +0000";
layers = (
{
layerId = "9E0C627C-9F9A-47B5-8A8C-706F30D5AE4A";
paths = (
{
closed = 1;
nodes = (
"76 -2 OFFCURVE",
"94 0 OFFCURVE",
"101 16 CURVE SMOOTH",
"129 81 OFFCURVE",
"261 171 OFFCURVE",
"325 200 CURVE",
"325 203 OFFCURVE",
"323 207 OFFCURVE",
"319 207 CURVE SMOOTH",
"318 207 OFFCURVE",
"304 202 OFFCURVE",
"302 201 CURVE SMOOTH",
"249 180 OFFCURVE",
"200 146 OFFCURVE",
"154 111 CURVE SMOOTH",
"148 107 OFFCURVE",
"137 98 OFFCURVE",
"129 98 CURVE SMOOTH",
"124 98 OFFCURVE",
"122 103 OFFCURVE",
"122 107 CURVE SMOOTH",
"122 137 OFFCURVE",
"203 263 OFFCURVE",
"225 293 CURVE SMOOTH",
"240 314 OFFCURVE",
"272 325 OFFCURVE",
"297 326 CURVE SMOOTH",
"318 327 OFFCURVE",
"338 330 OFFCURVE",
"359 330 CURVE SMOOTH",
"366 330 OFFCURVE",
"379 344 OFFCURVE",
"379 351 CURVE SMOOTH",
"379 353 OFFCURVE",
"378 353 OFFCURVE",
"376 353 CURVE SMOOTH",
"266 353 LINE",
"287 385 OFFCURVE",
"333 447 OFFCURVE",
"333 483 CURVE SMOOTH",
"333 486 OFFCURVE",
"332 498 OFFCURVE",
"327 498 CURVE SMOOTH",
"315 498 OFFCURVE",
"246 471 OFFCURVE",
"246 465 CURVE SMOOTH",
"246 463 OFFCURVE",
"255 460 OFFCURVE",
"255 448 CURVE SMOOTH",
"255 427 OFFCURVE",
"228 376 OFFCURVE",
"217 357 CURVE",
"205 356 OFFCURVE",
"145 358 OFFCURVE",
"145 335 CURVE SMOOTH",
"145 332 OFFCURVE",
"146 330 OFFCURVE",
"148 329 CURVE",
"155 328 OFFCURVE",
"192 321 OFFCURVE",
"192 314 CURVE SMOOTH",
"192 298 OFFCURVE",
"8 72 OFFCURVE",
"8 13 CURVE SMOOTH",
"8 2 OFFCURVE",
"54 -2 OFFCURVE",
"61 -2 CURVE SMOOTH"
);
}
);
width = 245;
}
);
note = t;
unicode = 0074;
},
{
glyphname = u;
lastChange = "2022-02-17 03:35:41 +0000";
layers = (
{
layerId = "9E0C627C-9F9A-47B5-8A8C-706F30D5AE4A";
paths = (
{
closed = 1;
nodes = (
"294 -2 OFFCURVE",
"314 0 OFFCURVE",
"321 16 CURVE SMOOTH",
"351 82 OFFCURVE",
"479 170 OFFCURVE",
"546 200 CURVE",
"545 203 OFFCURVE",
"543 207 OFFCURVE",
"539 207 CURVE SMOOTH",
"538 207 OFFCURVE",
"520 200 OFFCURVE",
"518 199 CURVE SMOOTH",
"463 177 OFFCURVE",
"395 131 OFFCURVE",
"350 91 CURVE",
"348 90 OFFCURVE",
"345 87 OFFCURVE",
"343 87 CURVE SMOOTH",
"341 87 OFFCURVE",
"341 89 OFFCURVE",
"341 90 CURVE SMOOTH",
"341 114 OFFCURVE",
"404 228 OFFCURVE",
"419 253 CURVE SMOOTH",
"430 269 OFFCURVE",
"475 336 OFFCURVE",
"475 354 CURVE SMOOTH",
"475 356 OFFCURVE",
"474 358 OFFCURVE",
"471 358 CURVE SMOOTH",
"460 358 OFFCURVE",
"392 330 OFFCURVE",
"392 325 CURVE SMOOTH",
"392 323 OFFCURVE",
"395 323 OFFCURVE",
"395 317 CURVE SMOOTH",
"395 303 OFFCURVE",
"374 278 OFFCURVE",
"364 268 CURVE SMOOTH",
"326 231 OFFCURVE",
"143 75 OFFCURVE",
"102 75 CURVE SMOOTH",
"95 75 OFFCURVE",
"92 79 OFFCURVE",
"92 85 CURVE SMOOTH",
"92 98 OFFCURVE",
"102 118 OFFCURVE",
"108 129 CURVE SMOOTH",
"143 199 OFFCURVE",
"195 266 OFFCURVE",
"254 318 CURVE SMOOTH",
"258 321 OFFCURVE",
"262 325 OFFCURVE",
"262 331 CURVE SMOOTH",
"262 335 OFFCURVE",
"259 337 OFFCURVE",
"255 337 CURVE SMOOTH",
"252 337 OFFCURVE",
"249 336 OFFCURVE",
"247 335 CURVE SMOOTH",
"208 316 OFFCURVE",
"171 297 OFFCURVE",
"130 282 CURVE SMOOTH",
"104 272 OFFCURVE",
"77 266 OFFCURVE",
"50 257 CURVE SMOOTH",
"46 256 OFFCURVE",
"38 252 OFFCURVE",
"38 247 CURVE SMOOTH",
"38 242 OFFCURVE",
"44 241 OFFCURVE",
"47 241 CURVE SMOOTH",
"78 241 OFFCURVE",
"117 259 OFFCURVE",
"137 259 CURVE SMOOTH",
"139 259 OFFCURVE",
"147 258 OFFCURVE",
"147 255 CURVE SMOOTH",
"147 254 OFFCURVE",
"146 253 OFFCURVE",
"146 252 CURVE",
"92 193 OFFCURVE",
"45 126 OFFCURVE",
"10 54 CURVE SMOOTH",
"5 43 OFFCURVE",
"-1 30 OFFCURVE",
"-1 18 CURVE SMOOTH",
"-1 5 OFFCURVE",
"7 -1 OFFCURVE",
"20 -1 CURVE SMOOTH",
"36 -1 OFFCURVE",
"57 8 OFFCURVE",
"70 16 CURVE SMOOTH",
"130 53 OFFCURVE",
"187 97 OFFCURVE",
"242 140 CURVE SMOOTH",
"285 173 OFFCURVE",
"329 206 OFFCURVE",
"368 242 CURVE",
"345 213 OFFCURVE",
"221 36 OFFCURVE",
"221 13 CURVE SMOOTH",
"221 2 OFFCURVE",
"271 -2 OFFCURVE",
"278 -2 CURVE SMOOTH"
);
}
);
width = 444;
}
);
note = u;
unicode = 0075;
},
{
glyphname = v;
lastChange = "2022-02-17 03:35:41 +0000";
layers = (
{
layerId = "9E0C627C-9F9A-47B5-8A8C-706F30D5AE4A";
paths = (
{
closed = 1;
nodes = (
"83 -13 OFFCURVE",
"117 5 OFFCURVE",
"142 21 CURVE SMOOTH",
"250 89 OFFCURVE",
"385 198 OFFCURVE",
"456 305 CURVE SMOOTH",
"470 326 OFFCURVE",
"480 351 OFFCURVE",
"480 377 CURVE SMOOTH",
"480 384 OFFCURVE",
"477 415 OFFCURVE",
"465 415 CURVE SMOOTH",
"458 415 OFFCURVE",
"458 404 OFFCURVE",
"458 401 CURVE SMOOTH",
"453 362 OFFCURVE",
"390 272 OFFCURVE",
"364 243 CURVE SMOOTH",
"330 205 OFFCURVE",
"171 50 OFFCURVE",
"129 50 CURVE SMOOTH",
"118 50 OFFCURVE",
"116 59 OFFCURVE",
"116 68 CURVE SMOOTH",
"116 101 OFFCURVE",
"161 220 OFFCURVE",
"176 253 CURVE SMOOTH",
"185 272 OFFCURVE",
"214 331 OFFCURVE",
"214 351 CURVE SMOOTH",
"214 355 OFFCURVE",
"213 358 OFFCURVE",
"209 358 CURVE SMOOTH",
"199 358 OFFCURVE",
"136 331 OFFCURVE",
"136 326 CURVE SMOOTH",
"136 321 OFFCURVE",
"149 320 OFFCURVE",
"149 301 CURVE SMOOTH",
"149 258 OFFCURVE",
"29 92 OFFCURVE",
"30 -6 CURVE",
"34 -12 OFFCURVE",
"46 -13 OFFCURVE",
"53 -13 CURVE SMOOTH"
);
}
);
width = 393;
}
);
note = v;
unicode = 0076;
},
{
glyphname = w;
lastChange = "2022-02-17 03:35:41 +0000";
layers = (
{
layerId = "9E0C627C-9F9A-47B5-8A8C-706F30D5AE4A";
paths = (
{
closed = 1;
nodes = (
"115 -13 OFFCURVE",
"259 138 OFFCURVE",
"310 201 CURVE",
"287 157 OFFCURVE",
"235 55 OFFCURVE",
"235 7 CURVE SMOOTH",
"235 -12 OFFCURVE",
"253 -13 OFFCURVE",
"267 -13 CURVE SMOOTH",
"305 -13 OFFCURVE",
"342 1 OFFCURVE",
"374 21 CURVE SMOOTH",
"450 69 OFFCURVE",
"638 240 OFFCURVE",
"638 338 CURVE SMOOTH",
"638 349 OFFCURVE",
"633 383 OFFCURVE",
"616 383 CURVE SMOOTH",
"608 383 OFFCURVE",
"608 373 OFFCURVE",
"607 368 CURVE SMOOTH",
"597 280 OFFCURVE",
"499 158 OFFCURVE",
"437 98 CURVE SMOOTH",
"417 79 OFFCURVE",
"369 35 OFFCURVE",
"340 35 CURVE SMOOTH",
"324 35 OFFCURVE",
"320 49 OFFCURVE",
"320 63 CURVE SMOOTH",
"320 100 OFFCURVE",
"364 217 OFFCURVE",
"381 253 CURVE SMOOTH",
"390 272 OFFCURVE",
"419 331 OFFCURVE",
"419 351 CURVE SMOOTH",
"419 354 OFFCURVE",
"418 358 OFFCURVE",
"414 358 CURVE SMOOTH",
"406 358 OFFCURVE",
"372 346 OFFCURVE",
"364 342 CURVE SMOOTH",
"350 336 OFFCURVE",
"345 298 OFFCURVE",
"339 284 CURVE SMOOTH",
"334 274 OFFCURVE",
"328 264 OFFCURVE",
"321 254 CURVE SMOOTH",
"292 214 OFFCURVE",
"148 50 OFFCURVE",
"102 50 CURVE SMOOTH",
"91 50 OFFCURVE",
"89 60 OFFCURVE",
"89 68 CURVE SMOOTH",
"89 100 OFFCURVE",
"134 220 OFFCURVE",
"149 253 CURVE SMOOTH",
"158 272 OFFCURVE",
"187 331 OFFCURVE",
"187 351 CURVE SMOOTH",
"187 354 OFFCURVE",
"186 358 OFFCURVE",
"182 358 CURVE SMOOTH",
"171 358 OFFCURVE",
"102 329 OFFCURVE",
"102 323 CURVE SMOOTH",
"102 321 OFFCURVE",
"115 317 OFFCURVE",
"115 299 CURVE SMOOTH",
"115 259 OFFCURVE",
"8 110 OFFCURVE",
"8 12 CURVE SMOOTH",
"8 -5 OFFCURVE",
"13 -13 OFFCURVE",
"31 -13 CURVE SMOOTH"
);
}
);
width = 559;
}
);
note = w;
unicode = 0077;
},
